<?xml version="1.0" encoding="UTF-8" standalone="no"?>
<!DOCTYPE svg PUBLIC "-//W3C//DTD SVG 1.1//EN"
 "http://www.w3.org/Graphics/SVG/1.1/DTD/svg11.dtd">
<!-- Generated by graphviz version 2.43.0 (0)
 -->
<!-- Title: stl_ext::BST&lt; T &gt; Pages: 1 -->
<svg width="138pt" height="487pt"
 viewBox="0.00 0.00 138.00 487.00" xmlns="http://www.w3.org/2000/svg" xmlns:xlink="http://www.w3.org/1999/xlink">
<g id="graph0" class="graph" transform="scale(1 1) rotate(0) translate(4 483)">
<title>stl_ext::BST&lt; T &gt;</title>
<!-- Node1 -->
<g id="Node000001" class="node">
<title>Node1</title>
<g id="a_Node000001"><a xlink:title=" ">
<polygon fill="#999999" stroke="transparent" points="119.5,-139 10.5,-139 10.5,0 119.5,0 119.5,-139"/>
<text text-anchor="start" x="22" y="-126.5" font-family="Helvetica,sans-Serif" font-size="10.00">stl_ext::BST&lt; T &gt;</text>
<text text-anchor="start" x="63.5" y="-111.5" font-family="Helvetica,sans-Serif" font-size="10.00"> </text>
<text text-anchor="start" x="15" y="-96.5" font-family="Helvetica,sans-Serif" font-size="10.00">+</text>
<text text-anchor="start" x="28" y="-96.5" font-family="Helvetica,sans-Serif" font-size="10.00">insert()</text>
<text text-anchor="start" x="15" y="-81.5" font-family="Helvetica,sans-Serif" font-size="10.00">+</text>
<text text-anchor="start" x="28" y="-81.5" font-family="Helvetica,sans-Serif" font-size="10.00">contains()</text>
<text text-anchor="start" x="15" y="-66.5" font-family="Helvetica,sans-Serif" font-size="10.00">+</text>
<text text-anchor="start" x="28" y="-66.5" font-family="Helvetica,sans-Serif" font-size="10.00">remove()</text>
<text text-anchor="start" x="15" y="-51.5" font-family="Helvetica,sans-Serif" font-size="10.00">+</text>
<text text-anchor="start" x="28" y="-51.5" font-family="Helvetica,sans-Serif" font-size="10.00">get_min()</text>
<text text-anchor="start" x="15" y="-36.5" font-family="Helvetica,sans-Serif" font-size="10.00">+</text>
<text text-anchor="start" x="28" y="-36.5" font-family="Helvetica,sans-Serif" font-size="10.00">get_max()</text>
<text text-anchor="start" x="15" y="-21.5" font-family="Helvetica,sans-Serif" font-size="10.00">+</text>
<text text-anchor="start" x="28" y="-21.5" font-family="Helvetica,sans-Serif" font-size="10.00">get_successor()</text>
<text text-anchor="start" x="15" y="-6.5" font-family="Helvetica,sans-Serif" font-size="10.00">+</text>
<text text-anchor="start" x="28" y="-6.5" font-family="Helvetica,sans-Serif" font-size="10.00">get_predecessor()</text>
<polygon fill="#666666" stroke="#666666" points="11,-121.5 11,-121.5 120,-121.5 120,-121.5 11,-121.5"/>
<polygon fill="#666666" stroke="#666666" points="11,-106.5 11,-106.5 120,-106.5 120,-106.5 11,-106.5"/>
<polygon fill="none" stroke="#666666" points="10.5,0 10.5,-139 119.5,-139 119.5,0 10.5,0"/>
</a>
</g>
</g>
<!-- Node2 -->
<g id="Node000002" class="node">
<title>Node2</title>
<g id="a_Node000002"><a xlink:href="classstl__ext_1_1BinaryTree.html" target="_top" xlink:title=" ">
<polygon fill="white" stroke="transparent" points="130,-479 0,-479 0,-175 130,-175 130,-479"/>
<text text-anchor="start" x="5" y="-467" font-family="Helvetica,sans-Serif" font-size="10.00">stl_ext::BinaryTree&lt; T &gt;</text>
<text text-anchor="start" x="12" y="-452" font-family="Helvetica,sans-Serif" font-size="10.00">#</text>
<text text-anchor="start" x="33" y="-452" font-family="Helvetica,sans-Serif" font-size="10.00">p_head</text>
<text text-anchor="start" x="12" y="-437" font-family="Helvetica,sans-Serif" font-size="10.00">+</text>
<text text-anchor="start" x="33" y="-437" font-family="Helvetica,sans-Serif" font-size="10.00">BinaryTree()</text>
<text text-anchor="start" x="12" y="-422" font-family="Helvetica,sans-Serif" font-size="10.00">+</text>
<text text-anchor="start" x="33" y="-422" font-family="Helvetica,sans-Serif" font-size="10.00">BinaryTree()</text>
<text text-anchor="start" x="12" y="-407" font-family="Helvetica,sans-Serif" font-size="10.00">+</text>
<text text-anchor="start" x="33" y="-407" font-family="Helvetica,sans-Serif" font-size="10.00">operator=()</text>
<text text-anchor="start" x="12" y="-392" font-family="Helvetica,sans-Serif" font-size="10.00">+</text>
<text text-anchor="start" x="33" y="-392" font-family="Helvetica,sans-Serif" font-size="10.00">BinaryTree()</text>
<text text-anchor="start" x="12" y="-377" font-family="Helvetica,sans-Serif" font-size="10.00">+</text>
<text text-anchor="start" x="33" y="-377" font-family="Helvetica,sans-Serif" font-size="10.00">operator=()</text>
<text text-anchor="start" x="12" y="-362" font-family="Helvetica,sans-Serif" font-size="10.00">+</text>
<text text-anchor="start" x="33" y="-362" font-family="Helvetica,sans-Serif" font-size="10.00">~BinaryTree()</text>
<text text-anchor="start" x="12" y="-347" font-family="Helvetica,sans-Serif" font-size="10.00">+</text>
<text text-anchor="start" x="33" y="-347" font-family="Helvetica,sans-Serif" font-size="10.00">get_root()</text>
<text text-anchor="start" x="12" y="-332" font-family="Helvetica,sans-Serif" font-size="10.00">+</text>
<text text-anchor="start" x="33" y="-332" font-family="Helvetica,sans-Serif" font-size="10.00">set_root()</text>
<text text-anchor="start" x="12" y="-317" font-family="Helvetica,sans-Serif" font-size="10.00">+</text>
<text text-anchor="start" x="33" y="-317" font-family="Helvetica,sans-Serif" font-size="10.00">is_empty()</text>
<text text-anchor="start" x="12" y="-302" font-family="Helvetica,sans-Serif" font-size="10.00">+</text>
<text text-anchor="start" x="33" y="-302" font-family="Helvetica,sans-Serif" font-size="10.00">size()</text>
<text text-anchor="start" x="33" y="-287" font-family="Helvetica,sans-Serif" font-size="10.00">and 6 more...</text>
<text text-anchor="start" x="12" y="-272" font-family="Helvetica,sans-Serif" font-size="10.00">+</text>
<text text-anchor="start" x="33" y="-272" font-family="Helvetica,sans-Serif" font-size="10.00">make_node()</text>
<text text-anchor="start" x="12" y="-257" font-family="Helvetica,sans-Serif" font-size="10.00">+</text>
<text text-anchor="start" x="33" y="-257" font-family="Helvetica,sans-Serif" font-size="10.00">make_node()</text>
<text text-anchor="start" x="12" y="-242" font-family="Helvetica,sans-Serif" font-size="10.00">#</text>
<text text-anchor="start" x="33" y="-242" font-family="Helvetica,sans-Serif" font-size="10.00">preorder()</text>
<text text-anchor="start" x="12" y="-227" font-family="Helvetica,sans-Serif" font-size="10.00">#</text>
<text text-anchor="start" x="33" y="-227" font-family="Helvetica,sans-Serif" font-size="10.00">inorder()</text>
<text text-anchor="start" x="12" y="-212" font-family="Helvetica,sans-Serif" font-size="10.00">#</text>
<text text-anchor="start" x="33" y="-212" font-family="Helvetica,sans-Serif" font-size="10.00">postorder()</text>
<text text-anchor="start" x="12" y="-197" font-family="Helvetica,sans-Serif" font-size="10.00">#</text>
<text text-anchor="start" x="33" y="-197" font-family="Helvetica,sans-Serif" font-size="10.00">levelorder()</text>
<text text-anchor="start" x="12" y="-182" font-family="Helvetica,sans-Serif" font-size="10.00">#</text>
<text text-anchor="start" x="33" y="-182" font-family="Helvetica,sans-Serif" font-size="10.00">compute_size()</text>
<polygon fill="#666666" stroke="#666666" points="0,-462 0,-462 130,-462 130,-462 0,-462"/>
<polygon fill="#666666" stroke="#666666" points="0,-447 0,-447 31,-447 31,-447 0,-447"/>
<polygon fill="#666666" stroke="#666666" points="31,-447 31,-447 130,-447 130,-447 31,-447"/>
<polygon fill="none" stroke="#666666" points="0,-175 0,-479 130,-479 130,-175 0,-175"/>
</a>
</g>
</g>
<!-- Node2&#45;&gt;Node1 -->
<g id="edge1_Node000001_Node000002" class="edge">
<title>Node2&#45;&gt;Node1</title>
<g id="a_edge1_Node000001_Node000002"><a xlink:title=" ">
<path fill="none" stroke="#63b8ff" d="M65,-164.7C65,-155.85 65,-147.22 65,-139.02"/>
<polygon fill="none" stroke="#63b8ff" points="61.5,-164.79 65,-174.79 68.5,-164.79 61.5,-164.79"/>
</a>
</g>
</g>
</g>
</svg>
