<?xml version="1.0" encoding="UTF-8" standalone="no"?>
<!DOCTYPE svg PUBLIC "-//W3C//DTD SVG 1.1//EN"
 "http://www.w3.org/Graphics/SVG/1.1/DTD/svg11.dtd">
<!-- Generated by graphviz version 2.43.0 (0)
 -->
<!-- Title: stl_ext::BST&lt; T &gt; Pages: 1 -->
<svg width="138pt" height="587pt"
 viewBox="0.00 0.00 138.00 587.00" xmlns="http://www.w3.org/2000/svg" xmlns:xlink="http://www.w3.org/1999/xlink">
<g id="graph0" class="graph" transform="scale(1 1) rotate(0) translate(4 583)">
<title>stl_ext::BST&lt; T &gt;</title>
<!-- Node1 -->
<g id="Node000001" class="node">
<title>Node1</title>
<g id="a_Node000001"><a xlink:title=" ">
<polygon fill="#999999" stroke="transparent" points="119.5,-239 10.5,-239 10.5,-100 119.5,-100 119.5,-239"/>
<text text-anchor="start" x="22" y="-226.5" font-family="Helvetica,sans-Serif" font-size="10.00">stl_ext::BST&lt; T &gt;</text>
<text text-anchor="start" x="63.5" y="-211.5" font-family="Helvetica,sans-Serif" font-size="10.00"> </text>
<text text-anchor="start" x="15" y="-196.5" font-family="Helvetica,sans-Serif" font-size="10.00">+</text>
<text text-anchor="start" x="28" y="-196.5" font-family="Helvetica,sans-Serif" font-size="10.00">insert()</text>
<text text-anchor="start" x="15" y="-181.5" font-family="Helvetica,sans-Serif" font-size="10.00">+</text>
<text text-anchor="start" x="28" y="-181.5" font-family="Helvetica,sans-Serif" font-size="10.00">contains()</text>
<text text-anchor="start" x="15" y="-166.5" font-family="Helvetica,sans-Serif" font-size="10.00">+</text>
<text text-anchor="start" x="28" y="-166.5" font-family="Helvetica,sans-Serif" font-size="10.00">remove()</text>
<text text-anchor="start" x="15" y="-151.5" font-family="Helvetica,sans-Serif" font-size="10.00">+</text>
<text text-anchor="start" x="28" y="-151.5" font-family="Helvetica,sans-Serif" font-size="10.00">get_min()</text>
<text text-anchor="start" x="15" y="-136.5" font-family="Helvetica,sans-Serif" font-size="10.00">+</text>
<text text-anchor="start" x="28" y="-136.5" font-family="Helvetica,sans-Serif" font-size="10.00">get_max()</text>
<text text-anchor="start" x="15" y="-121.5" font-family="Helvetica,sans-Serif" font-size="10.00">+</text>
<text text-anchor="start" x="28" y="-121.5" font-family="Helvetica,sans-Serif" font-size="10.00">get_successor()</text>
<text text-anchor="start" x="15" y="-106.5" font-family="Helvetica,sans-Serif" font-size="10.00">+</text>
<text text-anchor="start" x="28" y="-106.5" font-family="Helvetica,sans-Serif" font-size="10.00">get_predecessor()</text>
<polygon fill="#666666" stroke="#666666" points="11,-221.5 11,-221.5 120,-221.5 120,-221.5 11,-221.5"/>
<polygon fill="#666666" stroke="#666666" points="11,-206.5 11,-206.5 120,-206.5 120,-206.5 11,-206.5"/>
<polygon fill="none" stroke="#666666" points="10.5,-100 10.5,-239 119.5,-239 119.5,-100 10.5,-100"/>
</a>
</g>
</g>
<!-- Node3 -->
<g id="Node000003" class="node">
<title>Node3</title>
<g id="a_Node000003"><a xlink:href="classstl__ext_1_1AVLTree.html" target="_top" xlink:title=" ">
<polygon fill="white" stroke="transparent" points="123,-64 7,-64 7,0 123,0 123,-64"/>
<text text-anchor="start" x="12" y="-52" font-family="Helvetica,sans-Serif" font-size="10.00">stl_ext::AVLTree&lt; T &gt;</text>
<text text-anchor="start" x="63" y="-37" font-family="Helvetica,sans-Serif" font-size="10.00"> </text>
<text text-anchor="start" x="23" y="-22" font-family="Helvetica,sans-Serif" font-size="10.00">+</text>
<text text-anchor="start" x="48" y="-22" font-family="Helvetica,sans-Serif" font-size="10.00">insert()</text>
<text text-anchor="start" x="23" y="-7" font-family="Helvetica,sans-Serif" font-size="10.00">+</text>
<text text-anchor="start" x="48" y="-7" font-family="Helvetica,sans-Serif" font-size="10.00">remove()</text>
<polygon fill="#666666" stroke="#666666" points="7,-47 7,-47 123,-47 123,-47 7,-47"/>
<polygon fill="#666666" stroke="#666666" points="7,-32 7,-32 123,-32 123,-32 7,-32"/>
<polygon fill="none" stroke="#666666" points="7,0 7,-64 123,-64 123,0 7,0"/>
</a>
</g>
</g>
<!-- Node1&#45;&gt;Node3 -->
<g id="edge2_Node000001_Node000003" class="edge">
<title>Node1&#45;&gt;Node3</title>
<g id="a_edge2_Node000001_Node000003"><a xlink:title=" ">
<path fill="none" stroke="#63b8ff" d="M65,-89.95C65,-80.8 65,-71.92 65,-64"/>
<polygon fill="none" stroke="#63b8ff" points="61.5,-89.96 65,-99.96 68.5,-89.96 61.5,-89.96"/>
</a>
</g>
</g>
<!-- Node2 -->
<g id="Node000002" class="node">
<title>Node2</title>
<g id="a_Node000002"><a xlink:href="classstl__ext_1_1BinaryTree.html" target="_top" xlink:title=" ">
<polygon fill="white" stroke="transparent" points="130,-579 0,-579 0,-275 130,-275 130,-579"/>
<text text-anchor="start" x="5" y="-567" font-family="Helvetica,sans-Serif" font-size="10.00">stl_ext::BinaryTree&lt; T &gt;</text>
<text text-anchor="start" x="12" y="-552" font-family="Helvetica,sans-Serif" font-size="10.00">#</text>
<text text-anchor="start" x="33" y="-552" font-family="Helvetica,sans-Serif" font-size="10.00">p_head</text>
<text text-anchor="start" x="12" y="-537" font-family="Helvetica,sans-Serif" font-size="10.00">+</text>
<text text-anchor="start" x="33" y="-537" font-family="Helvetica,sans-Serif" font-size="10.00">BinaryTree()</text>
<text text-anchor="start" x="12" y="-522" font-family="Helvetica,sans-Serif" font-size="10.00">+</text>
<text text-anchor="start" x="33" y="-522" font-family="Helvetica,sans-Serif" font-size="10.00">BinaryTree()</text>
<text text-anchor="start" x="12" y="-507" font-family="Helvetica,sans-Serif" font-size="10.00">+</text>
<text text-anchor="start" x="33" y="-507" font-family="Helvetica,sans-Serif" font-size="10.00">operator=()</text>
<text text-anchor="start" x="12" y="-492" font-family="Helvetica,sans-Serif" font-size="10.00">+</text>
<text text-anchor="start" x="33" y="-492" font-family="Helvetica,sans-Serif" font-size="10.00">BinaryTree()</text>
<text text-anchor="start" x="12" y="-477" font-family="Helvetica,sans-Serif" font-size="10.00">+</text>
<text text-anchor="start" x="33" y="-477" font-family="Helvetica,sans-Serif" font-size="10.00">operator=()</text>
<text text-anchor="start" x="12" y="-462" font-family="Helvetica,sans-Serif" font-size="10.00">+</text>
<text text-anchor="start" x="33" y="-462" font-family="Helvetica,sans-Serif" font-size="10.00">~BinaryTree()</text>
<text text-anchor="start" x="12" y="-447" font-family="Helvetica,sans-Serif" font-size="10.00">+</text>
<text text-anchor="start" x="33" y="-447" font-family="Helvetica,sans-Serif" font-size="10.00">get_root()</text>
<text text-anchor="start" x="12" y="-432" font-family="Helvetica,sans-Serif" font-size="10.00">+</text>
<text text-anchor="start" x="33" y="-432" font-family="Helvetica,sans-Serif" font-size="10.00">set_root()</text>
<text text-anchor="start" x="12" y="-417" font-family="Helvetica,sans-Serif" font-size="10.00">+</text>
<text text-anchor="start" x="33" y="-417" font-family="Helvetica,sans-Serif" font-size="10.00">is_empty()</text>
<text text-anchor="start" x="12" y="-402" font-family="Helvetica,sans-Serif" font-size="10.00">+</text>
<text text-anchor="start" x="33" y="-402" font-family="Helvetica,sans-Serif" font-size="10.00">size()</text>
<text text-anchor="start" x="33" y="-387" font-family="Helvetica,sans-Serif" font-size="10.00">and 6 more...</text>
<text text-anchor="start" x="12" y="-372" font-family="Helvetica,sans-Serif" font-size="10.00">+</text>
<text text-anchor="start" x="33" y="-372" font-family="Helvetica,sans-Serif" font-size="10.00">make_node()</text>
<text text-anchor="start" x="12" y="-357" font-family="Helvetica,sans-Serif" font-size="10.00">+</text>
<text text-anchor="start" x="33" y="-357" font-family="Helvetica,sans-Serif" font-size="10.00">make_node()</text>
<text text-anchor="start" x="12" y="-342" font-family="Helvetica,sans-Serif" font-size="10.00">#</text>
<text text-anchor="start" x="33" y="-342" font-family="Helvetica,sans-Serif" font-size="10.00">preorder()</text>
<text text-anchor="start" x="12" y="-327" font-family="Helvetica,sans-Serif" font-size="10.00">#</text>
<text text-anchor="start" x="33" y="-327" font-family="Helvetica,sans-Serif" font-size="10.00">inorder()</text>
<text text-anchor="start" x="12" y="-312" font-family="Helvetica,sans-Serif" font-size="10.00">#</text>
<text text-anchor="start" x="33" y="-312" font-family="Helvetica,sans-Serif" font-size="10.00">postorder()</text>
<text text-anchor="start" x="12" y="-297" font-family="Helvetica,sans-Serif" font-size="10.00">#</text>
<text text-anchor="start" x="33" y="-297" font-family="Helvetica,sans-Serif" font-size="10.00">levelorder()</text>
<text text-anchor="start" x="12" y="-282" font-family="Helvetica,sans-Serif" font-size="10.00">#</text>
<text text-anchor="start" x="33" y="-282" font-family="Helvetica,sans-Serif" font-size="10.00">compute_size()</text>
<polygon fill="#666666" stroke="#666666" points="0,-562 0,-562 130,-562 130,-562 0,-562"/>
<polygon fill="#666666" stroke="#666666" points="0,-547 0,-547 31,-547 31,-547 0,-547"/>
<polygon fill="#666666" stroke="#666666" points="31,-547 31,-547 130,-547 130,-547 31,-547"/>
<polygon fill="none" stroke="#666666" points="0,-275 0,-579 130,-579 130,-275 0,-275"/>
</a>
</g>
</g>
<!-- Node2&#45;&gt;Node1 -->
<g id="edge1_Node000001_Node000002" class="edge">
<title>Node2&#45;&gt;Node1</title>
<g id="a_edge1_Node000001_Node000002"><a xlink:title=" ">
<path fill="none" stroke="#63b8ff" d="M65,-264.7C65,-255.85 65,-247.22 65,-239.02"/>
<polygon fill="none" stroke="#63b8ff" points="61.5,-264.79 65,-274.79 68.5,-264.79 61.5,-264.79"/>
</a>
</g>
</g>
</g>
</svg>
