<?xml version="1.0" encoding="UTF-8" standalone="no"?>
<!DOCTYPE svg PUBLIC "-//W3C//DTD SVG 1.1//EN"
 "http://www.w3.org/Graphics/SVG/1.1/DTD/svg11.dtd">
<!-- Generated by graphviz version 2.43.0 (0)
 -->
<!-- Title: include/cppx.h Pages: 1 -->
<svg width="822pt" height="137pt"
 viewBox="0.00 0.00 822.00 137.00" xmlns="http://www.w3.org/2000/svg" xmlns:xlink="http://www.w3.org/1999/xlink">
<g id="graph0" class="graph" transform="scale(1 1) rotate(0) translate(4 133)">
<title>include/cppx.h</title>
<!-- Node1 -->
<g id="Node000001" class="node">
<title>Node1</title>
<g id="a_Node000001"><a xlink:title=" ">
<polygon fill="#999999" stroke="#666666" points="386.5,-129 299.5,-129 299.5,-110 386.5,-110 386.5,-129"/>
<text text-anchor="middle" x="343" y="-117" font-family="Helvetica,sans-Serif" font-size="10.00">include/cppx.h</text>
</a>
</g>
</g>
<!-- Node2 -->
<g id="Node000002" class="node">
<title>Node2</title>
<g id="a_Node000002"><a xlink:title=" ">
<polygon fill="#e0e0e0" stroke="#999999" points="60,-74 0,-74 0,-55 60,-55 60,-74"/>
<text text-anchor="middle" x="30" y="-62" font-family="Helvetica,sans-Serif" font-size="10.00">iostream</text>
</a>
</g>
</g>
<!-- Node1&#45;&gt;Node2 -->
<g id="edge1_Node000001_Node000002" class="edge">
<title>Node1&#45;&gt;Node2</title>
<g id="a_edge1_Node000001_Node000002"><a xlink:title=" ">
<path fill="none" stroke="#63b8ff" d="M299.21,-112.13C247.03,-104.37 156.96,-90.47 70.21,-74.15"/>
<polygon fill="#63b8ff" stroke="#63b8ff" points="70.68,-70.67 60.2,-72.25 69.37,-77.55 70.68,-70.67"/>
</a>
</g>
</g>
<!-- Node3 -->
<g id="Node000003" class="node">
<title>Node3</title>
<g id="a_Node000003"><a xlink:title=" ">
<polygon fill="#e0e0e0" stroke="#999999" points="136,-74 78,-74 78,-55 136,-55 136,-74"/>
<text text-anchor="middle" x="107" y="-62" font-family="Helvetica,sans-Serif" font-size="10.00">memory</text>
</a>
</g>
</g>
<!-- Node1&#45;&gt;Node3 -->
<g id="edge2_Node000001_Node000003" class="edge">
<title>Node1&#45;&gt;Node3</title>
<g id="a_edge2_Node000001_Node000003"><a xlink:title=" ">
<path fill="none" stroke="#63b8ff" d="M305.08,-109.98C261.44,-100.18 190.14,-84.17 146.04,-74.27"/>
<polygon fill="#63b8ff" stroke="#63b8ff" points="146.77,-70.85 136.25,-72.07 145.24,-77.68 146.77,-70.85"/>
</a>
</g>
</g>
<!-- Node4 -->
<g id="Node000004" class="node">
<title>Node4</title>
<g id="a_Node000004"><a xlink:title=" ">
<polygon fill="#e0e0e0" stroke="#999999" points="201.5,-74 154.5,-74 154.5,-55 201.5,-55 201.5,-74"/>
<text text-anchor="middle" x="178" y="-62" font-family="Helvetica,sans-Serif" font-size="10.00">queue</text>
</a>
</g>
</g>
<!-- Node1&#45;&gt;Node4 -->
<g id="edge3_Node000001_Node000004" class="edge">
<title>Node1&#45;&gt;Node4</title>
<g id="a_edge3_Node000001_Node000004"><a xlink:title=" ">
<path fill="none" stroke="#63b8ff" d="M316.49,-109.98C287.93,-100.81 242.41,-86.19 211.41,-76.23"/>
<polygon fill="#63b8ff" stroke="#63b8ff" points="212.1,-72.78 201.5,-73.05 209.96,-79.44 212.1,-72.78"/>
</a>
</g>
</g>
<!-- Node5 -->
<g id="Node000005" class="node">
<title>Node5</title>
<g id="a_Node000005"><a xlink:title=" ">
<polygon fill="#e0e0e0" stroke="#999999" points="262.5,-74 219.5,-74 219.5,-55 262.5,-55 262.5,-74"/>
<text text-anchor="middle" x="241" y="-62" font-family="Helvetica,sans-Serif" font-size="10.00">stack</text>
</a>
</g>
</g>
<!-- Node1&#45;&gt;Node5 -->
<g id="edge4_Node000001_Node000005" class="edge">
<title>Node1&#45;&gt;Node5</title>
<g id="a_edge4_Node000001_Node000005"><a xlink:title=" ">
<path fill="none" stroke="#63b8ff" d="M326.61,-109.98C310.43,-101.57 285.43,-88.59 266.62,-78.81"/>
<polygon fill="#63b8ff" stroke="#63b8ff" points="268.17,-75.68 257.69,-74.17 264.95,-81.89 268.17,-75.68"/>
</a>
</g>
</g>
<!-- Node6 -->
<g id="Node000006" class="node">
<title>Node6</title>
<g id="a_Node000006"><a xlink:title=" ">
<polygon fill="#e0e0e0" stroke="#999999" points="345.5,-74 280.5,-74 280.5,-55 345.5,-55 345.5,-74"/>
<text text-anchor="middle" x="313" y="-62" font-family="Helvetica,sans-Serif" font-size="10.00">stdexcept</text>
</a>
</g>
</g>
<!-- Node1&#45;&gt;Node6 -->
<g id="edge5_Node000001_Node000006" class="edge">
<title>Node1&#45;&gt;Node6</title>
<g id="a_edge5_Node000001_Node000006"><a xlink:title=" ">
<path fill="none" stroke="#63b8ff" d="M338.05,-109.75C333.94,-102.49 327.97,-91.95 322.9,-82.98"/>
<polygon fill="#63b8ff" stroke="#63b8ff" points="325.83,-81.07 317.86,-74.09 319.74,-84.52 325.83,-81.07"/>
</a>
</g>
</g>
<!-- Node7 -->
<g id="Node000007" class="node">
<title>Node7</title>
<g id="a_Node000007"><a xlink:title=" ">
<polygon fill="#e0e0e0" stroke="#999999" points="431.5,-19 384.5,-19 384.5,0 431.5,0 431.5,-19"/>
<text text-anchor="middle" x="408" y="-7" font-family="Helvetica,sans-Serif" font-size="10.00">vector</text>
</a>
</g>
</g>
<!-- Node1&#45;&gt;Node7 -->
<g id="edge6_Node000001_Node000007" class="edge">
<title>Node1&#45;&gt;Node7</title>
<g id="a_edge6_Node000001_Node000007"><a xlink:title=" ">
<path fill="none" stroke="#63b8ff" d="M348.32,-109.66C359.04,-91.85 383.4,-51.37 397.46,-28.01"/>
<polygon fill="#63b8ff" stroke="#63b8ff" points="400.63,-29.53 402.79,-19.16 394.63,-25.92 400.63,-29.53"/>
</a>
</g>
</g>
<!-- Node8 -->
<g id="Node000008" class="node">
<title>Node8</title>
<g id="a_Node000008"><a xlink:href="avl_8tpp.html" target="_top" xlink:title=" ">
<polygon fill="white" stroke="#666666" points="574.5,-74 497.5,-74 497.5,-55 574.5,-55 574.5,-74"/>
<text text-anchor="middle" x="536" y="-62" font-family="Helvetica,sans-Serif" font-size="10.00">../src/avl.tpp</text>
</a>
</g>
</g>
<!-- Node1&#45;&gt;Node8 -->
<g id="edge7_Node000001_Node000008" class="edge">
<title>Node1&#45;&gt;Node8</title>
<g id="a_edge7_Node000001_Node000008"><a xlink:title=" ">
<path fill="none" stroke="#63b8ff" d="M374.01,-109.98C406.83,-100.97 458.8,-86.7 494.99,-76.76"/>
<polygon fill="#63b8ff" stroke="#63b8ff" points="496.03,-80.11 504.75,-74.08 494.18,-73.36 496.03,-80.11"/>
</a>
</g>
</g>
<!-- Node10 -->
<g id="Node000010" class="node">
<title>Node10</title>
<g id="a_Node000010"><a xlink:href="binary__tree_8tpp.html" target="_top" xlink:title=" ">
<polygon fill="white" stroke="#666666" points="709.5,-74 592.5,-74 592.5,-55 709.5,-55 709.5,-74"/>
<text text-anchor="middle" x="651" y="-62" font-family="Helvetica,sans-Serif" font-size="10.00">../src/binary_tree.tpp</text>
</a>
</g>
</g>
<!-- Node1&#45;&gt;Node10 -->
<g id="edge9_Node000001_Node000010" class="edge">
<title>Node1&#45;&gt;Node10</title>
<g id="a_edge9_Node000001_Node000010"><a xlink:title=" ">
<path fill="none" stroke="#63b8ff" d="M386.8,-110.96C440.42,-101.74 531.45,-86.07 591.41,-75.75"/>
<polygon fill="#63b8ff" stroke="#63b8ff" points="592.23,-79.17 601.49,-74.02 591.04,-72.27 592.23,-79.17"/>
</a>
</g>
</g>
<!-- Node11 -->
<g id="Node000011" class="node">
<title>Node11</title>
<g id="a_Node000011"><a xlink:href="bst_8tpp.html" target="_top" xlink:title=" ">
<polygon fill="white" stroke="#666666" points="479.5,-74 402.5,-74 402.5,-55 479.5,-55 479.5,-74"/>
<text text-anchor="middle" x="441" y="-62" font-family="Helvetica,sans-Serif" font-size="10.00">../src/bst.tpp</text>
</a>
</g>
</g>
<!-- Node1&#45;&gt;Node11 -->
<g id="edge11_Node000001_Node000011" class="edge">
<title>Node1&#45;&gt;Node11</title>
<g id="a_edge11_Node000001_Node000011"><a xlink:title=" ">
<path fill="none" stroke="#63b8ff" d="M358.75,-109.98C374.23,-101.61 398.09,-88.7 416.14,-78.95"/>
<polygon fill="#63b8ff" stroke="#63b8ff" points="417.84,-82.01 424.97,-74.17 414.51,-75.85 417.84,-82.01"/>
</a>
</g>
</g>
<!-- Node12 -->
<g id="Node000012" class="node">
<title>Node12</title>
<g id="a_Node000012"><a xlink:href="node_8tpp.html" target="_top" xlink:title=" ">
<polygon fill="white" stroke="#666666" points="814,-74 728,-74 728,-55 814,-55 814,-74"/>
<text text-anchor="middle" x="771" y="-62" font-family="Helvetica,sans-Serif" font-size="10.00">../src/node.tpp</text>
</a>
</g>
</g>
<!-- Node1&#45;&gt;Node12 -->
<g id="edge14_Node000001_Node000012" class="edge">
<title>Node1&#45;&gt;Node12</title>
<g id="a_edge14_Node000001_Node000012"><a xlink:title=" ">
<path fill="none" stroke="#63b8ff" d="M386.5,-113.98C454.77,-106.76 591.45,-91.73 717.66,-74.13"/>
<polygon fill="#63b8ff" stroke="#63b8ff" points="718.48,-77.55 727.89,-72.7 717.5,-70.62 718.48,-77.55"/>
</a>
</g>
</g>
<!-- Node9 -->
<g id="Node000009" class="node">
<title>Node9</title>
<g id="a_Node000009"><a xlink:title=" ">
<polygon fill="#e0e0e0" stroke="#999999" points="568,-19 504,-19 504,0 568,0 568,-19"/>
<text text-anchor="middle" x="536" y="-7" font-family="Helvetica,sans-Serif" font-size="10.00">algorithm</text>
</a>
</g>
</g>
<!-- Node8&#45;&gt;Node9 -->
<g id="edge8_Node000008_Node000009" class="edge">
<title>Node8&#45;&gt;Node9</title>
<g id="a_edge8_Node000008_Node000009"><a xlink:title=" ">
<path fill="none" stroke="#63b8ff" d="M536,-54.75C536,-47.8 536,-37.85 536,-29.13"/>
<polygon fill="#63b8ff" stroke="#63b8ff" points="539.5,-29.09 536,-19.09 532.5,-29.09 539.5,-29.09"/>
</a>
</g>
</g>
<!-- Node10&#45;&gt;Node9 -->
<g id="edge10_Node000010_Node000009" class="edge">
<title>Node10&#45;&gt;Node9</title>
<g id="a_edge10_Node000010_Node000009"><a xlink:title=" ">
<path fill="none" stroke="#63b8ff" d="M632.52,-54.98C614.02,-46.46 585.32,-33.23 564.02,-23.41"/>
<polygon fill="#63b8ff" stroke="#63b8ff" points="565.36,-20.18 554.81,-19.17 562.43,-26.53 565.36,-20.18"/>
</a>
</g>
</g>
<!-- Node11&#45;&gt;Node7 -->
<g id="edge13_Node000011_Node000007" class="edge">
<title>Node11&#45;&gt;Node7</title>
<g id="a_edge13_Node000011_Node000007"><a xlink:title=" ">
<path fill="none" stroke="#63b8ff" d="M435.55,-54.75C430.99,-47.42 424.33,-36.73 418.71,-27.7"/>
<polygon fill="#63b8ff" stroke="#63b8ff" points="421.6,-25.73 413.35,-19.09 415.66,-29.43 421.6,-25.73"/>
</a>
</g>
</g>
<!-- Node11&#45;&gt;Node9 -->
<g id="edge12_Node000011_Node000009" class="edge">
<title>Node11&#45;&gt;Node9</title>
<g id="a_edge12_Node000011_Node000009"><a xlink:title=" ">
<path fill="none" stroke="#63b8ff" d="M456.26,-54.98C471.13,-46.69 493.98,-33.94 511.42,-24.22"/>
<polygon fill="#63b8ff" stroke="#63b8ff" points="513.43,-27.1 520.46,-19.17 510.02,-20.99 513.43,-27.1"/>
</a>
</g>
</g>
</g>
</svg>
