<?xml version="1.0" encoding="UTF-8" standalone="no"?>
<!DOCTYPE svg PUBLIC "-//W3C//DTD SVG 1.1//EN"
 "http://www.w3.org/Graphics/SVG/1.1/DTD/svg11.dtd">
<!-- Generated by graphviz version 2.43.0 (0)
 -->
<!-- Title: Graphical Class Hierarchy Pages: 1 -->
<svg width="441pt" height="27pt"
 viewBox="0.00 0.00 441.00 27.00" xmlns="http://www.w3.org/2000/svg" xmlns:xlink="http://www.w3.org/1999/xlink">
<g id="graph0" class="graph" transform="scale(1 1) rotate(0) translate(4 23)">
<title>Graphical Class Hierarchy</title>
<!-- Node0 -->
<g id="Node000000" class="node">
<title>Node0</title>
<g id="a_Node000000"><a xlink:href="classstl__ext_1_1BinaryTree.html" target="_top" xlink:title=" ">
<polygon fill="white" stroke="#666666" points="136,-19 0,-19 0,0 136,0 136,-19"/>
<text text-anchor="middle" x="68" y="-7" font-family="Helvetica,sans-Serif" font-size="10.00">stl_ext::BinaryTree&lt; T &gt;</text>
</a>
</g>
</g>
<!-- Node1 -->
<g id="Node000001" class="node">
<title>Node1</title>
<g id="a_Node000001"><a xlink:href="classstl__ext_1_1BST.html" target="_top" xlink:title=" ">
<polygon fill="white" stroke="#666666" points="275,-19 172,-19 172,0 275,0 275,-19"/>
<text text-anchor="middle" x="223.5" y="-7" font-family="Helvetica,sans-Serif" font-size="10.00">stl_ext::BST&lt; T &gt;</text>
</a>
</g>
</g>
<!-- Node0&#45;&gt;Node1 -->
<g id="edge1_Node000000_Node000001" class="edge">
<title>Node0&#45;&gt;Node1</title>
<g id="a_edge1_Node000000_Node000001"><a xlink:title=" ">
<path fill="none" stroke="#63b8ff" d="M146.43,-9.5C155.06,-9.5 163.68,-9.5 171.84,-9.5"/>
<polygon fill="#63b8ff" stroke="#63b8ff" points="146.33,-6 136.33,-9.5 146.33,-13 146.33,-6"/>
</a>
</g>
</g>
<!-- Node2 -->
<g id="Node000002" class="node">
<title>Node2</title>
<g id="a_Node000002"><a xlink:href="classstl__ext_1_1AVLTree.html" target="_top" xlink:title=" ">
<polygon fill="white" stroke="#666666" points="433,-19 311,-19 311,0 433,0 433,-19"/>
<text text-anchor="middle" x="372" y="-7" font-family="Helvetica,sans-Serif" font-size="10.00">stl_ext::AVLTree&lt; T &gt;</text>
</a>
</g>
</g>
<!-- Node1&#45;&gt;Node2 -->
<g id="edge2_Node000001_Node000002" class="edge">
<title>Node1&#45;&gt;Node2</title>
<g id="a_edge2_Node000001_Node000002"><a xlink:title=" ">
<path fill="none" stroke="#63b8ff" d="M285.46,-9.5C293.89,-9.5 302.53,-9.5 310.94,-9.5"/>
<polygon fill="#63b8ff" stroke="#63b8ff" points="285.33,-6 275.33,-9.5 285.33,-13 285.33,-6"/>
</a>
</g>
</g>
</g>
</svg>
