<?xml version="1.0" encoding="UTF-8" standalone="no"?>
<!DOCTYPE svg PUBLIC "-//W3C//DTD SVG 1.1//EN"
 "http://www.w3.org/Graphics/SVG/1.1/DTD/svg11.dtd">
<!-- Generated by graphviz version 2.43.0 (0)
 -->
<!-- Title: benchmarks/benchmark_main.cpp Pages: 1 -->
<svg width="1442pt" height="148pt"
 viewBox="0.00 0.00 1441.50 148.00" xmlns="http://www.w3.org/2000/svg" xmlns:xlink="http://www.w3.org/1999/xlink">
<g id="graph0" class="graph" transform="scale(1 1) rotate(0) translate(4 144)">
<title>benchmarks/benchmark_main.cpp</title>
<!-- Node1 -->
<g id="Node000001" class="node">
<title>Node1</title>
<g id="a_Node000001"><a xlink:title=" ">
<polygon fill="#999999" stroke="#666666" points="741,-140 607,-140 607,-110 741,-110 741,-140"/>
<text text-anchor="start" x="615" y="-128" font-family="Helvetica,sans-Serif" font-size="10.00">benchmarks/benchmark</text>
<text text-anchor="middle" x="674" y="-117" font-family="Helvetica,sans-Serif" font-size="10.00">_main.cpp</text>
</a>
</g>
</g>
<!-- Node2 -->
<g id="Node000002" class="node">
<title>Node2</title>
<g id="a_Node000002"><a xlink:href="cppx_8h.html" target="_top" xlink:title=" ">
<polygon fill="white" stroke="#666666" points="631,-74 535,-74 535,-55 631,-55 631,-74"/>
<text text-anchor="middle" x="583" y="-62" font-family="Helvetica,sans-Serif" font-size="10.00">../include/cppx.h</text>
</a>
</g>
</g>
<!-- Node1&#45;&gt;Node2 -->
<g id="edge1_Node000001_Node000002" class="edge">
<title>Node1&#45;&gt;Node2</title>
<g id="a_edge1_Node000001_Node000002"><a xlink:title=" ">
<path fill="none" stroke="#63b8ff" d="M651.97,-109.84C637.73,-100.68 619.27,-88.82 605.03,-79.66"/>
<polygon fill="#63b8ff" stroke="#63b8ff" points="606.67,-76.56 596.37,-74.09 602.89,-82.45 606.67,-76.56"/>
</a>
</g>
</g>
<!-- Node3 -->
<g id="Node000003" class="node">
<title>Node3</title>
<g id="a_Node000003"><a xlink:title=" ">
<polygon fill="#e0e0e0" stroke="#999999" points="64,-19 0,-19 0,0 64,0 64,-19"/>
<text text-anchor="middle" x="32" y="-7" font-family="Helvetica,sans-Serif" font-size="10.00">algorithm</text>
</a>
</g>
</g>
<!-- Node1&#45;&gt;Node3 -->
<g id="edge25_Node000001_Node000003" class="edge">
<title>Node1&#45;&gt;Node3</title>
<g id="a_edge25_Node000001_Node000003"><a xlink:title=" ">
<path fill="none" stroke="#63b8ff" d="M606.86,-120.43C519.84,-114.88 363.77,-101.8 233,-74 171.92,-61.02 102.96,-37.13 63.76,-22.64"/>
<polygon fill="#63b8ff" stroke="#63b8ff" points="64.82,-19.3 54.23,-19.08 62.37,-25.86 64.82,-19.3"/>
</a>
</g>
</g>
<!-- Node4 -->
<g id="Node000004" class="node">
<title>Node4</title>
<g id="a_Node000004"><a xlink:title=" ">
<polygon fill="#e0e0e0" stroke="#999999" points="135.5,-19 82.5,-19 82.5,0 135.5,0 135.5,-19"/>
<text text-anchor="middle" x="109" y="-7" font-family="Helvetica,sans-Serif" font-size="10.00">cstddef</text>
</a>
</g>
</g>
<!-- Node1&#45;&gt;Node4 -->
<g id="edge28_Node000001_Node000004" class="edge">
<title>Node1&#45;&gt;Node4</title>
<g id="a_edge28_Node000001_Node000004"><a xlink:title=" ">
<path fill="none" stroke="#63b8ff" d="M606.96,-118.8C531.77,-112.09 406.53,-98.3 301,-74 242.9,-60.62 177.39,-37.05 139.87,-22.69"/>
<polygon fill="#63b8ff" stroke="#63b8ff" points="141.1,-19.42 130.51,-19.08 138.58,-25.95 141.1,-19.42"/>
</a>
</g>
</g>
<!-- Node6 -->
<g id="Node000006" class="node">
<title>Node6</title>
<g id="a_Node000006"><a xlink:title=" ">
<polygon fill="#e0e0e0" stroke="#999999" points="208.5,-19 153.5,-19 153.5,0 208.5,0 208.5,-19"/>
<text text-anchor="middle" x="181" y="-7" font-family="Helvetica,sans-Serif" font-size="10.00">fstream</text>
</a>
</g>
</g>
<!-- Node1&#45;&gt;Node6 -->
<g id="edge29_Node000001_Node000006" class="edge">
<title>Node1&#45;&gt;Node6</title>
<g id="a_edge29_Node000001_Node000006"><a xlink:title=" ">
<path fill="none" stroke="#63b8ff" d="M606.87,-116.36C544.23,-108.45 448.46,-94.39 367,-74 311.18,-60.03 248.18,-36.91 211.69,-22.76"/>
<polygon fill="#63b8ff" stroke="#63b8ff" points="212.72,-19.4 202.13,-19.02 210.17,-25.92 212.72,-19.4"/>
</a>
</g>
</g>
<!-- Node7 -->
<g id="Node000007" class="node">
<title>Node7</title>
<g id="a_Node000007"><a xlink:title=" ">
<polygon fill="#e0e0e0" stroke="#999999" points="287,-19 227,-19 227,0 287,0 287,-19"/>
<text text-anchor="middle" x="257" y="-7" font-family="Helvetica,sans-Serif" font-size="10.00">iostream</text>
</a>
</g>
</g>
<!-- Node1&#45;&gt;Node7 -->
<g id="edge31_Node000001_Node000007" class="edge">
<title>Node1&#45;&gt;Node7</title>
<g id="a_edge31_Node000001_Node000007"><a xlink:title=" ">
<path fill="none" stroke="#63b8ff" d="M606.79,-113.13C557.18,-104.42 488.29,-90.89 429,-74 377.87,-59.44 320.25,-36.85 286.37,-22.9"/>
<polygon fill="#63b8ff" stroke="#63b8ff" points="287.63,-19.64 277.06,-19.04 284.95,-26.11 287.63,-19.64"/>
</a>
</g>
</g>
<!-- Node10 -->
<g id="Node000010" class="node">
<title>Node10</title>
<g id="a_Node000010"><a xlink:title=" ">
<polygon fill="#e0e0e0" stroke="#999999" points="361,-19 305,-19 305,0 361,0 361,-19"/>
<text text-anchor="middle" x="333" y="-7" font-family="Helvetica,sans-Serif" font-size="10.00">sstream</text>
</a>
</g>
</g>
<!-- Node1&#45;&gt;Node10 -->
<g id="edge35_Node000001_Node000010" class="edge">
<title>Node1&#45;&gt;Node10</title>
<g id="a_edge35_Node000001_Node000010"><a xlink:title=" ">
<path fill="none" stroke="#63b8ff" d="M611.74,-109.96C574.32,-100.94 525.98,-88.27 484,-74 439.97,-59.03 390.58,-37.28 360.64,-23.51"/>
<polygon fill="#63b8ff" stroke="#63b8ff" points="361.82,-20.2 351.27,-19.17 358.88,-26.55 361.82,-20.2"/>
</a>
</g>
</g>
<!-- Node13 -->
<g id="Node000013" class="node">
<title>Node13</title>
<g id="a_Node000013"><a xlink:title=" ">
<polygon fill="#e0e0e0" stroke="#999999" points="426.5,-19 379.5,-19 379.5,0 426.5,0 426.5,-19"/>
<text text-anchor="middle" x="403" y="-7" font-family="Helvetica,sans-Serif" font-size="10.00">vector</text>
</a>
</g>
</g>
<!-- Node1&#45;&gt;Node13 -->
<g id="edge38_Node000001_Node000013" class="edge">
<title>Node1&#45;&gt;Node13</title>
<g id="a_edge38_Node000001_Node000013"><a xlink:title=" ">
<path fill="none" stroke="#63b8ff" d="M626.33,-109.91C596.99,-100.74 558.83,-87.93 526,-74 490.45,-58.92 451.08,-37.76 426.68,-24.09"/>
<polygon fill="#63b8ff" stroke="#63b8ff" points="428.23,-20.94 417.8,-19.07 424.78,-27.03 428.23,-20.94"/>
</a>
</g>
</g>
<!-- Node20 -->
<g id="Node000020" class="node">
<title>Node20</title>
<g id="a_Node000020"><a xlink:title=" ">
<polygon fill="#e0e0e0" stroke="#999999" points="699,-74 649,-74 649,-55 699,-55 699,-74"/>
<text text-anchor="middle" x="674" y="-62" font-family="Helvetica,sans-Serif" font-size="10.00">chrono</text>
</a>
</g>
</g>
<!-- Node1&#45;&gt;Node20 -->
<g id="edge26_Node000001_Node000020" class="edge">
<title>Node1&#45;&gt;Node20</title>
<g id="a_edge26_Node000001_Node000020"><a xlink:title=" ">
<path fill="none" stroke="#63b8ff" d="M674,-109.84C674,-102.21 674,-92.7 674,-84.45"/>
<polygon fill="#63b8ff" stroke="#63b8ff" points="677.5,-84.27 674,-74.27 670.5,-84.27 677.5,-84.27"/>
</a>
</g>
</g>
<!-- Node21 -->
<g id="Node000021" class="node">
<title>Node21</title>
<g id="a_Node000021"><a xlink:title=" ">
<polygon fill="#e0e0e0" stroke="#999999" points="764.5,-74 717.5,-74 717.5,-55 764.5,-55 764.5,-74"/>
<text text-anchor="middle" x="741" y="-62" font-family="Helvetica,sans-Serif" font-size="10.00">cmath</text>
</a>
</g>
</g>
<!-- Node1&#45;&gt;Node21 -->
<g id="edge27_Node000001_Node000021" class="edge">
<title>Node1&#45;&gt;Node21</title>
<g id="a_edge27_Node000001_Node000021"><a xlink:title=" ">
<path fill="none" stroke="#63b8ff" d="M690.22,-109.84C700.24,-101.09 713.11,-89.85 723.38,-80.88"/>
<polygon fill="#63b8ff" stroke="#63b8ff" points="725.73,-83.48 730.96,-74.27 721.13,-78.21 725.73,-83.48"/>
</a>
</g>
</g>
<!-- Node22 -->
<g id="Node000022" class="node">
<title>Node22</title>
<g id="a_Node000022"><a xlink:title=" ">
<polygon fill="#e0e0e0" stroke="#999999" points="839,-74 783,-74 783,-55 839,-55 839,-74"/>
<text text-anchor="middle" x="811" y="-62" font-family="Helvetica,sans-Serif" font-size="10.00">iomanip</text>
</a>
</g>
</g>
<!-- Node1&#45;&gt;Node22 -->
<g id="edge30_Node000001_Node000022" class="edge">
<title>Node1&#45;&gt;Node22</title>
<g id="a_edge30_Node000001_Node000022"><a xlink:title=" ">
<path fill="none" stroke="#63b8ff" d="M706.81,-109.99C729.47,-100.31 759.35,-87.56 781.3,-78.18"/>
<polygon fill="#63b8ff" stroke="#63b8ff" points="782.95,-81.29 790.77,-74.14 780.2,-74.85 782.95,-81.29"/>
</a>
</g>
</g>
<!-- Node23 -->
<g id="Node000023" class="node">
<title>Node23</title>
<g id="a_Node000023"><a xlink:title=" ">
<polygon fill="#e0e0e0" stroke="#999999" points="895,-74 857,-74 857,-55 895,-55 895,-74"/>
<text text-anchor="middle" x="876" y="-62" font-family="Helvetica,sans-Serif" font-size="10.00">map</text>
</a>
</g>
</g>
<!-- Node1&#45;&gt;Node23 -->
<g id="edge32_Node000001_Node000023" class="edge">
<title>Node1&#45;&gt;Node23</title>
<g id="a_edge32_Node000001_Node000023"><a xlink:title=" ">
<path fill="none" stroke="#63b8ff" d="M723.56,-109.97C756.16,-100.69 800.01,-88.13 846.98,-74.27"/>
<polygon fill="#63b8ff" stroke="#63b8ff" points="848.13,-77.58 856.73,-71.39 846.15,-70.87 848.13,-77.58"/>
</a>
</g>
</g>
<!-- Node24 -->
<g id="Node000024" class="node">
<title>Node24</title>
<g id="a_Node000024"><a xlink:title=" ">
<polygon fill="#e0e0e0" stroke="#999999" points="967,-74 913,-74 913,-55 967,-55 967,-74"/>
<text text-anchor="middle" x="940" y="-62" font-family="Helvetica,sans-Serif" font-size="10.00">random</text>
</a>
</g>
</g>
<!-- Node1&#45;&gt;Node24 -->
<g id="edge33_Node000001_Node000024" class="edge">
<title>Node1&#45;&gt;Node24</title>
<g id="a_edge33_Node000001_Node000024"><a xlink:title=" ">
<path fill="none" stroke="#63b8ff" d="M740,-109.98C783.59,-100.64 842.23,-87.94 902.76,-74.25"/>
<polygon fill="#63b8ff" stroke="#63b8ff" points="903.91,-77.58 912.89,-71.96 902.36,-70.75 903.91,-77.58"/>
</a>
</g>
</g>
<!-- Node25 -->
<g id="Node000025" class="node">
<title>Node25</title>
<g id="a_Node000025"><a xlink:title=" ">
<polygon fill="#e0e0e0" stroke="#999999" points="1017,-74 985,-74 985,-55 1017,-55 1017,-74"/>
<text text-anchor="middle" x="1001" y="-62" font-family="Helvetica,sans-Serif" font-size="10.00">set</text>
</a>
</g>
</g>
<!-- Node1&#45;&gt;Node25 -->
<g id="edge34_Node000001_Node000025" class="edge">
<title>Node1&#45;&gt;Node25</title>
<g id="a_edge34_Node000001_Node000025"><a xlink:title=" ">
<path fill="none" stroke="#63b8ff" d="M741.22,-116.08C800.56,-108.36 889.47,-95.02 975.09,-73.86"/>
<polygon fill="#63b8ff" stroke="#63b8ff" points="976.13,-77.21 984.98,-71.38 974.43,-70.42 976.13,-77.21"/>
</a>
</g>
</g>
<!-- Node26 -->
<g id="Node000026" class="node">
<title>Node26</title>
<g id="a_Node000026"><a xlink:title=" ">
<polygon fill="#e0e0e0" stroke="#999999" points="1079,-74 1035,-74 1035,-55 1079,-55 1079,-74"/>
<text text-anchor="middle" x="1057" y="-62" font-family="Helvetica,sans-Serif" font-size="10.00">string</text>
</a>
</g>
</g>
<!-- Node1&#45;&gt;Node26 -->
<g id="edge36_Node000001_Node000026" class="edge">
<title>Node1&#45;&gt;Node26</title>
<g id="a_edge36_Node000001_Node000026"><a xlink:title=" ">
<path fill="none" stroke="#63b8ff" d="M741.26,-117.01C810.2,-109.27 920.62,-95.27 1024.68,-74.04"/>
<polygon fill="#63b8ff" stroke="#63b8ff" points="1025.65,-77.42 1034.73,-71.97 1024.23,-70.56 1025.65,-77.42"/>
</a>
</g>
</g>
<!-- Node27 -->
<g id="Node000027" class="node">
<title>Node27</title>
<g id="a_Node000027"><a xlink:title=" ">
<polygon fill="#e0e0e0" stroke="#999999" points="1183,-74 1097,-74 1097,-55 1183,-55 1183,-74"/>
<text text-anchor="middle" x="1140" y="-62" font-family="Helvetica,sans-Serif" font-size="10.00">unordered_set</text>
</a>
</g>
</g>
<!-- Node1&#45;&gt;Node27 -->
<g id="edge37_Node000001_Node000027" class="edge">
<title>Node1&#45;&gt;Node27</title>
<g id="a_edge37_Node000001_Node000027"><a xlink:title=" ">
<path fill="none" stroke="#63b8ff" d="M741.16,-116.76C821.06,-107.96 958.76,-92.16 1086.9,-74.11"/>
<polygon fill="#63b8ff" stroke="#63b8ff" points="1087.48,-77.56 1096.89,-72.69 1086.5,-70.63 1087.48,-77.56"/>
</a>
</g>
</g>
<!-- Node2&#45;&gt;Node3 -->
<g id="edge2_Node000002_Node000003" class="edge">
<title>Node2&#45;&gt;Node3</title>
<g id="a_edge2_Node000002_Node000003"><a xlink:title=" ">
<path fill="none" stroke="#63b8ff" d="M534.97,-61.19C445.98,-56.51 249.31,-44.25 74.08,-18.99"/>
<polygon fill="#63b8ff" stroke="#63b8ff" points="74.57,-15.52 64.17,-17.54 73.56,-22.45 74.57,-15.52"/>
</a>
</g>
</g>
<!-- Node2&#45;&gt;Node4 -->
<g id="edge3_Node000002_Node000004" class="edge">
<title>Node2&#45;&gt;Node4</title>
<g id="a_edge3_Node000002_Node000004"><a xlink:title=" ">
<path fill="none" stroke="#63b8ff" d="M534.96,-60.79C455.73,-55.86 292.55,-43.71 145.77,-19.09"/>
<polygon fill="#63b8ff" stroke="#63b8ff" points="146.12,-15.6 135.67,-17.38 144.95,-22.51 146.12,-15.6"/>
</a>
</g>
</g>
<!-- Node5 -->
<g id="Node000005" class="node">
<title>Node5</title>
<g id="a_Node000005"><a xlink:title=" ">
<polygon fill="#e0e0e0" stroke="#999999" points="918,-19 868,-19 868,0 918,0 918,-19"/>
<text text-anchor="middle" x="893" y="-7" font-family="Helvetica,sans-Serif" font-size="10.00">cstdint</text>
</a>
</g>
</g>
<!-- Node2&#45;&gt;Node5 -->
<g id="edge4_Node000002_Node000005" class="edge">
<title>Node2&#45;&gt;Node5</title>
<g id="a_edge4_Node000002_Node000005"><a xlink:title=" ">
<path fill="none" stroke="#63b8ff" d="M631.06,-56.26C694.07,-46.68 802.26,-29.93 857.76,-19.08"/>
<polygon fill="#63b8ff" stroke="#63b8ff" points="858.69,-22.46 867.8,-17.05 857.31,-15.59 858.69,-22.46"/>
</a>
</g>
</g>
<!-- Node2&#45;&gt;Node6 -->
<g id="edge5_Node000002_Node000006" class="edge">
<title>Node2&#45;&gt;Node6</title>
<g id="a_edge5_Node000002_Node000006"><a xlink:title=" ">
<path fill="none" stroke="#63b8ff" d="M534.93,-59.25C466.82,-52.88 338.15,-39.54 218.85,-18.97"/>
<polygon fill="#63b8ff" stroke="#63b8ff" points="219.27,-15.49 208.82,-17.22 218.07,-22.39 219.27,-15.49"/>
</a>
</g>
</g>
<!-- Node2&#45;&gt;Node7 -->
<g id="edge6_Node000002_Node000007" class="edge">
<title>Node2&#45;&gt;Node7</title>
<g id="a_edge6_Node000002_Node000007"><a xlink:title=" ">
<path fill="none" stroke="#63b8ff" d="M534.86,-56.95C479.79,-49.25 386.68,-35.62 297.24,-19.14"/>
<polygon fill="#63b8ff" stroke="#63b8ff" points="297.67,-15.66 287.2,-17.27 296.39,-22.54 297.67,-15.66"/>
</a>
</g>
</g>
<!-- Node8 -->
<g id="Node000008" class="node">
<title>Node8</title>
<g id="a_Node000008"><a xlink:title=" ">
<polygon fill="#e0e0e0" stroke="#999999" points="994,-19 936,-19 936,0 994,0 994,-19"/>
<text text-anchor="middle" x="965" y="-7" font-family="Helvetica,sans-Serif" font-size="10.00">memory</text>
</a>
</g>
</g>
<!-- Node2&#45;&gt;Node8 -->
<g id="edge7_Node000002_Node000008" class="edge">
<title>Node2&#45;&gt;Node8</title>
<g id="a_edge7_Node000002_Node000008"><a xlink:title=" ">
<path fill="none" stroke="#63b8ff" d="M631.19,-56.23C634.17,-55.81 637.13,-55.39 640,-55 764.13,-37.96 798.61,-40.89 925.49,-19.12"/>
<polygon fill="#63b8ff" stroke="#63b8ff" points="926.34,-22.52 935.6,-17.37 925.15,-15.63 926.34,-22.52"/>
</a>
</g>
</g>
<!-- Node9 -->
<g id="Node000009" class="node">
<title>Node9</title>
<g id="a_Node000009"><a xlink:title=" ">
<polygon fill="#e0e0e0" stroke="#999999" points="1059.5,-19 1012.5,-19 1012.5,0 1059.5,0 1059.5,-19"/>
<text text-anchor="middle" x="1036" y="-7" font-family="Helvetica,sans-Serif" font-size="10.00">queue</text>
</a>
</g>
</g>
<!-- Node2&#45;&gt;Node9 -->
<g id="edge8_Node000002_Node000009" class="edge">
<title>Node2&#45;&gt;Node9</title>
<g id="a_edge8_Node000002_Node000009"><a xlink:title=" ">
<path fill="none" stroke="#63b8ff" d="M631.18,-56.15C634.16,-55.74 637.12,-55.36 640,-55 797.59,-35.45 841.57,-46.81 1002.07,-18.87"/>
<polygon fill="#63b8ff" stroke="#63b8ff" points="1003.06,-22.25 1012.3,-17.07 1001.85,-15.36 1003.06,-22.25"/>
</a>
</g>
</g>
<!-- Node2&#45;&gt;Node10 -->
<g id="edge9_Node000002_Node000010" class="edge">
<title>Node2&#45;&gt;Node10</title>
<g id="a_edge9_Node000002_Node000010"><a xlink:title=" ">
<path fill="none" stroke="#63b8ff" d="M541.53,-54.96C498.77,-46.12 430.17,-31.83 371,-19 370.9,-18.98 370.8,-18.96 370.7,-18.94"/>
<polygon fill="#63b8ff" stroke="#63b8ff" points="371.73,-15.58 361.21,-16.85 370.23,-22.42 371.73,-15.58"/>
</a>
</g>
</g>
<!-- Node11 -->
<g id="Node000011" class="node">
<title>Node11</title>
<g id="a_Node000011"><a xlink:title=" ">
<polygon fill="#e0e0e0" stroke="#999999" points="1120.5,-19 1077.5,-19 1077.5,0 1120.5,0 1120.5,-19"/>
<text text-anchor="middle" x="1099" y="-7" font-family="Helvetica,sans-Serif" font-size="10.00">stack</text>
</a>
</g>
</g>
<!-- Node2&#45;&gt;Node11 -->
<g id="edge10_Node000002_Node000011" class="edge">
<title>Node2&#45;&gt;Node11</title>
<g id="a_edge10_Node000002_Node000011"><a xlink:title=" ">
<path fill="none" stroke="#63b8ff" d="M631.17,-56.09C634.16,-55.7 637.12,-55.34 640,-55 826.81,-33.26 878.98,-52.55 1067.53,-18.93"/>
<polygon fill="#63b8ff" stroke="#63b8ff" points="1068.27,-22.36 1077.49,-17.13 1067.02,-15.47 1068.27,-22.36"/>
</a>
</g>
</g>
<!-- Node12 -->
<g id="Node000012" class="node">
<title>Node12</title>
<g id="a_Node000012"><a xlink:title=" ">
<polygon fill="#e0e0e0" stroke="#999999" points="1203.5,-19 1138.5,-19 1138.5,0 1203.5,0 1203.5,-19"/>
<text text-anchor="middle" x="1171" y="-7" font-family="Helvetica,sans-Serif" font-size="10.00">stdexcept</text>
</a>
</g>
</g>
<!-- Node2&#45;&gt;Node12 -->
<g id="edge11_Node000002_Node000012" class="edge">
<title>Node2&#45;&gt;Node12</title>
<g id="a_edge11_Node000002_Node000012"><a xlink:title=" ">
<path fill="none" stroke="#63b8ff" d="M631.17,-56.06C634.15,-55.68 637.12,-55.32 640,-55 853.74,-31.24 911.98,-48.68 1128.31,-19.06"/>
<polygon fill="#63b8ff" stroke="#63b8ff" points="1128.97,-22.5 1138.39,-17.66 1128.01,-15.57 1128.97,-22.5"/>
</a>
</g>
</g>
<!-- Node2&#45;&gt;Node13 -->
<g id="edge12_Node000002_Node000013" class="edge">
<title>Node2&#45;&gt;Node13</title>
<g id="a_edge12_Node000002_Node000013"><a xlink:title=" ">
<path fill="none" stroke="#63b8ff" d="M554.08,-54.98C522.02,-45.54 470.37,-30.34 436.56,-20.38"/>
<polygon fill="#63b8ff" stroke="#63b8ff" points="437.26,-16.94 426.68,-17.47 435.28,-23.65 437.26,-16.94"/>
</a>
</g>
</g>
<!-- Node14 -->
<g id="Node000014" class="node">
<title>Node14</title>
<g id="a_Node000014"><a xlink:href="avl_8tpp.html" target="_top" xlink:title=" ">
<polygon fill="white" stroke="#666666" points="1298.5,-19 1221.5,-19 1221.5,0 1298.5,0 1298.5,-19"/>
<text text-anchor="middle" x="1260" y="-7" font-family="Helvetica,sans-Serif" font-size="10.00">../src/avl.tpp</text>
</a>
</g>
</g>
<!-- Node2&#45;&gt;Node14 -->
<g id="edge13_Node000002_Node000014" class="edge">
<title>Node2&#45;&gt;Node14</title>
<g id="a_edge13_Node000002_Node000014"><a xlink:title=" ">
<path fill="none" stroke="#63b8ff" d="M631.37,-54.96C884.82,-28.18 950.82,-49.74 1204,-19 1206.45,-18.7 1208.96,-18.36 1211.51,-17.99"/>
<polygon fill="#63b8ff" stroke="#63b8ff" points="1212.08,-21.44 1221.41,-16.42 1210.99,-14.52 1212.08,-21.44"/>
</a>
</g>
</g>
<!-- Node15 -->
<g id="Node000015" class="node">
<title>Node15</title>
<g id="a_Node000015"><a xlink:href="binary__tree_8tpp.html" target="_top" xlink:title=" ">
<polygon fill="white" stroke="#666666" points="1433.5,-19 1316.5,-19 1316.5,0 1433.5,0 1433.5,-19"/>
<text text-anchor="middle" x="1375" y="-7" font-family="Helvetica,sans-Serif" font-size="10.00">../src/binary_tree.tpp</text>
</a>
</g>
</g>
<!-- Node2&#45;&gt;Node15 -->
<g id="edge15_Node000002_Node000015" class="edge">
<title>Node2&#45;&gt;Node15</title>
<g id="a_edge15_Node000002_Node000015"><a xlink:title=" ">
<path fill="none" stroke="#63b8ff" d="M631.43,-54.96C926.88,-25.06 1003.03,-45.71 1299,-19 1301.36,-18.79 1303.77,-18.55 1306.21,-18.31"/>
<polygon fill="#63b8ff" stroke="#63b8ff" points="1306.78,-21.77 1316.34,-17.21 1306.03,-14.81 1306.78,-21.77"/>
</a>
</g>
</g>
<!-- Node16 -->
<g id="Node000016" class="node">
<title>Node16</title>
<g id="a_Node000016"><a xlink:href="bst_8tpp.html" target="_top" xlink:title=" ">
<polygon fill="white" stroke="#666666" points="521.5,-19 444.5,-19 444.5,0 521.5,0 521.5,-19"/>
<text text-anchor="middle" x="483" y="-7" font-family="Helvetica,sans-Serif" font-size="10.00">../src/bst.tpp</text>
</a>
</g>
</g>
<!-- Node2&#45;&gt;Node16 -->
<g id="edge17_Node000002_Node000016" class="edge">
<title>Node2&#45;&gt;Node16</title>
<g id="a_edge17_Node000002_Node000016"><a xlink:title=" ">
<path fill="none" stroke="#63b8ff" d="M561.82,-54.98C544.34,-46.69 519.99,-33.94 502.88,-24.22"/>
<polygon fill="#63b8ff" stroke="#63b8ff" points="504.61,-21.17 494.21,-19.17 501.09,-27.22 504.61,-21.17"/>
</a>
</g>
</g>
<!-- Node17 -->
<g id="Node000017" class="node">
<title>Node17</title>
<g id="a_Node000017"><a xlink:href="node_8tpp.html" target="_top" xlink:title=" ">
<polygon fill="white" stroke="#666666" points="626,-19 540,-19 540,0 626,0 626,-19"/>
<text text-anchor="middle" x="583" y="-7" font-family="Helvetica,sans-Serif" font-size="10.00">../src/node.tpp</text>
</a>
</g>
</g>
<!-- Node2&#45;&gt;Node17 -->
<g id="edge19_Node000002_Node000017" class="edge">
<title>Node2&#45;&gt;Node17</title>
<g id="a_edge19_Node000002_Node000017"><a xlink:title=" ">
<path fill="none" stroke="#63b8ff" d="M577.83,-54.75C576.34,-47.8 575.9,-37.85 576.52,-29.13"/>
<polygon fill="#63b8ff" stroke="#63b8ff" points="580.01,-29.47 577.87,-19.09 573.07,-28.53 580.01,-29.47"/>
</a>
</g>
</g>
<!-- Node18 -->
<g id="Node000018" class="node">
<title>Node18</title>
<g id="a_Node000018"><a xlink:href="node__pool_8tpp.html" target="_top" xlink:title=" ">
<polygon fill="white" stroke="#666666" points="756,-19 644,-19 644,0 756,0 756,-19"/>
<text text-anchor="middle" x="700" y="-7" font-family="Helvetica,sans-Serif" font-size="10.00">../src/node_pool.tpp</text>
</a>
</g>
</g>
<!-- Node2&#45;&gt;Node18 -->
<g id="edge21_Node000002_Node000018" class="edge">
<title>Node2&#45;&gt;Node18</title>
<g id="a_edge21_Node000002_Node000018"><a xlink:title=" ">
<path fill="none" stroke="#63b8ff" d="M596.68,-54.98C613.78,-46.38 643.09,-32.99 666.23,-23.15"/>
<polygon fill="#63b8ff" stroke="#63b8ff" points="667.84,-26.27 675.71,-19.17 665.14,-19.81 667.84,-26.27"/>
</a>
</g>
</g>
<!-- Node19 -->
<g id="Node000019" class="node">
<title>Node19</title>
<g id="a_Node000019"><a xlink:href="rbt_8tpp.html" target="_top" xlink:title=" ">
<polygon fill="white" stroke="#666666" points="849.5,-19 774.5,-19 774.5,0 849.5,0 849.5,-19"/>
<text text-anchor="middle" x="812" y="-7" font-family="Helvetica,sans-Serif" font-size="10.00">../src/rbt.tpp</text>
</a>
</g>
</g>
<!-- Node2&#45;&gt;Node19 -->
<g id="edge23_Node000002_Node000019" class="edge">
<title>Node2&#45;&gt;Node19</title>
<g id="a_edge23_Node000002_Node000019"><a xlink:title=" ">
<path fill="none" stroke="#63b8ff" d="M614.68,-54.98C653.61,-45.49 719.74,-30.16 764.68,-20.21"/>
<polygon fill="#63b8ff" stroke="#63b8ff" points="765.48,-23.62 774.49,-18.05 763.97,-16.78 765.48,-23.62"/>
</a>
</g>
</g>
<!-- Node14&#45;&gt;Node2 -->
<g id="edge14_Node000014_Node000002" class="edge">
<title>Node14&#45;&gt;Node2</title>
<g id="a_edge14_Node000014_Node000002"><a xlink:title=" ">
<path fill="none" stroke="#63b8ff" d="M1221.63,-19.05C968.63,-49.74 902.63,-28.17 649,-55 646.48,-55.27 643.89,-55.56 641.28,-55.88"/>
<polygon fill="#63b8ff" stroke="#63b8ff" points="640.55,-52.45 631.09,-57.21 641.45,-59.39 640.55,-52.45"/>
</a>
</g>
</g>
<!-- Node15&#45;&gt;Node2 -->
<g id="edge16_Node000015_Node000002" class="edge">
<title>Node15&#45;&gt;Node2</title>
<g id="a_edge16_Node000015_Node000002"><a xlink:title=" ">
<path fill="none" stroke="#63b8ff" d="M1316.57,-19.04C1020.81,-45.71 944.66,-25.06 649,-55 646.47,-55.26 643.89,-55.54 641.27,-55.86"/>
<polygon fill="#63b8ff" stroke="#63b8ff" points="640.56,-52.42 631.08,-57.16 641.45,-59.36 640.56,-52.42"/>
</a>
</g>
</g>
<!-- Node16&#45;&gt;Node2 -->
<g id="edge18_Node000016_Node000002" class="edge">
<title>Node16&#45;&gt;Node2</title>
<g id="a_edge18_Node000016_Node000002"><a xlink:title=" ">
<path fill="none" stroke="#63b8ff" d="M504.51,-19.17C521.91,-27.44 545.97,-40.04 562.96,-49.7"/>
<polygon fill="#63b8ff" stroke="#63b8ff" points="561.64,-52.98 572.05,-54.98 565.17,-46.93 561.64,-52.98"/>
</a>
</g>
</g>
<!-- Node17&#45;&gt;Node2 -->
<g id="edge20_Node000017_Node000002" class="edge">
<title>Node17&#45;&gt;Node2</title>
<g id="a_edge20_Node000017_Node000002"><a xlink:title=" ">
<path fill="none" stroke="#63b8ff" d="M588.13,-19.09C589.64,-25.99 590.09,-35.93 589.49,-44.66"/>
<polygon fill="#63b8ff" stroke="#63b8ff" points="586,-44.38 588.17,-54.75 592.94,-45.29 586,-44.38"/>
</a>
</g>
</g>
<!-- Node18&#45;&gt;Node2 -->
<g id="edge22_Node000018_Node000002" class="edge">
<title>Node18&#45;&gt;Node2</title>
<g id="a_edge22_Node000018_Node000002"><a xlink:title=" ">
<path fill="none" stroke="#63b8ff" d="M686.01,-19.17C668.77,-27.83 639.42,-41.23 616.36,-51.03"/>
<polygon fill="#63b8ff" stroke="#63b8ff" points="614.78,-47.89 606.91,-54.98 617.49,-54.35 614.78,-47.89"/>
</a>
</g>
</g>
<!-- Node19&#45;&gt;Node2 -->
<g id="edge24_Node000019_Node000002" class="edge">
<title>Node19&#45;&gt;Node2</title>
<g id="a_edge24_Node000019_Node000002"><a xlink:title=" ">
<path fill="none" stroke="#63b8ff" d="M780.05,-19.08C742.34,-28.28 679.36,-42.88 634.71,-52.82"/>
<polygon fill="#63b8ff" stroke="#63b8ff" points="633.91,-49.41 624.91,-54.98 635.43,-56.24 633.91,-49.41"/>
</a>
</g>
</g>
</g>
</svg>
