<?xml version="1.0" encoding="UTF-8" standalone="no"?>
<!DOCTYPE svg PUBLIC "-//W3C//DTD SVG 1.1//EN"
 "http://www.w3.org/Graphics/SVG/1.1/DTD/svg11.dtd">
<!-- Generated by graphviz version 2.43.0 (0)
 -->
<!-- Title: stl_ext::BST&lt; T &gt; Pages: 1 -->
<svg width="282pt" height="737pt"
 viewBox="0.00 0.00 281.50 737.00" xmlns="http://www.w3.org/2000/svg" xmlns:xlink="http://www.w3.org/1999/xlink">
<g id="graph0" class="graph" transform="scale(1 1) rotate(0) translate(4 733)">
<title>stl_ext::BST&lt; T &gt;</title>
<!-- Node1 -->
<g id="Node000001" class="node">
<title>Node1</title>
<g id="a_Node000001"><a xlink:title=" ">
<polygon fill="#999999" stroke="transparent" points="185.5,-344 76.5,-344 76.5,-205 185.5,-205 185.5,-344"/>
<text text-anchor="start" x="88" y="-331.5" font-family="Helvetica,sans-Serif" font-size="10.00">stl_ext::BST&lt; T &gt;</text>
<text text-anchor="start" x="129.5" y="-316.5" font-family="Helvetica,sans-Serif" font-size="10.00"> </text>
<text text-anchor="start" x="81" y="-301.5" font-family="Helvetica,sans-Serif" font-size="10.00">+</text>
<text text-anchor="start" x="94" y="-301.5" font-family="Helvetica,sans-Serif" font-size="10.00">insert()</text>
<text text-anchor="start" x="81" y="-286.5" font-family="Helvetica,sans-Serif" font-size="10.00">+</text>
<text text-anchor="start" x="94" y="-286.5" font-family="Helvetica,sans-Serif" font-size="10.00">contains()</text>
<text text-anchor="start" x="81" y="-271.5" font-family="Helvetica,sans-Serif" font-size="10.00">+</text>
<text text-anchor="start" x="94" y="-271.5" font-family="Helvetica,sans-Serif" font-size="10.00">remove()</text>
<text text-anchor="start" x="81" y="-256.5" font-family="Helvetica,sans-Serif" font-size="10.00">+</text>
<text text-anchor="start" x="94" y="-256.5" font-family="Helvetica,sans-Serif" font-size="10.00">get_min()</text>
<text text-anchor="start" x="81" y="-241.5" font-family="Helvetica,sans-Serif" font-size="10.00">+</text>
<text text-anchor="start" x="94" y="-241.5" font-family="Helvetica,sans-Serif" font-size="10.00">get_max()</text>
<text text-anchor="start" x="81" y="-226.5" font-family="Helvetica,sans-Serif" font-size="10.00">+</text>
<text text-anchor="start" x="94" y="-226.5" font-family="Helvetica,sans-Serif" font-size="10.00">get_successor()</text>
<text text-anchor="start" x="81" y="-211.5" font-family="Helvetica,sans-Serif" font-size="10.00">+</text>
<text text-anchor="start" x="94" y="-211.5" font-family="Helvetica,sans-Serif" font-size="10.00">get_predecessor()</text>
<polygon fill="#666666" stroke="#666666" points="77,-326.5 77,-326.5 186,-326.5 186,-326.5 77,-326.5"/>
<polygon fill="#666666" stroke="#666666" points="77,-311.5 77,-311.5 186,-311.5 186,-311.5 77,-311.5"/>
<polygon fill="none" stroke="#666666" points="76.5,-205 76.5,-344 185.5,-344 185.5,-205 76.5,-205"/>
</a>
</g>
</g>
<!-- Node3 -->
<g id="Node000003" class="node">
<title>Node3</title>
<g id="a_Node000003"><a xlink:href="classstl__ext_1_1AVLTree.html" target="_top" xlink:title=" ">
<polygon fill="white" stroke="transparent" points="116,-116.5 0,-116.5 0,-52.5 116,-52.5 116,-116.5"/>
<text text-anchor="start" x="5" y="-104.5" font-family="Helvetica,sans-Serif" font-size="10.00">stl_ext::AVLTree&lt; T &gt;</text>
<text text-anchor="start" x="56" y="-89.5" font-family="Helvetica,sans-Serif" font-size="10.00"> </text>
<text text-anchor="start" x="16" y="-74.5" font-family="Helvetica,sans-Serif" font-size="10.00">+</text>
<text text-anchor="start" x="41" y="-74.5" font-family="Helvetica,sans-Serif" font-size="10.00">insert()</text>
<text text-anchor="start" x="16" y="-59.5" font-family="Helvetica,sans-Serif" font-size="10.00">+</text>
<text text-anchor="start" x="41" y="-59.5" font-family="Helvetica,sans-Serif" font-size="10.00">remove()</text>
<polygon fill="#666666" stroke="#666666" points="0,-99.5 0,-99.5 116,-99.5 116,-99.5 0,-99.5"/>
<polygon fill="#666666" stroke="#666666" points="0,-84.5 0,-84.5 116,-84.5 116,-84.5 0,-84.5"/>
<polygon fill="none" stroke="#666666" points="0,-52.5 0,-116.5 116,-116.5 116,-52.5 0,-52.5"/>
</a>
</g>
</g>
<!-- Node1&#45;&gt;Node3 -->
<g id="edge2_Node000001_Node000003" class="edge">
<title>Node1&#45;&gt;Node3</title>
<g id="a_edge2_Node000001_Node000003"><a xlink:title=" ">
<path fill="none" stroke="#63b8ff" d="M100.58,-195.16C89.87,-167.56 78.43,-138.11 70.11,-116.69"/>
<polygon fill="none" stroke="#63b8ff" points="97.45,-196.77 104.34,-204.83 103.98,-194.24 97.45,-196.77"/>
</a>
</g>
</g>
<!-- Node4 -->
<g id="Node000004" class="node">
<title>Node4</title>
<g id="a_Node000004"><a xlink:href="classstl__ext_1_1RBTree.html" target="_top" xlink:title=" ">
<polygon fill="white" stroke="transparent" points="273.5,-169 134.5,-169 134.5,0 273.5,0 273.5,-169"/>
<text text-anchor="start" x="153.5" y="-156.5" font-family="Helvetica,sans-Serif" font-size="10.00">stl_ext::RBTree&lt; T &gt;</text>
<text text-anchor="start" x="202.5" y="-141.5" font-family="Helvetica,sans-Serif" font-size="10.00"> </text>
<text text-anchor="start" x="139" y="-126.5" font-family="Helvetica,sans-Serif" font-size="10.00">+</text>
<text text-anchor="start" x="152" y="-126.5" font-family="Helvetica,sans-Serif" font-size="10.00">insert()</text>
<text text-anchor="start" x="139" y="-111.5" font-family="Helvetica,sans-Serif" font-size="10.00">+</text>
<text text-anchor="start" x="152" y="-111.5" font-family="Helvetica,sans-Serif" font-size="10.00">remove()</text>
<text text-anchor="start" x="139" y="-96.5" font-family="Helvetica,sans-Serif" font-size="10.00">+</text>
<text text-anchor="start" x="152" y="-96.5" font-family="Helvetica,sans-Serif" font-size="10.00">clear()</text>
<text text-anchor="start" x="139" y="-81.5" font-family="Helvetica,sans-Serif" font-size="10.00">+</text>
<text text-anchor="start" x="152" y="-81.5" font-family="Helvetica,sans-Serif" font-size="10.00">get_black_height()</text>
<text text-anchor="start" x="139" y="-66.5" font-family="Helvetica,sans-Serif" font-size="10.00">+</text>
<text text-anchor="start" x="152" y="-66.5" font-family="Helvetica,sans-Serif" font-size="10.00">validate_rb_properties()</text>
<text text-anchor="start" x="139" y="-51.5" font-family="Helvetica,sans-Serif" font-size="10.00">+</text>
<text text-anchor="start" x="152" y="-51.5" font-family="Helvetica,sans-Serif" font-size="10.00">to_sorted_vector()</text>
<text text-anchor="start" x="139" y="-36.5" font-family="Helvetica,sans-Serif" font-size="10.00">+</text>
<text text-anchor="start" x="152" y="-36.5" font-family="Helvetica,sans-Serif" font-size="10.00">is_red()</text>
<text text-anchor="start" x="139" y="-21.5" font-family="Helvetica,sans-Serif" font-size="10.00">+</text>
<text text-anchor="start" x="152" y="-21.5" font-family="Helvetica,sans-Serif" font-size="10.00">is_black()</text>
<text text-anchor="start" x="139" y="-6.5" font-family="Helvetica,sans-Serif" font-size="10.00">+</text>
<text text-anchor="start" x="152" y="-6.5" font-family="Helvetica,sans-Serif" font-size="10.00">get_color()</text>
<polygon fill="#666666" stroke="#666666" points="135,-151.5 135,-151.5 274,-151.5 274,-151.5 135,-151.5"/>
<polygon fill="#666666" stroke="#666666" points="135,-136.5 135,-136.5 274,-136.5 274,-136.5 135,-136.5"/>
<polygon fill="none" stroke="#666666" points="134.5,0 134.5,-169 273.5,-169 273.5,0 134.5,0"/>
</a>
</g>
</g>
<!-- Node1&#45;&gt;Node4 -->
<g id="edge3_Node000001_Node000004" class="edge">
<title>Node1&#45;&gt;Node4</title>
<g id="a_edge3_Node000001_Node000004"><a xlink:title=" ">
<path fill="none" stroke="#63b8ff" d="M161.31,-195.45C164.7,-186.72 168.16,-177.8 171.57,-169.01"/>
<polygon fill="none" stroke="#63b8ff" points="158.02,-194.24 157.66,-204.83 164.55,-196.77 158.02,-194.24"/>
</a>
</g>
</g>
<!-- Node2 -->
<g id="Node000002" class="node">
<title>Node2</title>
<g id="a_Node000002"><a xlink:href="classstl__ext_1_1BinaryTree.html" target="_top" xlink:title=" ">
<polygon fill="white" stroke="transparent" points="196,-729 66,-729 66,-380 196,-380 196,-729"/>
<text text-anchor="start" x="71" y="-716.5" font-family="Helvetica,sans-Serif" font-size="10.00">stl_ext::BinaryTree&lt; T &gt;</text>
<text text-anchor="start" x="74.5" y="-701.5" font-family="Helvetica,sans-Serif" font-size="10.00">#</text>
<text text-anchor="start" x="92" y="-701.5" font-family="Helvetica,sans-Serif" font-size="10.00">p_head</text>
<text text-anchor="start" x="74.5" y="-686.5" font-family="Helvetica,sans-Serif" font-size="10.00">#</text>
<text text-anchor="start" x="92" y="-686.5" font-family="Helvetica,sans-Serif" font-size="10.00">m_pool</text>
<text text-anchor="start" x="74.5" y="-671.5" font-family="Helvetica,sans-Serif" font-size="10.00">+</text>
<text text-anchor="start" x="92" y="-671.5" font-family="Helvetica,sans-Serif" font-size="10.00">BinaryTree()</text>
<text text-anchor="start" x="74.5" y="-656.5" font-family="Helvetica,sans-Serif" font-size="10.00">+</text>
<text text-anchor="start" x="92" y="-656.5" font-family="Helvetica,sans-Serif" font-size="10.00">BinaryTree()</text>
<text text-anchor="start" x="74.5" y="-641.5" font-family="Helvetica,sans-Serif" font-size="10.00">+</text>
<text text-anchor="start" x="92" y="-641.5" font-family="Helvetica,sans-Serif" font-size="10.00">operator=()</text>
<text text-anchor="start" x="74.5" y="-626.5" font-family="Helvetica,sans-Serif" font-size="10.00">+</text>
<text text-anchor="start" x="92" y="-626.5" font-family="Helvetica,sans-Serif" font-size="10.00">BinaryTree()</text>
<text text-anchor="start" x="74.5" y="-611.5" font-family="Helvetica,sans-Serif" font-size="10.00">+</text>
<text text-anchor="start" x="92" y="-611.5" font-family="Helvetica,sans-Serif" font-size="10.00">operator=()</text>
<text text-anchor="start" x="74.5" y="-596.5" font-family="Helvetica,sans-Serif" font-size="10.00">+</text>
<text text-anchor="start" x="92" y="-596.5" font-family="Helvetica,sans-Serif" font-size="10.00">~BinaryTree()</text>
<text text-anchor="start" x="74.5" y="-581.5" font-family="Helvetica,sans-Serif" font-size="10.00">+</text>
<text text-anchor="start" x="92" y="-581.5" font-family="Helvetica,sans-Serif" font-size="10.00">get_root()</text>
<text text-anchor="start" x="74.5" y="-566.5" font-family="Helvetica,sans-Serif" font-size="10.00">+</text>
<text text-anchor="start" x="92" y="-566.5" font-family="Helvetica,sans-Serif" font-size="10.00">set_root()</text>
<text text-anchor="start" x="74.5" y="-551.5" font-family="Helvetica,sans-Serif" font-size="10.00">+</text>
<text text-anchor="start" x="92" y="-551.5" font-family="Helvetica,sans-Serif" font-size="10.00">is_empty()</text>
<text text-anchor="start" x="74.5" y="-536.5" font-family="Helvetica,sans-Serif" font-size="10.00">+</text>
<text text-anchor="start" x="92" y="-536.5" font-family="Helvetica,sans-Serif" font-size="10.00">size()</text>
<text text-anchor="start" x="92" y="-521.5" font-family="Helvetica,sans-Serif" font-size="10.00">and 10 more...</text>
<text text-anchor="start" x="74.5" y="-506.5" font-family="Helvetica,sans-Serif" font-size="10.00">#</text>
<text text-anchor="start" x="92" y="-506.5" font-family="Helvetica,sans-Serif" font-size="10.00">preorder()</text>
<text text-anchor="start" x="74.5" y="-491.5" font-family="Helvetica,sans-Serif" font-size="10.00">#</text>
<text text-anchor="start" x="92" y="-491.5" font-family="Helvetica,sans-Serif" font-size="10.00">inorder()</text>
<text text-anchor="start" x="74.5" y="-476.5" font-family="Helvetica,sans-Serif" font-size="10.00">#</text>
<text text-anchor="start" x="92" y="-476.5" font-family="Helvetica,sans-Serif" font-size="10.00">postorder()</text>
<text text-anchor="start" x="74.5" y="-461.5" font-family="Helvetica,sans-Serif" font-size="10.00">#</text>
<text text-anchor="start" x="92" y="-461.5" font-family="Helvetica,sans-Serif" font-size="10.00">levelorder()</text>
<text text-anchor="start" x="74.5" y="-446.5" font-family="Helvetica,sans-Serif" font-size="10.00">#</text>
<text text-anchor="start" x="92" y="-446.5" font-family="Helvetica,sans-Serif" font-size="10.00">compute_size()</text>
<text text-anchor="start" x="74.5" y="-431.5" font-family="Helvetica,sans-Serif" font-size="10.00">#</text>
<text text-anchor="start" x="92" y="-431.5" font-family="Helvetica,sans-Serif" font-size="10.00">print_tree_helper()</text>
<text text-anchor="start" x="74.5" y="-416.5" font-family="Helvetica,sans-Serif" font-size="10.00">#</text>
<text text-anchor="start" x="92" y="-416.5" font-family="Helvetica,sans-Serif" font-size="10.00">dot_helper()</text>
<text text-anchor="start" x="74.5" y="-401.5" font-family="Helvetica,sans-Serif" font-size="10.00">#</text>
<text text-anchor="start" x="92" y="-401.5" font-family="Helvetica,sans-Serif" font-size="10.00">destroy_subtree()</text>
<text text-anchor="start" x="74.5" y="-386.5" font-family="Helvetica,sans-Serif" font-size="10.00">#</text>
<text text-anchor="start" x="92" y="-386.5" font-family="Helvetica,sans-Serif" font-size="10.00">clone_subtree()</text>
<polygon fill="#666666" stroke="#666666" points="66,-711.5 66,-711.5 196,-711.5 196,-711.5 66,-711.5"/>
<polygon fill="#666666" stroke="#666666" points="66,-681.5 66,-681.5 90,-681.5 90,-681.5 66,-681.5"/>
<polygon fill="#666666" stroke="#666666" points="90,-681.5 90,-681.5 196,-681.5 196,-681.5 90,-681.5"/>
<polygon fill="none" stroke="#666666" points="66,-380 66,-729 196,-729 196,-380 66,-380"/>
</a>
</g>
</g>
<!-- Node2&#45;&gt;Node1 -->
<g id="edge1_Node000001_Node000002" class="edge">
<title>Node2&#45;&gt;Node1</title>
<g id="a_edge1_Node000001_Node000002"><a xlink:title=" ">
<path fill="none" stroke="#63b8ff" d="M131,-369.73C131,-360.9 131,-352.34 131,-344.21"/>
<polygon fill="none" stroke="#63b8ff" points="127.5,-369.81 131,-379.81 134.5,-369.81 127.5,-369.81"/>
</a>
</g>
</g>
</g>
</svg>
