<?xml version="1.0" encoding="UTF-8" standalone="no"?>
<!DOCTYPE svg PUBLIC "-//W3C//DTD SVG 1.1//EN"
 "http://www.w3.org/Graphics/SVG/1.1/DTD/svg11.dtd">
<!-- Generated by graphviz version 2.43.0 (0)
 -->
<!-- Title: stl_ext::RBTree&lt; T &gt; Pages: 1 -->
<svg width="147pt" height="737pt"
 viewBox="0.00 0.00 147.00 737.00" xmlns="http://www.w3.org/2000/svg" xmlns:xlink="http://www.w3.org/1999/xlink">
<g id="graph0" class="graph" transform="scale(1 1) rotate(0) translate(4 733)">
<title>stl_ext::RBTree&lt; T &gt;</title>
<!-- Node1 -->
<g id="Node000001" class="node">
<title>Node1</title>
<g id="a_Node000001"><a xlink:title=" ">
<polygon fill="#999999" stroke="transparent" points="139,-169 0,-169 0,0 139,0 139,-169"/>
<text text-anchor="start" x="19" y="-156.5" font-family="Helvetica,sans-Serif" font-size="10.00">stl_ext::RBTree&lt; T &gt;</text>
<text text-anchor="start" x="68" y="-141.5" font-family="Helvetica,sans-Serif" font-size="10.00"> </text>
<text text-anchor="start" x="4.5" y="-126.5" font-family="Helvetica,sans-Serif" font-size="10.00">+</text>
<text text-anchor="start" x="17.5" y="-126.5" font-family="Helvetica,sans-Serif" font-size="10.00">insert()</text>
<text text-anchor="start" x="4.5" y="-111.5" font-family="Helvetica,sans-Serif" font-size="10.00">+</text>
<text text-anchor="start" x="17.5" y="-111.5" font-family="Helvetica,sans-Serif" font-size="10.00">remove()</text>
<text text-anchor="start" x="4.5" y="-96.5" font-family="Helvetica,sans-Serif" font-size="10.00">+</text>
<text text-anchor="start" x="17.5" y="-96.5" font-family="Helvetica,sans-Serif" font-size="10.00">clear()</text>
<text text-anchor="start" x="4.5" y="-81.5" font-family="Helvetica,sans-Serif" font-size="10.00">+</text>
<text text-anchor="start" x="17.5" y="-81.5" font-family="Helvetica,sans-Serif" font-size="10.00">get_black_height()</text>
<text text-anchor="start" x="4.5" y="-66.5" font-family="Helvetica,sans-Serif" font-size="10.00">+</text>
<text text-anchor="start" x="17.5" y="-66.5" font-family="Helvetica,sans-Serif" font-size="10.00">validate_rb_properties()</text>
<text text-anchor="start" x="4.5" y="-51.5" font-family="Helvetica,sans-Serif" font-size="10.00">+</text>
<text text-anchor="start" x="17.5" y="-51.5" font-family="Helvetica,sans-Serif" font-size="10.00">to_sorted_vector()</text>
<text text-anchor="start" x="4.5" y="-36.5" font-family="Helvetica,sans-Serif" font-size="10.00">+</text>
<text text-anchor="start" x="17.5" y="-36.5" font-family="Helvetica,sans-Serif" font-size="10.00">is_red()</text>
<text text-anchor="start" x="4.5" y="-21.5" font-family="Helvetica,sans-Serif" font-size="10.00">+</text>
<text text-anchor="start" x="17.5" y="-21.5" font-family="Helvetica,sans-Serif" font-size="10.00">is_black()</text>
<text text-anchor="start" x="4.5" y="-6.5" font-family="Helvetica,sans-Serif" font-size="10.00">+</text>
<text text-anchor="start" x="17.5" y="-6.5" font-family="Helvetica,sans-Serif" font-size="10.00">get_color()</text>
<polygon fill="#666666" stroke="#666666" points="0.5,-151.5 0.5,-151.5 139.5,-151.5 139.5,-151.5 0.5,-151.5"/>
<polygon fill="#666666" stroke="#666666" points="0.5,-136.5 0.5,-136.5 139.5,-136.5 139.5,-136.5 0.5,-136.5"/>
<polygon fill="none" stroke="#666666" points="0,0 0,-169 139,-169 139,0 0,0"/>
</a>
</g>
</g>
<!-- Node2 -->
<g id="Node000002" class="node">
<title>Node2</title>
<g id="a_Node000002"><a xlink:href="classstl__ext_1_1BST.html" target="_top" xlink:title=" ">
<polygon fill="white" stroke="transparent" points="124,-344 15,-344 15,-205 124,-205 124,-344"/>
<text text-anchor="start" x="26.5" y="-331.5" font-family="Helvetica,sans-Serif" font-size="10.00">stl_ext::BST&lt; T &gt;</text>
<text text-anchor="start" x="68" y="-316.5" font-family="Helvetica,sans-Serif" font-size="10.00"> </text>
<text text-anchor="start" x="19.5" y="-301.5" font-family="Helvetica,sans-Serif" font-size="10.00">+</text>
<text text-anchor="start" x="32.5" y="-301.5" font-family="Helvetica,sans-Serif" font-size="10.00">insert()</text>
<text text-anchor="start" x="19.5" y="-286.5" font-family="Helvetica,sans-Serif" font-size="10.00">+</text>
<text text-anchor="start" x="32.5" y="-286.5" font-family="Helvetica,sans-Serif" font-size="10.00">contains()</text>
<text text-anchor="start" x="19.5" y="-271.5" font-family="Helvetica,sans-Serif" font-size="10.00">+</text>
<text text-anchor="start" x="32.5" y="-271.5" font-family="Helvetica,sans-Serif" font-size="10.00">remove()</text>
<text text-anchor="start" x="19.5" y="-256.5" font-family="Helvetica,sans-Serif" font-size="10.00">+</text>
<text text-anchor="start" x="32.5" y="-256.5" font-family="Helvetica,sans-Serif" font-size="10.00">get_min()</text>
<text text-anchor="start" x="19.5" y="-241.5" font-family="Helvetica,sans-Serif" font-size="10.00">+</text>
<text text-anchor="start" x="32.5" y="-241.5" font-family="Helvetica,sans-Serif" font-size="10.00">get_max()</text>
<text text-anchor="start" x="19.5" y="-226.5" font-family="Helvetica,sans-Serif" font-size="10.00">+</text>
<text text-anchor="start" x="32.5" y="-226.5" font-family="Helvetica,sans-Serif" font-size="10.00">get_successor()</text>
<text text-anchor="start" x="19.5" y="-211.5" font-family="Helvetica,sans-Serif" font-size="10.00">+</text>
<text text-anchor="start" x="32.5" y="-211.5" font-family="Helvetica,sans-Serif" font-size="10.00">get_predecessor()</text>
<polygon fill="#666666" stroke="#666666" points="15.5,-326.5 15.5,-326.5 124.5,-326.5 124.5,-326.5 15.5,-326.5"/>
<polygon fill="#666666" stroke="#666666" points="15.5,-311.5 15.5,-311.5 124.5,-311.5 124.5,-311.5 15.5,-311.5"/>
<polygon fill="none" stroke="#666666" points="15,-205 15,-344 124,-344 124,-205 15,-205"/>
</a>
</g>
</g>
<!-- Node2&#45;&gt;Node1 -->
<g id="edge1_Node000001_Node000002" class="edge">
<title>Node2&#45;&gt;Node1</title>
<g id="a_edge1_Node000001_Node000002"><a xlink:title=" ">
<path fill="none" stroke="#63b8ff" d="M69.5,-194.61C69.5,-186.15 69.5,-177.52 69.5,-169.01"/>
<polygon fill="none" stroke="#63b8ff" points="66,-194.83 69.5,-204.83 73,-194.83 66,-194.83"/>
</a>
</g>
</g>
<!-- Node3 -->
<g id="Node000003" class="node">
<title>Node3</title>
<g id="a_Node000003"><a xlink:href="classstl__ext_1_1BinaryTree.html" target="_top" xlink:title=" ">
<polygon fill="white" stroke="transparent" points="134.5,-729 4.5,-729 4.5,-380 134.5,-380 134.5,-729"/>
<text text-anchor="start" x="9.5" y="-716.5" font-family="Helvetica,sans-Serif" font-size="10.00">stl_ext::BinaryTree&lt; T &gt;</text>
<text text-anchor="start" x="13" y="-701.5" font-family="Helvetica,sans-Serif" font-size="10.00">#</text>
<text text-anchor="start" x="30.5" y="-701.5" font-family="Helvetica,sans-Serif" font-size="10.00">p_head</text>
<text text-anchor="start" x="13" y="-686.5" font-family="Helvetica,sans-Serif" font-size="10.00">#</text>
<text text-anchor="start" x="30.5" y="-686.5" font-family="Helvetica,sans-Serif" font-size="10.00">m_pool</text>
<text text-anchor="start" x="13" y="-671.5" font-family="Helvetica,sans-Serif" font-size="10.00">+</text>
<text text-anchor="start" x="30.5" y="-671.5" font-family="Helvetica,sans-Serif" font-size="10.00">BinaryTree()</text>
<text text-anchor="start" x="13" y="-656.5" font-family="Helvetica,sans-Serif" font-size="10.00">+</text>
<text text-anchor="start" x="30.5" y="-656.5" font-family="Helvetica,sans-Serif" font-size="10.00">BinaryTree()</text>
<text text-anchor="start" x="13" y="-641.5" font-family="Helvetica,sans-Serif" font-size="10.00">+</text>
<text text-anchor="start" x="30.5" y="-641.5" font-family="Helvetica,sans-Serif" font-size="10.00">operator=()</text>
<text text-anchor="start" x="13" y="-626.5" font-family="Helvetica,sans-Serif" font-size="10.00">+</text>
<text text-anchor="start" x="30.5" y="-626.5" font-family="Helvetica,sans-Serif" font-size="10.00">BinaryTree()</text>
<text text-anchor="start" x="13" y="-611.5" font-family="Helvetica,sans-Serif" font-size="10.00">+</text>
<text text-anchor="start" x="30.5" y="-611.5" font-family="Helvetica,sans-Serif" font-size="10.00">operator=()</text>
<text text-anchor="start" x="13" y="-596.5" font-family="Helvetica,sans-Serif" font-size="10.00">+</text>
<text text-anchor="start" x="30.5" y="-596.5" font-family="Helvetica,sans-Serif" font-size="10.00">~BinaryTree()</text>
<text text-anchor="start" x="13" y="-581.5" font-family="Helvetica,sans-Serif" font-size="10.00">+</text>
<text text-anchor="start" x="30.5" y="-581.5" font-family="Helvetica,sans-Serif" font-size="10.00">get_root()</text>
<text text-anchor="start" x="13" y="-566.5" font-family="Helvetica,sans-Serif" font-size="10.00">+</text>
<text text-anchor="start" x="30.5" y="-566.5" font-family="Helvetica,sans-Serif" font-size="10.00">set_root()</text>
<text text-anchor="start" x="13" y="-551.5" font-family="Helvetica,sans-Serif" font-size="10.00">+</text>
<text text-anchor="start" x="30.5" y="-551.5" font-family="Helvetica,sans-Serif" font-size="10.00">is_empty()</text>
<text text-anchor="start" x="13" y="-536.5" font-family="Helvetica,sans-Serif" font-size="10.00">+</text>
<text text-anchor="start" x="30.5" y="-536.5" font-family="Helvetica,sans-Serif" font-size="10.00">size()</text>
<text text-anchor="start" x="30.5" y="-521.5" font-family="Helvetica,sans-Serif" font-size="10.00">and 10 more...</text>
<text text-anchor="start" x="13" y="-506.5" font-family="Helvetica,sans-Serif" font-size="10.00">#</text>
<text text-anchor="start" x="30.5" y="-506.5" font-family="Helvetica,sans-Serif" font-size="10.00">preorder()</text>
<text text-anchor="start" x="13" y="-491.5" font-family="Helvetica,sans-Serif" font-size="10.00">#</text>
<text text-anchor="start" x="30.5" y="-491.5" font-family="Helvetica,sans-Serif" font-size="10.00">inorder()</text>
<text text-anchor="start" x="13" y="-476.5" font-family="Helvetica,sans-Serif" font-size="10.00">#</text>
<text text-anchor="start" x="30.5" y="-476.5" font-family="Helvetica,sans-Serif" font-size="10.00">postorder()</text>
<text text-anchor="start" x="13" y="-461.5" font-family="Helvetica,sans-Serif" font-size="10.00">#</text>
<text text-anchor="start" x="30.5" y="-461.5" font-family="Helvetica,sans-Serif" font-size="10.00">levelorder()</text>
<text text-anchor="start" x="13" y="-446.5" font-family="Helvetica,sans-Serif" font-size="10.00">#</text>
<text text-anchor="start" x="30.5" y="-446.5" font-family="Helvetica,sans-Serif" font-size="10.00">compute_size()</text>
<text text-anchor="start" x="13" y="-431.5" font-family="Helvetica,sans-Serif" font-size="10.00">#</text>
<text text-anchor="start" x="30.5" y="-431.5" font-family="Helvetica,sans-Serif" font-size="10.00">print_tree_helper()</text>
<text text-anchor="start" x="13" y="-416.5" font-family="Helvetica,sans-Serif" font-size="10.00">#</text>
<text text-anchor="start" x="30.5" y="-416.5" font-family="Helvetica,sans-Serif" font-size="10.00">dot_helper()</text>
<text text-anchor="start" x="13" y="-401.5" font-family="Helvetica,sans-Serif" font-size="10.00">#</text>
<text text-anchor="start" x="30.5" y="-401.5" font-family="Helvetica,sans-Serif" font-size="10.00">destroy_subtree()</text>
<text text-anchor="start" x="13" y="-386.5" font-family="Helvetica,sans-Serif" font-size="10.00">#</text>
<text text-anchor="start" x="30.5" y="-386.5" font-family="Helvetica,sans-Serif" font-size="10.00">clone_subtree()</text>
<polygon fill="#666666" stroke="#666666" points="4.5,-711.5 4.5,-711.5 134.5,-711.5 134.5,-711.5 4.5,-711.5"/>
<polygon fill="#666666" stroke="#666666" points="4.5,-681.5 4.5,-681.5 28.5,-681.5 28.5,-681.5 4.5,-681.5"/>
<polygon fill="#666666" stroke="#666666" points="28.5,-681.5 28.5,-681.5 134.5,-681.5 134.5,-681.5 28.5,-681.5"/>
<polygon fill="none" stroke="#666666" points="4.5,-380 4.5,-729 134.5,-729 134.5,-380 4.5,-380"/>
</a>
</g>
</g>
<!-- Node3&#45;&gt;Node2 -->
<g id="edge2_Node000002_Node000003" class="edge">
<title>Node3&#45;&gt;Node2</title>
<g id="a_edge2_Node000002_Node000003"><a xlink:title=" ">
<path fill="none" stroke="#63b8ff" d="M69.5,-369.73C69.5,-360.9 69.5,-352.34 69.5,-344.21"/>
<polygon fill="none" stroke="#63b8ff" points="66,-369.81 69.5,-379.81 73,-369.81 66,-369.81"/>
</a>
</g>
</g>
</g>
</svg>
