<?xml version="1.0" encoding="UTF-8" standalone="no"?>
<!DOCTYPE svg PUBLIC "-//W3C//DTD SVG 1.1//EN"
 "http://www.w3.org/Graphics/SVG/1.1/DTD/svg11.dtd">
<!-- Generated by graphviz version 2.43.0 (0)
 -->
<!-- Title: stl_ext::AVLTree&lt; T &gt; Pages: 1 -->
<svg width="138pt" height="632pt"
 viewBox="0.00 0.00 138.00 632.00" xmlns="http://www.w3.org/2000/svg" xmlns:xlink="http://www.w3.org/1999/xlink">
<g id="graph0" class="graph" transform="scale(1 1) rotate(0) translate(4 628)">
<title>stl_ext::AVLTree&lt; T &gt;</title>
<!-- Node1 -->
<g id="Node000001" class="node">
<title>Node1</title>
<g id="a_Node000001"><a xlink:title=" ">
<polygon fill="#999999" stroke="transparent" points="123,-64 7,-64 7,0 123,0 123,-64"/>
<text text-anchor="start" x="12" y="-52" font-family="Helvetica,sans-Serif" font-size="10.00">stl_ext::AVLTree&lt; T &gt;</text>
<text text-anchor="start" x="63" y="-37" font-family="Helvetica,sans-Serif" font-size="10.00"> </text>
<text text-anchor="start" x="23" y="-22" font-family="Helvetica,sans-Serif" font-size="10.00">+</text>
<text text-anchor="start" x="48" y="-22" font-family="Helvetica,sans-Serif" font-size="10.00">insert()</text>
<text text-anchor="start" x="23" y="-7" font-family="Helvetica,sans-Serif" font-size="10.00">+</text>
<text text-anchor="start" x="48" y="-7" font-family="Helvetica,sans-Serif" font-size="10.00">remove()</text>
<polygon fill="#666666" stroke="#666666" points="7,-47 7,-47 123,-47 123,-47 7,-47"/>
<polygon fill="#666666" stroke="#666666" points="7,-32 7,-32 123,-32 123,-32 7,-32"/>
<polygon fill="none" stroke="#666666" points="7,0 7,-64 123,-64 123,0 7,0"/>
</a>
</g>
</g>
<!-- Node2 -->
<g id="Node000002" class="node">
<title>Node2</title>
<g id="a_Node000002"><a xlink:href="classstl__ext_1_1BST.html" target="_top" xlink:title=" ">
<polygon fill="white" stroke="transparent" points="119.5,-239 10.5,-239 10.5,-100 119.5,-100 119.5,-239"/>
<text text-anchor="start" x="22" y="-226.5" font-family="Helvetica,sans-Serif" font-size="10.00">stl_ext::BST&lt; T &gt;</text>
<text text-anchor="start" x="63.5" y="-211.5" font-family="Helvetica,sans-Serif" font-size="10.00"> </text>
<text text-anchor="start" x="15" y="-196.5" font-family="Helvetica,sans-Serif" font-size="10.00">+</text>
<text text-anchor="start" x="28" y="-196.5" font-family="Helvetica,sans-Serif" font-size="10.00">insert()</text>
<text text-anchor="start" x="15" y="-181.5" font-family="Helvetica,sans-Serif" font-size="10.00">+</text>
<text text-anchor="start" x="28" y="-181.5" font-family="Helvetica,sans-Serif" font-size="10.00">contains()</text>
<text text-anchor="start" x="15" y="-166.5" font-family="Helvetica,sans-Serif" font-size="10.00">+</text>
<text text-anchor="start" x="28" y="-166.5" font-family="Helvetica,sans-Serif" font-size="10.00">remove()</text>
<text text-anchor="start" x="15" y="-151.5" font-family="Helvetica,sans-Serif" font-size="10.00">+</text>
<text text-anchor="start" x="28" y="-151.5" font-family="Helvetica,sans-Serif" font-size="10.00">get_min()</text>
<text text-anchor="start" x="15" y="-136.5" font-family="Helvetica,sans-Serif" font-size="10.00">+</text>
<text text-anchor="start" x="28" y="-136.5" font-family="Helvetica,sans-Serif" font-size="10.00">get_max()</text>
<text text-anchor="start" x="15" y="-121.5" font-family="Helvetica,sans-Serif" font-size="10.00">+</text>
<text text-anchor="start" x="28" y="-121.5" font-family="Helvetica,sans-Serif" font-size="10.00">get_successor()</text>
<text text-anchor="start" x="15" y="-106.5" font-family="Helvetica,sans-Serif" font-size="10.00">+</text>
<text text-anchor="start" x="28" y="-106.5" font-family="Helvetica,sans-Serif" font-size="10.00">get_predecessor()</text>
<polygon fill="#666666" stroke="#666666" points="11,-221.5 11,-221.5 120,-221.5 120,-221.5 11,-221.5"/>
<polygon fill="#666666" stroke="#666666" points="11,-206.5 11,-206.5 120,-206.5 120,-206.5 11,-206.5"/>
<polygon fill="none" stroke="#666666" points="10.5,-100 10.5,-239 119.5,-239 119.5,-100 10.5,-100"/>
</a>
</g>
</g>
<!-- Node2&#45;&gt;Node1 -->
<g id="edge1_Node000001_Node000002" class="edge">
<title>Node2&#45;&gt;Node1</title>
<g id="a_edge1_Node000001_Node000002"><a xlink:title=" ">
<path fill="none" stroke="#63b8ff" d="M65,-89.95C65,-80.8 65,-71.92 65,-64"/>
<polygon fill="none" stroke="#63b8ff" points="61.5,-89.96 65,-99.96 68.5,-89.96 61.5,-89.96"/>
</a>
</g>
</g>
<!-- Node3 -->
<g id="Node000003" class="node">
<title>Node3</title>
<g id="a_Node000003"><a xlink:href="classstl__ext_1_1BinaryTree.html" target="_top" xlink:title=" ">
<polygon fill="white" stroke="transparent" points="130,-624 0,-624 0,-275 130,-275 130,-624"/>
<text text-anchor="start" x="5" y="-611.5" font-family="Helvetica,sans-Serif" font-size="10.00">stl_ext::BinaryTree&lt; T &gt;</text>
<text text-anchor="start" x="8.5" y="-596.5" font-family="Helvetica,sans-Serif" font-size="10.00">#</text>
<text text-anchor="start" x="26" y="-596.5" font-family="Helvetica,sans-Serif" font-size="10.00">p_head</text>
<text text-anchor="start" x="8.5" y="-581.5" font-family="Helvetica,sans-Serif" font-size="10.00">#</text>
<text text-anchor="start" x="26" y="-581.5" font-family="Helvetica,sans-Serif" font-size="10.00">m_pool</text>
<text text-anchor="start" x="8.5" y="-566.5" font-family="Helvetica,sans-Serif" font-size="10.00">+</text>
<text text-anchor="start" x="26" y="-566.5" font-family="Helvetica,sans-Serif" font-size="10.00">BinaryTree()</text>
<text text-anchor="start" x="8.5" y="-551.5" font-family="Helvetica,sans-Serif" font-size="10.00">+</text>
<text text-anchor="start" x="26" y="-551.5" font-family="Helvetica,sans-Serif" font-size="10.00">BinaryTree()</text>
<text text-anchor="start" x="8.5" y="-536.5" font-family="Helvetica,sans-Serif" font-size="10.00">+</text>
<text text-anchor="start" x="26" y="-536.5" font-family="Helvetica,sans-Serif" font-size="10.00">operator=()</text>
<text text-anchor="start" x="8.5" y="-521.5" font-family="Helvetica,sans-Serif" font-size="10.00">+</text>
<text text-anchor="start" x="26" y="-521.5" font-family="Helvetica,sans-Serif" font-size="10.00">BinaryTree()</text>
<text text-anchor="start" x="8.5" y="-506.5" font-family="Helvetica,sans-Serif" font-size="10.00">+</text>
<text text-anchor="start" x="26" y="-506.5" font-family="Helvetica,sans-Serif" font-size="10.00">operator=()</text>
<text text-anchor="start" x="8.5" y="-491.5" font-family="Helvetica,sans-Serif" font-size="10.00">+</text>
<text text-anchor="start" x="26" y="-491.5" font-family="Helvetica,sans-Serif" font-size="10.00">~BinaryTree()</text>
<text text-anchor="start" x="8.5" y="-476.5" font-family="Helvetica,sans-Serif" font-size="10.00">+</text>
<text text-anchor="start" x="26" y="-476.5" font-family="Helvetica,sans-Serif" font-size="10.00">get_root()</text>
<text text-anchor="start" x="8.5" y="-461.5" font-family="Helvetica,sans-Serif" font-size="10.00">+</text>
<text text-anchor="start" x="26" y="-461.5" font-family="Helvetica,sans-Serif" font-size="10.00">set_root()</text>
<text text-anchor="start" x="8.5" y="-446.5" font-family="Helvetica,sans-Serif" font-size="10.00">+</text>
<text text-anchor="start" x="26" y="-446.5" font-family="Helvetica,sans-Serif" font-size="10.00">is_empty()</text>
<text text-anchor="start" x="8.5" y="-431.5" font-family="Helvetica,sans-Serif" font-size="10.00">+</text>
<text text-anchor="start" x="26" y="-431.5" font-family="Helvetica,sans-Serif" font-size="10.00">size()</text>
<text text-anchor="start" x="26" y="-416.5" font-family="Helvetica,sans-Serif" font-size="10.00">and 10 more...</text>
<text text-anchor="start" x="8.5" y="-401.5" font-family="Helvetica,sans-Serif" font-size="10.00">#</text>
<text text-anchor="start" x="26" y="-401.5" font-family="Helvetica,sans-Serif" font-size="10.00">preorder()</text>
<text text-anchor="start" x="8.5" y="-386.5" font-family="Helvetica,sans-Serif" font-size="10.00">#</text>
<text text-anchor="start" x="26" y="-386.5" font-family="Helvetica,sans-Serif" font-size="10.00">inorder()</text>
<text text-anchor="start" x="8.5" y="-371.5" font-family="Helvetica,sans-Serif" font-size="10.00">#</text>
<text text-anchor="start" x="26" y="-371.5" font-family="Helvetica,sans-Serif" font-size="10.00">postorder()</text>
<text text-anchor="start" x="8.5" y="-356.5" font-family="Helvetica,sans-Serif" font-size="10.00">#</text>
<text text-anchor="start" x="26" y="-356.5" font-family="Helvetica,sans-Serif" font-size="10.00">levelorder()</text>
<text text-anchor="start" x="8.5" y="-341.5" font-family="Helvetica,sans-Serif" font-size="10.00">#</text>
<text text-anchor="start" x="26" y="-341.5" font-family="Helvetica,sans-Serif" font-size="10.00">compute_size()</text>
<text text-anchor="start" x="8.5" y="-326.5" font-family="Helvetica,sans-Serif" font-size="10.00">#</text>
<text text-anchor="start" x="26" y="-326.5" font-family="Helvetica,sans-Serif" font-size="10.00">print_tree_helper()</text>
<text text-anchor="start" x="8.5" y="-311.5" font-family="Helvetica,sans-Serif" font-size="10.00">#</text>
<text text-anchor="start" x="26" y="-311.5" font-family="Helvetica,sans-Serif" font-size="10.00">dot_helper()</text>
<text text-anchor="start" x="8.5" y="-296.5" font-family="Helvetica,sans-Serif" font-size="10.00">#</text>
<text text-anchor="start" x="26" y="-296.5" font-family="Helvetica,sans-Serif" font-size="10.00">destroy_subtree()</text>
<text text-anchor="start" x="8.5" y="-281.5" font-family="Helvetica,sans-Serif" font-size="10.00">#</text>
<text text-anchor="start" x="26" y="-281.5" font-family="Helvetica,sans-Serif" font-size="10.00">clone_subtree()</text>
<polygon fill="#666666" stroke="#666666" points="0,-606.5 0,-606.5 130,-606.5 130,-606.5 0,-606.5"/>
<polygon fill="#666666" stroke="#666666" points="0,-576.5 0,-576.5 24,-576.5 24,-576.5 0,-576.5"/>
<polygon fill="#666666" stroke="#666666" points="24,-576.5 24,-576.5 130,-576.5 130,-576.5 24,-576.5"/>
<polygon fill="none" stroke="#666666" points="0,-275 0,-624 130,-624 130,-275 0,-275"/>
</a>
</g>
</g>
<!-- Node3&#45;&gt;Node2 -->
<g id="edge2_Node000002_Node000003" class="edge">
<title>Node3&#45;&gt;Node2</title>
<g id="a_edge2_Node000002_Node000003"><a xlink:title=" ">
<path fill="none" stroke="#63b8ff" d="M65,-264.73C65,-255.9 65,-247.34 65,-239.21"/>
<polygon fill="none" stroke="#63b8ff" points="61.5,-264.81 65,-274.81 68.5,-264.81 61.5,-264.81"/>
</a>
</g>
</g>
</g>
</svg>
