<?xml version="1.0" encoding="UTF-8" standalone="no"?>
<!DOCTYPE svg PUBLIC "-//W3C//DTD SVG 1.1//EN"
 "http://www.w3.org/Graphics/SVG/1.1/DTD/svg11.dtd">
<!-- Generated by graphviz version 2.43.0 (0)
 -->
<!-- Title: include/cppx.h Pages: 1 -->
<svg width="1583pt" height="93pt"
 viewBox="0.00 0.00 1583.00 93.00" xmlns="http://www.w3.org/2000/svg" xmlns:xlink="http://www.w3.org/1999/xlink">
<g id="graph0" class="graph" transform="scale(1 1) rotate(0) translate(4 89)">
<title>include/cppx.h</title>
<!-- Node1 -->
<g id="Node000001" class="node">
<title>Node1</title>
<g id="a_Node000001"><a xlink:title=" ">
<polygon fill="#999999" stroke="#666666" points="655.5,-85 568.5,-85 568.5,-66 655.5,-66 655.5,-85"/>
<text text-anchor="middle" x="612" y="-73" font-family="Helvetica,sans-Serif" font-size="10.00">include/cppx.h</text>
</a>
</g>
</g>
<!-- Node2 -->
<g id="Node000002" class="node">
<title>Node2</title>
<g id="a_Node000002"><a xlink:title=" ">
<polygon fill="#e0e0e0" stroke="#999999" points="64,-24.5 0,-24.5 0,-5.5 64,-5.5 64,-24.5"/>
<text text-anchor="middle" x="32" y="-12.5" font-family="Helvetica,sans-Serif" font-size="10.00">algorithm</text>
</a>
</g>
</g>
<!-- Node1&#45;&gt;Node2 -->
<g id="edge1_Node000001_Node000002" class="edge">
<title>Node1&#45;&gt;Node2</title>
<g id="a_edge1_Node000001_Node000002"><a xlink:title=" ">
<path fill="none" stroke="#63b8ff" d="M568.16,-74.52C475.65,-73.77 254.07,-67.78 73,-30 69.93,-29.36 66.78,-28.56 63.65,-27.66"/>
<polygon fill="#63b8ff" stroke="#63b8ff" points="64.44,-24.24 53.85,-24.57 62.34,-30.92 64.44,-24.24"/>
</a>
</g>
</g>
<!-- Node3 -->
<g id="Node000003" class="node">
<title>Node3</title>
<g id="a_Node000003"><a xlink:title=" ">
<polygon fill="#e0e0e0" stroke="#999999" points="135.5,-24.5 82.5,-24.5 82.5,-5.5 135.5,-5.5 135.5,-24.5"/>
<text text-anchor="middle" x="109" y="-12.5" font-family="Helvetica,sans-Serif" font-size="10.00">cstddef</text>
</a>
</g>
</g>
<!-- Node1&#45;&gt;Node3 -->
<g id="edge2_Node000001_Node000003" class="edge">
<title>Node1&#45;&gt;Node3</title>
<g id="a_edge2_Node000001_Node000003"><a xlink:title=" ">
<path fill="none" stroke="#63b8ff" d="M568.21,-74.32C484.73,-73.12 297.54,-66.19 145,-30 142.63,-29.44 140.21,-28.75 137.8,-27.99"/>
<polygon fill="#63b8ff" stroke="#63b8ff" points="138.71,-24.6 128.12,-24.56 136.37,-31.2 138.71,-24.6"/>
</a>
</g>
</g>
<!-- Node4 -->
<g id="Node000004" class="node">
<title>Node4</title>
<g id="a_Node000004"><a xlink:title=" ">
<polygon fill="#e0e0e0" stroke="#999999" points="204,-24.5 154,-24.5 154,-5.5 204,-5.5 204,-24.5"/>
<text text-anchor="middle" x="179" y="-12.5" font-family="Helvetica,sans-Serif" font-size="10.00">cstdint</text>
</a>
</g>
</g>
<!-- Node1&#45;&gt;Node4 -->
<g id="edge3_Node000001_Node000004" class="edge">
<title>Node1&#45;&gt;Node4</title>
<g id="a_edge3_Node000001_Node000004"><a xlink:title=" ">
<path fill="none" stroke="#63b8ff" d="M568.48,-73.6C494.38,-71.21 339.43,-62.4 213,-30 210.84,-29.45 208.64,-28.78 206.44,-28.05"/>
<polygon fill="#63b8ff" stroke="#63b8ff" points="207.62,-24.76 197.03,-24.52 205.16,-31.31 207.62,-24.76"/>
</a>
</g>
</g>
<!-- Node5 -->
<g id="Node000005" class="node">
<title>Node5</title>
<g id="a_Node000005"><a xlink:title=" ">
<polygon fill="#e0e0e0" stroke="#999999" points="277.5,-24.5 222.5,-24.5 222.5,-5.5 277.5,-5.5 277.5,-24.5"/>
<text text-anchor="middle" x="250" y="-12.5" font-family="Helvetica,sans-Serif" font-size="10.00">fstream</text>
</a>
</g>
</g>
<!-- Node1&#45;&gt;Node5 -->
<g id="edge4_Node000001_Node000005" class="edge">
<title>Node1&#45;&gt;Node5</title>
<g id="a_edge4_Node000001_Node000005"><a xlink:title=" ">
<path fill="none" stroke="#63b8ff" d="M568.29,-71.66C505.33,-66.86 385.8,-55.11 287,-30 284.55,-29.38 282.05,-28.65 279.55,-27.85"/>
<polygon fill="#63b8ff" stroke="#63b8ff" points="280.69,-24.54 270.09,-24.54 278.38,-31.15 280.69,-24.54"/>
</a>
</g>
</g>
<!-- Node6 -->
<g id="Node000006" class="node">
<title>Node6</title>
<g id="a_Node000006"><a xlink:title=" ">
<polygon fill="#e0e0e0" stroke="#999999" points="356,-24.5 296,-24.5 296,-5.5 356,-5.5 356,-24.5"/>
<text text-anchor="middle" x="326" y="-12.5" font-family="Helvetica,sans-Serif" font-size="10.00">iostream</text>
</a>
</g>
</g>
<!-- Node1&#45;&gt;Node6 -->
<g id="edge5_Node000001_Node000006" class="edge">
<title>Node1&#45;&gt;Node6</title>
<g id="a_edge5_Node000001_Node000006"><a xlink:title=" ">
<path fill="none" stroke="#63b8ff" d="M568.24,-68.86C518.49,-61.94 435.08,-48.75 365,-30 362.57,-29.35 360.07,-28.61 357.57,-27.83"/>
<polygon fill="#63b8ff" stroke="#63b8ff" points="358.67,-24.51 348.07,-24.64 356.44,-31.14 358.67,-24.51"/>
</a>
</g>
</g>
<!-- Node7 -->
<g id="Node000007" class="node">
<title>Node7</title>
<g id="a_Node000007"><a xlink:title=" ">
<polygon fill="#e0e0e0" stroke="#999999" points="432,-24.5 374,-24.5 374,-5.5 432,-5.5 432,-24.5"/>
<text text-anchor="middle" x="403" y="-12.5" font-family="Helvetica,sans-Serif" font-size="10.00">memory</text>
</a>
</g>
</g>
<!-- Node1&#45;&gt;Node7 -->
<g id="edge6_Node000001_Node000007" class="edge">
<title>Node1&#45;&gt;Node7</title>
<g id="a_edge6_Node000001_Node000007"><a xlink:title=" ">
<path fill="none" stroke="#63b8ff" d="M575.01,-65.99C540.17,-57.71 486.66,-44.32 441,-30 438.87,-29.33 436.69,-28.62 434.5,-27.87"/>
<polygon fill="#63b8ff" stroke="#63b8ff" points="435.57,-24.54 424.98,-24.51 433.24,-31.14 435.57,-24.54"/>
</a>
</g>
</g>
<!-- Node8 -->
<g id="Node000008" class="node">
<title>Node8</title>
<g id="a_Node000008"><a xlink:title=" ">
<polygon fill="#e0e0e0" stroke="#999999" points="497.5,-24.5 450.5,-24.5 450.5,-5.5 497.5,-5.5 497.5,-24.5"/>
<text text-anchor="middle" x="474" y="-12.5" font-family="Helvetica,sans-Serif" font-size="10.00">queue</text>
</a>
</g>
</g>
<!-- Node1&#45;&gt;Node8 -->
<g id="edge7_Node000001_Node000008" class="edge">
<title>Node1&#45;&gt;Node8</title>
<g id="a_edge7_Node000001_Node000008"><a xlink:title=" ">
<path fill="none" stroke="#63b8ff" d="M591.93,-65.99C568.63,-56.12 529.99,-39.73 503.32,-28.43"/>
<polygon fill="#63b8ff" stroke="#63b8ff" points="504.66,-25.2 494.09,-24.52 501.93,-31.64 504.66,-25.2"/>
</a>
</g>
</g>
<!-- Node9 -->
<g id="Node000009" class="node">
<title>Node9</title>
<g id="a_Node000009"><a xlink:title=" ">
<polygon fill="#e0e0e0" stroke="#999999" points="572,-24.5 516,-24.5 516,-5.5 572,-5.5 572,-24.5"/>
<text text-anchor="middle" x="544" y="-12.5" font-family="Helvetica,sans-Serif" font-size="10.00">sstream</text>
</a>
</g>
</g>
<!-- Node1&#45;&gt;Node9 -->
<g id="edge8_Node000001_Node000009" class="edge">
<title>Node1&#45;&gt;Node9</title>
<g id="a_edge8_Node000001_Node000009"><a xlink:title=" ">
<path fill="none" stroke="#63b8ff" d="M601.97,-65.87C591.42,-56.8 574.61,-42.34 561.81,-31.32"/>
<polygon fill="#63b8ff" stroke="#63b8ff" points="563.94,-28.54 554.07,-24.67 559.37,-33.84 563.94,-28.54"/>
</a>
</g>
</g>
<!-- Node10 -->
<g id="Node000010" class="node">
<title>Node10</title>
<g id="a_Node000010"><a xlink:title=" ">
<polygon fill="#e0e0e0" stroke="#999999" points="633.5,-24.5 590.5,-24.5 590.5,-5.5 633.5,-5.5 633.5,-24.5"/>
<text text-anchor="middle" x="612" y="-12.5" font-family="Helvetica,sans-Serif" font-size="10.00">stack</text>
</a>
</g>
</g>
<!-- Node1&#45;&gt;Node10 -->
<g id="edge9_Node000001_Node000010" class="edge">
<title>Node1&#45;&gt;Node10</title>
<g id="a_edge9_Node000001_Node000010"><a xlink:title=" ">
<path fill="none" stroke="#63b8ff" d="M612,-65.87C612,-57.75 612,-45.31 612,-34.89"/>
<polygon fill="#63b8ff" stroke="#63b8ff" points="615.5,-34.67 612,-24.67 608.5,-34.67 615.5,-34.67"/>
</a>
</g>
</g>
<!-- Node11 -->
<g id="Node000011" class="node">
<title>Node11</title>
<g id="a_Node000011"><a xlink:title=" ">
<polygon fill="#e0e0e0" stroke="#999999" points="716.5,-24.5 651.5,-24.5 651.5,-5.5 716.5,-5.5 716.5,-24.5"/>
<text text-anchor="middle" x="684" y="-12.5" font-family="Helvetica,sans-Serif" font-size="10.00">stdexcept</text>
</a>
</g>
</g>
<!-- Node1&#45;&gt;Node11 -->
<g id="edge10_Node000001_Node000011" class="edge">
<title>Node1&#45;&gt;Node11</title>
<g id="a_edge10_Node000001_Node000011"><a xlink:title=" ">
<path fill="none" stroke="#63b8ff" d="M622.62,-65.87C633.9,-56.71 651.92,-42.06 665.53,-31.01"/>
<polygon fill="#63b8ff" stroke="#63b8ff" points="667.78,-33.69 673.33,-24.67 663.36,-28.26 667.78,-33.69"/>
</a>
</g>
</g>
<!-- Node12 -->
<g id="Node000012" class="node">
<title>Node12</title>
<g id="a_Node000012"><a xlink:title=" ">
<polygon fill="#e0e0e0" stroke="#999999" points="781.5,-24.5 734.5,-24.5 734.5,-5.5 781.5,-5.5 781.5,-24.5"/>
<text text-anchor="middle" x="758" y="-12.5" font-family="Helvetica,sans-Serif" font-size="10.00">vector</text>
</a>
</g>
</g>
<!-- Node1&#45;&gt;Node12 -->
<g id="edge11_Node000001_Node000012" class="edge">
<title>Node1&#45;&gt;Node12</title>
<g id="a_edge11_Node000001_Node000012"><a xlink:title=" ">
<path fill="none" stroke="#63b8ff" d="M634.82,-65.9C657.91,-57.13 694.59,-43 726,-30 727.17,-29.52 728.35,-29.02 729.55,-28.52"/>
<polygon fill="#63b8ff" stroke="#63b8ff" points="730.95,-31.72 738.76,-24.57 728.19,-25.29 730.95,-31.72"/>
</a>
</g>
</g>
<!-- Node13 -->
<g id="Node000013" class="node">
<title>Node13</title>
<g id="a_Node000013"><a xlink:title=" ">
<polygon fill="#e0e0e0" stroke="#999999" points="906.5,-24.5 799.5,-24.5 799.5,-5.5 906.5,-5.5 906.5,-24.5"/>
<text text-anchor="middle" x="853" y="-12.5" font-family="Helvetica,sans-Serif" font-size="10.00">cppx/detail/avl.tpp</text>
</a>
</g>
</g>
<!-- Node1&#45;&gt;Node13 -->
<g id="edge12_Node000001_Node000013" class="edge">
<title>Node1&#45;&gt;Node13</title>
<g id="a_edge12_Node000001_Node000013"><a xlink:title=" ">
<path fill="none" stroke="#63b8ff" d="M647.04,-65.99C689.61,-55.66 761.49,-38.21 808.09,-26.9"/>
<polygon fill="#63b8ff" stroke="#63b8ff" points="809.02,-30.28 817.91,-24.52 807.37,-23.47 809.02,-30.28"/>
</a>
</g>
</g>
<!-- Node14 -->
<g id="Node000014" class="node">
<title>Node14</title>
<g id="a_Node000014"><a xlink:title=" ">
<polygon fill="#e0e0e0" stroke="#999999" points="1029,-30 925,-30 925,0 1029,0 1029,-30"/>
<text text-anchor="start" x="933" y="-18" font-family="Helvetica,sans-Serif" font-size="10.00">cppx/detail/binary</text>
<text text-anchor="middle" x="977" y="-7" font-family="Helvetica,sans-Serif" font-size="10.00">_tree.tpp</text>
</a>
</g>
</g>
<!-- Node1&#45;&gt;Node14 -->
<g id="edge13_Node000001_Node000014" class="edge">
<title>Node1&#45;&gt;Node14</title>
<g id="a_edge13_Node000001_Node000014"><a xlink:title=" ">
<path fill="none" stroke="#63b8ff" d="M655.73,-69.22C712.99,-62.06 816.69,-48.24 914.73,-30.15"/>
<polygon fill="#63b8ff" stroke="#63b8ff" points="915.63,-33.54 924.81,-28.27 914.34,-26.66 915.63,-33.54"/>
</a>
</g>
</g>
<!-- Node15 -->
<g id="Node000015" class="node">
<title>Node15</title>
<g id="a_Node000015"><a xlink:title=" ">
<polygon fill="#e0e0e0" stroke="#999999" points="1154.5,-24.5 1047.5,-24.5 1047.5,-5.5 1154.5,-5.5 1154.5,-24.5"/>
<text text-anchor="middle" x="1101" y="-12.5" font-family="Helvetica,sans-Serif" font-size="10.00">cppx/detail/bst.tpp</text>
</a>
</g>
</g>
<!-- Node1&#45;&gt;Node15 -->
<g id="edge14_Node000001_Node000015" class="edge">
<title>Node1&#45;&gt;Node15</title>
<g id="a_edge14_Node000001_Node000015"><a xlink:title=" ">
<path fill="none" stroke="#63b8ff" d="M655.76,-71.59C733.2,-66.08 899.28,-52.58 1038,-30 1043.81,-29.05 1049.89,-27.91 1055.88,-26.68"/>
<polygon fill="#63b8ff" stroke="#63b8ff" points="1056.77,-30.07 1065.82,-24.57 1055.31,-23.22 1056.77,-30.07"/>
</a>
</g>
</g>
<!-- Node16 -->
<g id="Node000016" class="node">
<title>Node16</title>
<g id="a_Node000016"><a xlink:title=" ">
<polygon fill="#e0e0e0" stroke="#999999" points="1289,-24.5 1173,-24.5 1173,-5.5 1289,-5.5 1289,-24.5"/>
<text text-anchor="middle" x="1231" y="-12.5" font-family="Helvetica,sans-Serif" font-size="10.00">cppx/detail/node.tpp</text>
</a>
</g>
</g>
<!-- Node1&#45;&gt;Node16 -->
<g id="edge15_Node000001_Node000016" class="edge">
<title>Node1&#45;&gt;Node16</title>
<g id="a_edge15_Node000001_Node000016"><a xlink:title=" ">
<path fill="none" stroke="#63b8ff" d="M655.5,-72.85C748.99,-68.9 975.82,-57.14 1164,-30 1170.64,-29.04 1177.61,-27.83 1184.43,-26.51"/>
<polygon fill="#63b8ff" stroke="#63b8ff" points="1185.17,-29.94 1194.29,-24.54 1183.79,-23.07 1185.17,-29.94"/>
</a>
</g>
</g>
<!-- Node17 -->
<g id="Node000017" class="node">
<title>Node17</title>
<g id="a_Node000017"><a xlink:title=" ">
<polygon fill="#e0e0e0" stroke="#999999" points="1450.5,-24.5 1307.5,-24.5 1307.5,-5.5 1450.5,-5.5 1450.5,-24.5"/>
<text text-anchor="middle" x="1379" y="-12.5" font-family="Helvetica,sans-Serif" font-size="10.00">cppx/detail/node_pool.tpp</text>
</a>
</g>
</g>
<!-- Node1&#45;&gt;Node17 -->
<g id="edge16_Node000001_Node000017" class="edge">
<title>Node1&#45;&gt;Node17</title>
<g id="a_edge16_Node000001_Node000017"><a xlink:title=" ">
<path fill="none" stroke="#63b8ff" d="M655.89,-73.27C764.88,-69.87 1056.52,-58.62 1298,-30 1306.65,-28.97 1315.78,-27.64 1324.67,-26.21"/>
<polygon fill="#63b8ff" stroke="#63b8ff" points="1325.27,-29.66 1334.56,-24.56 1324.12,-22.75 1325.27,-29.66"/>
</a>
</g>
</g>
<!-- Node18 -->
<g id="Node000018" class="node">
<title>Node18</title>
<g id="a_Node000018"><a xlink:title=" ">
<polygon fill="#e0e0e0" stroke="#999999" points="1575,-24.5 1469,-24.5 1469,-5.5 1575,-5.5 1575,-24.5"/>
<text text-anchor="middle" x="1522" y="-12.5" font-family="Helvetica,sans-Serif" font-size="10.00">cppx/detail/rbt.tpp</text>
</a>
</g>
</g>
<!-- Node1&#45;&gt;Node18 -->
<g id="edge17_Node000001_Node000018" class="edge">
<title>Node1&#45;&gt;Node18</title>
<g id="a_edge17_Node000001_Node000018"><a xlink:title=" ">
<path fill="none" stroke="#63b8ff" d="M655.94,-74.81C781.83,-75.15 1154.41,-72.21 1460,-30 1466.24,-29.14 1472.78,-27.96 1479.18,-26.66"/>
<polygon fill="#63b8ff" stroke="#63b8ff" points="1480.01,-30.06 1489.05,-24.53 1478.54,-23.22 1480.01,-30.06"/>
</a>
</g>
</g>
</g>
</svg>
