<?xml version="1.0" encoding="UTF-8" standalone="no"?>
<!DOCTYPE svg PUBLIC "-//W3C//DTD SVG 1.1//EN"
 "http://www.w3.org/Graphics/SVG/1.1/DTD/svg11.dtd">
<!-- Generated by graphviz version 2.43.0 (0)
 -->
<!-- Title: include/cppx.h Pages: 1 -->
<svg width="741pt" height="93pt"
 viewBox="0.00 0.00 741.00 93.00" xmlns="http://www.w3.org/2000/svg" xmlns:xlink="http://www.w3.org/1999/xlink">
<g id="graph0" class="graph" transform="scale(1 1) rotate(0) translate(4 89)">
<title>include/cppx.h</title>
<!-- Node1 -->
<g id="Node000001" class="node">
<title>Node1</title>
<g id="a_Node000001"><a xlink:title=" ">
<polygon fill="#999999" stroke="#666666" points="441.5,-85 354.5,-85 354.5,-66 441.5,-66 441.5,-85"/>
<text text-anchor="middle" x="398" y="-73" font-family="Helvetica,sans-Serif" font-size="10.00">include/cppx.h</text>
</a>
</g>
</g>
<!-- Node2 -->
<g id="Node000002" class="node">
<title>Node2</title>
<g id="a_Node000002"><a xlink:href="benchmark__main_8cpp.html" target="_top" xlink:title=" ">
<polygon fill="white" stroke="#666666" points="134,-30 0,-30 0,0 134,0 134,-30"/>
<text text-anchor="start" x="8" y="-18" font-family="Helvetica,sans-Serif" font-size="10.00">benchmarks/benchmark</text>
<text text-anchor="middle" x="67" y="-7" font-family="Helvetica,sans-Serif" font-size="10.00">_main.cpp</text>
</a>
</g>
</g>
<!-- Node1&#45;&gt;Node2 -->
<g id="edge1_Node000001_Node000002" class="edge">
<title>Node1&#45;&gt;Node2</title>
<g id="a_edge1_Node000001_Node000002"><a xlink:title=" ">
<path fill="none" stroke="#63b8ff" d="M344.28,-65.28C292.65,-56.38 212.46,-42.46 143,-30 140.09,-29.48 137.13,-28.94 134.13,-28.4"/>
<polygon fill="#63b8ff" stroke="#63b8ff" points="343.76,-68.74 354.21,-66.99 344.95,-61.84 343.76,-68.74"/>
</a>
</g>
</g>
<!-- Node3 -->
<g id="Node000003" class="node">
<title>Node3</title>
<g id="a_Node000003"><a xlink:href="avl_8tpp.html" target="_top" xlink:title=" ">
<polygon fill="white" stroke="#666666" points="220,-24.5 152,-24.5 152,-5.5 220,-5.5 220,-24.5"/>
<text text-anchor="middle" x="186" y="-12.5" font-family="Helvetica,sans-Serif" font-size="10.00">src/avl.tpp</text>
</a>
</g>
</g>
<!-- Node1&#45;&gt;Node3 -->
<g id="edge2_Node000001_Node000003" class="edge">
<title>Node1&#45;&gt;Node3</title>
<g id="a_edge2_Node000001_Node000003"><a xlink:title=" ">
<path fill="none" stroke="#63b8ff" d="M346.58,-63.64C310.74,-55.02 262.17,-42.41 220,-30 214.28,-28.32 208.16,-26.4 202.63,-24.53"/>
<polygon fill="#63b8ff" stroke="#63b8ff" points="345.8,-67.05 356.34,-65.96 347.42,-60.24 345.8,-67.05"/>
</a>
</g>
</g>
<!-- Node4 -->
<g id="Node000004" class="node">
<title>Node4</title>
<g id="a_Node000004"><a xlink:href="binary__tree_8tpp.html" target="_top" xlink:title=" ">
<polygon fill="white" stroke="#666666" points="346,-24.5 238,-24.5 238,-5.5 346,-5.5 346,-24.5"/>
<text text-anchor="middle" x="292" y="-12.5" font-family="Helvetica,sans-Serif" font-size="10.00">src/binary_tree.tpp</text>
</a>
</g>
</g>
<!-- Node1&#45;&gt;Node4 -->
<g id="edge4_Node000001_Node000004" class="edge">
<title>Node1&#45;&gt;Node4</title>
<g id="a_edge4_Node000001_Node000004"><a xlink:title=" ">
<path fill="none" stroke="#63b8ff" d="M368.69,-61.48C346.67,-50.21 317.97,-34.23 302.5,-24.52"/>
<polygon fill="#63b8ff" stroke="#63b8ff" points="367.15,-64.63 377.66,-65.99 370.3,-58.37 367.15,-64.63"/>
</a>
</g>
</g>
<!-- Node5 -->
<g id="Node000005" class="node">
<title>Node5</title>
<g id="a_Node000005"><a xlink:href="bst_8tpp.html" target="_top" xlink:title=" ">
<polygon fill="white" stroke="#666666" points="432,-24.5 364,-24.5 364,-5.5 432,-5.5 432,-24.5"/>
<text text-anchor="middle" x="398" y="-12.5" font-family="Helvetica,sans-Serif" font-size="10.00">src/bst.tpp</text>
</a>
</g>
</g>
<!-- Node1&#45;&gt;Node5 -->
<g id="edge6_Node000001_Node000005" class="edge">
<title>Node1&#45;&gt;Node5</title>
<g id="a_edge6_Node000001_Node000005"><a xlink:title=" ">
<path fill="none" stroke="#63b8ff" d="M391.65,-55.66C390.82,-45.24 391.29,-32.8 393.04,-24.67"/>
<polygon fill="#63b8ff" stroke="#63b8ff" points="388.22,-56.44 393.04,-65.87 395.15,-55.49 388.22,-56.44"/>
</a>
</g>
</g>
<!-- Node6 -->
<g id="Node000006" class="node">
<title>Node6</title>
<g id="a_Node000006"><a xlink:href="node_8tpp.html" target="_top" xlink:title=" ">
<polygon fill="white" stroke="#666666" points="527.5,-24.5 450.5,-24.5 450.5,-5.5 527.5,-5.5 527.5,-24.5"/>
<text text-anchor="middle" x="489" y="-12.5" font-family="Helvetica,sans-Serif" font-size="10.00">src/node.tpp</text>
</a>
</g>
</g>
<!-- Node1&#45;&gt;Node6 -->
<g id="edge8_Node000001_Node000006" class="edge">
<title>Node1&#45;&gt;Node6</title>
<g id="a_edge8_Node000001_Node000006"><a xlink:title=" ">
<path fill="none" stroke="#63b8ff" d="M414.85,-59.85C430.75,-48.77 454.16,-33.93 470.55,-24.67"/>
<polygon fill="#63b8ff" stroke="#63b8ff" points="412.55,-57.19 406.47,-65.87 416.64,-62.88 412.55,-57.19"/>
</a>
</g>
</g>
<!-- Node7 -->
<g id="Node000007" class="node">
<title>Node7</title>
<g id="a_Node000007"><a xlink:href="node__pool_8tpp.html" target="_top" xlink:title=" ">
<polygon fill="white" stroke="#666666" points="648.5,-24.5 545.5,-24.5 545.5,-5.5 648.5,-5.5 648.5,-24.5"/>
<text text-anchor="middle" x="597" y="-12.5" font-family="Helvetica,sans-Serif" font-size="10.00">src/node_pool.tpp</text>
</a>
</g>
</g>
<!-- Node1&#45;&gt;Node7 -->
<g id="edge10_Node000001_Node000007" class="edge">
<title>Node1&#45;&gt;Node7</title>
<g id="a_edge10_Node000001_Node000007"><a xlink:title=" ">
<path fill="none" stroke="#63b8ff" d="M431.75,-62.96C468.4,-51.65 526.38,-34.66 563.1,-24.52"/>
<polygon fill="#63b8ff" stroke="#63b8ff" points="430.52,-59.68 422.01,-65.99 432.6,-66.36 430.52,-59.68"/>
</a>
</g>
</g>
<!-- Node8 -->
<g id="Node000008" class="node">
<title>Node8</title>
<g id="a_Node000008"><a xlink:href="rbt_8tpp.html" target="_top" xlink:title=" ">
<polygon fill="white" stroke="#666666" points="733,-24.5 667,-24.5 667,-5.5 733,-5.5 733,-24.5"/>
<text text-anchor="middle" x="700" y="-12.5" font-family="Helvetica,sans-Serif" font-size="10.00">src/rbt.tpp</text>
</a>
</g>
</g>
<!-- Node1&#45;&gt;Node8 -->
<g id="edge12_Node000001_Node000008" class="edge">
<title>Node1&#45;&gt;Node8</title>
<g id="a_edge12_Node000001_Node000008"><a xlink:title=" ">
<path fill="none" stroke="#63b8ff" d="M451.77,-66.75C502.94,-59.37 581.68,-46.88 649,-30 654.96,-28.5 661.3,-26.58 667.47,-24.63"/>
<polygon fill="#63b8ff" stroke="#63b8ff" points="451,-63.32 441.6,-68.2 451.99,-70.25 451,-63.32"/>
</a>
</g>
</g>
<!-- Node3&#45;&gt;Node1 -->
<g id="edge3_Node000003_Node000001" class="edge">
<title>Node3&#45;&gt;Node1</title>
<g id="a_edge3_Node000003_Node000001"><a xlink:title=" ">
<path fill="none" stroke="#63b8ff" d="M229.74,-27.51C232.55,-28.37 235.32,-29.21 238,-30 284.13,-43.57 337.93,-57.4 370.07,-65.96"/>
<polygon fill="#63b8ff" stroke="#63b8ff" points="230.74,-24.15 220.16,-24.53 228.67,-30.84 230.74,-24.15"/>
</a>
</g>
</g>
<!-- Node4&#45;&gt;Node1 -->
<g id="edge5_Node000004_Node000001" class="edge">
<title>Node4&#45;&gt;Node1</title>
<g id="a_edge5_Node000004_Node000001"><a xlink:title=" ">
<path fill="none" stroke="#63b8ff" d="M321.89,-29.31C343.75,-40.53 371.94,-56.23 387.31,-65.87"/>
<polygon fill="#63b8ff" stroke="#63b8ff" points="323.17,-26.04 312.67,-24.67 320.02,-32.29 323.17,-26.04"/>
</a>
</g>
</g>
<!-- Node5&#45;&gt;Node1 -->
<g id="edge7_Node000005_Node000001" class="edge">
<title>Node5&#45;&gt;Node1</title>
<g id="a_edge7_Node000005_Node000001"><a xlink:title=" ">
<path fill="none" stroke="#63b8ff" d="M404.36,-34.89C405.18,-45.31 404.71,-57.75 402.96,-65.87"/>
<polygon fill="#63b8ff" stroke="#63b8ff" points="407.78,-34.1 402.96,-24.67 400.85,-35.05 407.78,-34.1"/>
</a>
</g>
</g>
<!-- Node6&#45;&gt;Node1 -->
<g id="edge9_Node000006_Node000001" class="edge">
<title>Node6&#45;&gt;Node1</title>
<g id="a_edge9_Node000006_Node000001"><a xlink:title=" ">
<path fill="none" stroke="#63b8ff" d="M472.09,-30.69C456.17,-41.78 432.76,-56.62 416.38,-65.87"/>
<polygon fill="#63b8ff" stroke="#63b8ff" points="474.4,-33.34 480.48,-24.67 470.32,-27.66 474.4,-33.34"/>
</a>
</g>
</g>
<!-- Node7&#45;&gt;Node1 -->
<g id="edge11_Node000007_Node000001" class="edge">
<title>Node7&#45;&gt;Node1</title>
<g id="a_edge11_Node000007_Node000001"><a xlink:title=" ">
<path fill="none" stroke="#63b8ff" d="M563.22,-27.55C526.55,-38.87 468.57,-55.86 431.86,-65.99"/>
<polygon fill="#63b8ff" stroke="#63b8ff" points="564.45,-30.83 572.96,-24.52 562.37,-24.15 564.45,-30.83"/>
</a>
</g>
</g>
<!-- Node8&#45;&gt;Node1 -->
<g id="edge13_Node000008_Node000001" class="edge">
<title>Node8&#45;&gt;Node1</title>
<g id="a_edge13_Node000008_Node000001"><a xlink:title=" ">
<path fill="none" stroke="#63b8ff" d="M675.24,-27.74C672.48,-28.56 669.7,-29.32 667,-30 589.04,-49.54 495.78,-63.2 441.93,-69.86"/>
<polygon fill="#63b8ff" stroke="#63b8ff" points="676.47,-31.02 684.92,-24.63 674.33,-24.35 676.47,-31.02"/>
</a>
</g>
</g>
</g>
</svg>
