<?xml version="1.0" encoding="UTF-8" standalone="no"?>
<!DOCTYPE svg PUBLIC "-//W3C//DTD SVG 1.1//EN"
 "http://www.w3.org/Graphics/SVG/1.1/DTD/svg11.dtd">
<!-- Generated by graphviz version 2.43.0 (0)
 -->
<!-- Title: include/cppx.h Pages: 1 -->
<svg width="1443pt" height="82pt"
 viewBox="0.00 0.00 1442.50 82.00" xmlns="http://www.w3.org/2000/svg" xmlns:xlink="http://www.w3.org/1999/xlink">
<g id="graph0" class="graph" transform="scale(1 1) rotate(0) translate(4 78)">
<title>include/cppx.h</title>
<!-- Node1 -->
<g id="Node000001" class="node">
<title>Node1</title>
<g id="a_Node000001"><a xlink:title=" ">
<polygon fill="#999999" stroke="#666666" points="881.5,-74 794.5,-74 794.5,-55 881.5,-55 881.5,-74"/>
<text text-anchor="middle" x="838" y="-62" font-family="Helvetica,sans-Serif" font-size="10.00">include/cppx.h</text>
</a>
</g>
</g>
<!-- Node2 -->
<g id="Node000002" class="node">
<title>Node2</title>
<g id="a_Node000002"><a xlink:title=" ">
<polygon fill="#e0e0e0" stroke="#999999" points="64,-19 0,-19 0,0 64,0 64,-19"/>
<text text-anchor="middle" x="32" y="-7" font-family="Helvetica,sans-Serif" font-size="10.00">algorithm</text>
</a>
</g>
</g>
<!-- Node1&#45;&gt;Node2 -->
<g id="edge1_Node000001_Node000002" class="edge">
<title>Node1&#45;&gt;Node2</title>
<g id="a_edge1_Node000001_Node000002"><a xlink:title=" ">
<path fill="none" stroke="#63b8ff" d="M794.23,-63.19C678.26,-61.89 353.42,-55.16 74.07,-18.93"/>
<polygon fill="#63b8ff" stroke="#63b8ff" points="74.52,-15.46 64.15,-17.63 73.61,-22.4 74.52,-15.46"/>
</a>
</g>
</g>
<!-- Node3 -->
<g id="Node000003" class="node">
<title>Node3</title>
<g id="a_Node000003"><a xlink:title=" ">
<polygon fill="#e0e0e0" stroke="#999999" points="135.5,-19 82.5,-19 82.5,0 135.5,0 135.5,-19"/>
<text text-anchor="middle" x="109" y="-7" font-family="Helvetica,sans-Serif" font-size="10.00">cstddef</text>
</a>
</g>
</g>
<!-- Node1&#45;&gt;Node3 -->
<g id="edge2_Node000001_Node000003" class="edge">
<title>Node1&#45;&gt;Node3</title>
<g id="a_edge2_Node000001_Node000003"><a xlink:title=" ">
<path fill="none" stroke="#63b8ff" d="M794.35,-63.23C686.06,-62.02 396.33,-55.49 145.66,-18.8"/>
<polygon fill="#63b8ff" stroke="#63b8ff" points="146.04,-15.32 135.64,-17.32 145.02,-22.24 146.04,-15.32"/>
</a>
</g>
</g>
<!-- Node4 -->
<g id="Node000004" class="node">
<title>Node4</title>
<g id="a_Node000004"><a xlink:title=" ">
<polygon fill="#e0e0e0" stroke="#999999" points="204,-19 154,-19 154,0 204,0 204,-19"/>
<text text-anchor="middle" x="179" y="-7" font-family="Helvetica,sans-Serif" font-size="10.00">cstdint</text>
</a>
</g>
</g>
<!-- Node1&#45;&gt;Node4 -->
<g id="edge3_Node000001_Node000004" class="edge">
<title>Node1&#45;&gt;Node4</title>
<g id="a_edge3_Node000001_Node000004"><a xlink:title=" ">
<path fill="none" stroke="#63b8ff" d="M794.13,-62.99C693.23,-61.26 436.85,-53.68 214.06,-18.88"/>
<polygon fill="#63b8ff" stroke="#63b8ff" points="214.57,-15.41 204.15,-17.31 213.48,-22.33 214.57,-15.41"/>
</a>
</g>
</g>
<!-- Node5 -->
<g id="Node000005" class="node">
<title>Node5</title>
<g id="a_Node000005"><a xlink:title=" ">
<polygon fill="#e0e0e0" stroke="#999999" points="277.5,-19 222.5,-19 222.5,0 277.5,0 277.5,-19"/>
<text text-anchor="middle" x="250" y="-7" font-family="Helvetica,sans-Serif" font-size="10.00">fstream</text>
</a>
</g>
</g>
<!-- Node1&#45;&gt;Node5 -->
<g id="edge4_Node000001_Node000005" class="edge">
<title>Node1&#45;&gt;Node5</title>
<g id="a_edge4_Node000001_Node000005"><a xlink:title=" ">
<path fill="none" stroke="#63b8ff" d="M794.18,-62.12C702.16,-58.76 482.02,-48.29 287.9,-18.89"/>
<polygon fill="#63b8ff" stroke="#63b8ff" points="288.21,-15.4 277.8,-17.34 287.15,-22.32 288.21,-15.4"/>
</a>
</g>
</g>
<!-- Node6 -->
<g id="Node000006" class="node">
<title>Node6</title>
<g id="a_Node000006"><a xlink:title=" ">
<polygon fill="#e0e0e0" stroke="#999999" points="356,-19 296,-19 296,0 356,0 356,-19"/>
<text text-anchor="middle" x="326" y="-7" font-family="Helvetica,sans-Serif" font-size="10.00">iostream</text>
</a>
</g>
</g>
<!-- Node1&#45;&gt;Node6 -->
<g id="edge5_Node000001_Node000006" class="edge">
<title>Node1&#45;&gt;Node6</title>
<g id="a_edge5_Node000001_Node000006"><a xlink:title=" ">
<path fill="none" stroke="#63b8ff" d="M794.42,-61.16C712.49,-56.39 529.79,-43.94 366.4,-19.03"/>
<polygon fill="#63b8ff" stroke="#63b8ff" points="366.58,-15.52 356.17,-17.45 365.51,-22.44 366.58,-15.52"/>
</a>
</g>
</g>
<!-- Node7 -->
<g id="Node000007" class="node">
<title>Node7</title>
<g id="a_Node000007"><a xlink:title=" ">
<polygon fill="#e0e0e0" stroke="#999999" points="432,-19 374,-19 374,0 432,0 432,-19"/>
<text text-anchor="middle" x="403" y="-7" font-family="Helvetica,sans-Serif" font-size="10.00">memory</text>
</a>
</g>
</g>
<!-- Node1&#45;&gt;Node7 -->
<g id="edge6_Node000001_Node000007" class="edge">
<title>Node1&#45;&gt;Node7</title>
<g id="a_edge6_Node000001_Node000007"><a xlink:title=" ">
<path fill="none" stroke="#63b8ff" d="M794.31,-60.16C722.76,-54.36 575.97,-41.03 442.4,-19.07"/>
<polygon fill="#63b8ff" stroke="#63b8ff" points="442.84,-15.6 432.4,-17.41 441.69,-22.5 442.84,-15.6"/>
</a>
</g>
</g>
<!-- Node8 -->
<g id="Node000008" class="node">
<title>Node8</title>
<g id="a_Node000008"><a xlink:title=" ">
<polygon fill="#e0e0e0" stroke="#999999" points="497.5,-19 450.5,-19 450.5,0 497.5,0 497.5,-19"/>
<text text-anchor="middle" x="474" y="-7" font-family="Helvetica,sans-Serif" font-size="10.00">queue</text>
</a>
</g>
</g>
<!-- Node1&#45;&gt;Node8 -->
<g id="edge7_Node000001_Node000008" class="edge">
<title>Node1&#45;&gt;Node8</title>
<g id="a_edge7_Node000001_Node000008"><a xlink:title=" ">
<path fill="none" stroke="#63b8ff" d="M794.36,-59.3C732.65,-52.99 616.23,-39.75 507.53,-18.88"/>
<polygon fill="#63b8ff" stroke="#63b8ff" points="508.2,-15.44 497.72,-16.97 506.86,-22.31 508.2,-15.44"/>
</a>
</g>
</g>
<!-- Node9 -->
<g id="Node000009" class="node">
<title>Node9</title>
<g id="a_Node000009"><a xlink:title=" ">
<polygon fill="#e0e0e0" stroke="#999999" points="572,-19 516,-19 516,0 572,0 572,-19"/>
<text text-anchor="middle" x="544" y="-7" font-family="Helvetica,sans-Serif" font-size="10.00">sstream</text>
</a>
</g>
</g>
<!-- Node1&#45;&gt;Node9 -->
<g id="edge8_Node000001_Node000009" class="edge">
<title>Node1&#45;&gt;Node9</title>
<g id="a_edge8_Node000001_Node000009"><a xlink:title=" ">
<path fill="none" stroke="#63b8ff" d="M794.21,-56.66C745.06,-48.82 662.68,-35.19 582.52,-19.22"/>
<polygon fill="#63b8ff" stroke="#63b8ff" points="582.74,-15.69 572.25,-17.16 581.36,-22.56 582.74,-15.69"/>
</a>
</g>
</g>
<!-- Node10 -->
<g id="Node000010" class="node">
<title>Node10</title>
<g id="a_Node000010"><a xlink:title=" ">
<polygon fill="#e0e0e0" stroke="#999999" points="633.5,-19 590.5,-19 590.5,0 633.5,0 633.5,-19"/>
<text text-anchor="middle" x="612" y="-7" font-family="Helvetica,sans-Serif" font-size="10.00">stack</text>
</a>
</g>
</g>
<!-- Node1&#45;&gt;Node10 -->
<g id="edge9_Node000001_Node000010" class="edge">
<title>Node1&#45;&gt;Node10</title>
<g id="a_edge9_Node000001_Node000010"><a xlink:title=" ">
<path fill="none" stroke="#63b8ff" d="M797.69,-55C760.05,-46.92 702.11,-34.11 643.4,-19.26"/>
<polygon fill="#63b8ff" stroke="#63b8ff" points="644.15,-15.84 633.59,-16.77 642.42,-22.62 644.15,-15.84"/>
</a>
</g>
</g>
<!-- Node11 -->
<g id="Node000011" class="node">
<title>Node11</title>
<g id="a_Node000011"><a xlink:title=" ">
<polygon fill="#e0e0e0" stroke="#999999" points="716.5,-19 651.5,-19 651.5,0 716.5,0 716.5,-19"/>
<text text-anchor="middle" x="684" y="-7" font-family="Helvetica,sans-Serif" font-size="10.00">stdexcept</text>
</a>
</g>
</g>
<!-- Node1&#45;&gt;Node11 -->
<g id="edge10_Node000001_Node000011" class="edge">
<title>Node1&#45;&gt;Node11</title>
<g id="a_edge10_Node000001_Node000011"><a xlink:title=" ">
<path fill="none" stroke="#63b8ff" d="M813.26,-54.98C787.63,-46.16 747.37,-32.31 718.59,-22.41"/>
<polygon fill="#63b8ff" stroke="#63b8ff" points="719.53,-19.03 708.94,-19.08 717.25,-25.65 719.53,-19.03"/>
</a>
</g>
</g>
<!-- Node12 -->
<g id="Node000012" class="node">
<title>Node12</title>
<g id="a_Node000012"><a xlink:title=" ">
<polygon fill="#e0e0e0" stroke="#999999" points="781.5,-19 734.5,-19 734.5,0 781.5,0 781.5,-19"/>
<text text-anchor="middle" x="758" y="-7" font-family="Helvetica,sans-Serif" font-size="10.00">vector</text>
</a>
</g>
</g>
<!-- Node1&#45;&gt;Node12 -->
<g id="edge11_Node000001_Node000012" class="edge">
<title>Node1&#45;&gt;Node12</title>
<g id="a_edge11_Node000001_Node000012"><a xlink:title=" ">
<path fill="none" stroke="#63b8ff" d="M825.15,-54.98C812.86,-46.84 794.09,-34.41 779.52,-24.76"/>
<polygon fill="#63b8ff" stroke="#63b8ff" points="781.36,-21.78 771.09,-19.17 777.49,-27.61 781.36,-21.78"/>
</a>
</g>
</g>
<!-- Node13 -->
<g id="Node000013" class="node">
<title>Node13</title>
<g id="a_Node000013"><a xlink:href="avl_8tpp.html" target="_top" xlink:title=" ">
<polygon fill="white" stroke="#666666" points="876.5,-19 799.5,-19 799.5,0 876.5,0 876.5,-19"/>
<text text-anchor="middle" x="838" y="-7" font-family="Helvetica,sans-Serif" font-size="10.00">../src/avl.tpp</text>
</a>
</g>
</g>
<!-- Node1&#45;&gt;Node13 -->
<g id="edge12_Node000001_Node000013" class="edge">
<title>Node1&#45;&gt;Node13</title>
<g id="a_edge12_Node000001_Node000013"><a xlink:title=" ">
<path fill="none" stroke="#63b8ff" d="M832.83,-54.75C831.34,-47.8 830.9,-37.85 831.52,-29.13"/>
<polygon fill="#63b8ff" stroke="#63b8ff" points="835.01,-29.47 832.87,-19.09 828.07,-28.53 835.01,-29.47"/>
</a>
</g>
</g>
<!-- Node14 -->
<g id="Node000014" class="node">
<title>Node14</title>
<g id="a_Node000014"><a xlink:href="binary__tree_8tpp.html" target="_top" xlink:title=" ">
<polygon fill="white" stroke="#666666" points="1011.5,-19 894.5,-19 894.5,0 1011.5,0 1011.5,-19"/>
<text text-anchor="middle" x="953" y="-7" font-family="Helvetica,sans-Serif" font-size="10.00">../src/binary_tree.tpp</text>
</a>
</g>
</g>
<!-- Node1&#45;&gt;Node14 -->
<g id="edge14_Node000001_Node000014" class="edge">
<title>Node1&#45;&gt;Node14</title>
<g id="a_edge14_Node000001_Node000014"><a xlink:title=" ">
<path fill="none" stroke="#63b8ff" d="M851.36,-54.98C868.13,-46.38 896.94,-32.99 919.7,-23.15"/>
<polygon fill="#63b8ff" stroke="#63b8ff" points="921.21,-26.31 929.04,-19.17 918.47,-19.87 921.21,-26.31"/>
</a>
</g>
</g>
<!-- Node15 -->
<g id="Node000015" class="node">
<title>Node15</title>
<g id="a_Node000015"><a xlink:href="bst_8tpp.html" target="_top" xlink:title=" ">
<polygon fill="white" stroke="#666666" points="1106.5,-19 1029.5,-19 1029.5,0 1106.5,0 1106.5,-19"/>
<text text-anchor="middle" x="1068" y="-7" font-family="Helvetica,sans-Serif" font-size="10.00">../src/bst.tpp</text>
</a>
</g>
</g>
<!-- Node1&#45;&gt;Node15 -->
<g id="edge16_Node000001_Node000015" class="edge">
<title>Node1&#45;&gt;Node15</title>
<g id="a_edge16_Node000001_Node000015"><a xlink:title=" ">
<path fill="none" stroke="#63b8ff" d="M869.84,-54.98C908.61,-45.57 974.23,-30.43 1019.33,-20.47"/>
<polygon fill="#63b8ff" stroke="#63b8ff" points="1020.17,-23.87 1029.18,-18.3 1018.67,-17.03 1020.17,-23.87"/>
</a>
</g>
</g>
<!-- Node16 -->
<g id="Node000016" class="node">
<title>Node16</title>
<g id="a_Node000016"><a xlink:href="node_8tpp.html" target="_top" xlink:title=" ">
<polygon fill="white" stroke="#666666" points="1211,-19 1125,-19 1125,0 1211,0 1211,-19"/>
<text text-anchor="middle" x="1168" y="-7" font-family="Helvetica,sans-Serif" font-size="10.00">../src/node.tpp</text>
</a>
</g>
</g>
<!-- Node1&#45;&gt;Node16 -->
<g id="edge18_Node000001_Node000016" class="edge">
<title>Node1&#45;&gt;Node16</title>
<g id="a_edge18_Node000001_Node000016"><a xlink:title=" ">
<path fill="none" stroke="#63b8ff" d="M881.64,-55.51C934.91,-46.64 1027.39,-31.88 1107,-19 1109.49,-18.6 1112.04,-18.18 1114.64,-17.76"/>
<polygon fill="#63b8ff" stroke="#63b8ff" points="1115.42,-21.18 1124.73,-16.14 1114.3,-14.27 1115.42,-21.18"/>
</a>
</g>
</g>
<!-- Node17 -->
<g id="Node000017" class="node">
<title>Node17</title>
<g id="a_Node000017"><a xlink:href="node__pool_8tpp.html" target="_top" xlink:title=" ">
<polygon fill="white" stroke="#666666" points="1341,-19 1229,-19 1229,0 1341,0 1341,-19"/>
<text text-anchor="middle" x="1285" y="-7" font-family="Helvetica,sans-Serif" font-size="10.00">../src/node_pool.tpp</text>
</a>
</g>
</g>
<!-- Node1&#45;&gt;Node17 -->
<g id="edge20_Node000001_Node000017" class="edge">
<title>Node1&#45;&gt;Node17</title>
<g id="a_edge20_Node000001_Node000017"><a xlink:title=" ">
<path fill="none" stroke="#63b8ff" d="M881.6,-57.96C951.33,-49.76 1091.73,-33.75 1211,-19 1213.52,-18.69 1216.09,-18.37 1218.7,-18.04"/>
<polygon fill="#63b8ff" stroke="#63b8ff" points="1219.38,-21.48 1228.86,-16.75 1218.5,-14.54 1219.38,-21.48"/>
</a>
</g>
</g>
<!-- Node18 -->
<g id="Node000018" class="node">
<title>Node18</title>
<g id="a_Node000018"><a xlink:href="rbt_8tpp.html" target="_top" xlink:title=" ">
<polygon fill="white" stroke="#666666" points="1434.5,-19 1359.5,-19 1359.5,0 1434.5,0 1434.5,-19"/>
<text text-anchor="middle" x="1397" y="-7" font-family="Helvetica,sans-Serif" font-size="10.00">../src/rbt.tpp</text>
</a>
</g>
</g>
<!-- Node1&#45;&gt;Node18 -->
<g id="edge22_Node000001_Node000018" class="edge">
<title>Node1&#45;&gt;Node18</title>
<g id="a_edge22_Node000001_Node000018"><a xlink:title=" ">
<path fill="none" stroke="#63b8ff" d="M881.64,-60.76C969.16,-55.3 1171.64,-41.63 1341,-19 1343.77,-18.63 1346.63,-18.21 1349.53,-17.76"/>
<polygon fill="#63b8ff" stroke="#63b8ff" points="1350.13,-21.21 1359.43,-16.14 1349,-14.3 1350.13,-21.21"/>
</a>
</g>
</g>
<!-- Node13&#45;&gt;Node1 -->
<g id="edge13_Node000013_Node000001" class="edge">
<title>Node13&#45;&gt;Node1</title>
<g id="a_edge13_Node000013_Node000001"><a xlink:title=" ">
<path fill="none" stroke="#63b8ff" d="M843.13,-19.09C844.64,-25.99 845.09,-35.93 844.49,-44.66"/>
<polygon fill="#63b8ff" stroke="#63b8ff" points="841,-44.38 843.17,-54.75 847.94,-45.29 841,-44.38"/>
</a>
</g>
</g>
<!-- Node14&#45;&gt;Node1 -->
<g id="edge15_Node000014_Node000001" class="edge">
<title>Node14&#45;&gt;Node1</title>
<g id="a_edge15_Node000014_Node000001"><a xlink:title=" ">
<path fill="none" stroke="#63b8ff" d="M939.34,-19.17C922.42,-27.83 893.58,-41.23 870.89,-51.03"/>
<polygon fill="#63b8ff" stroke="#63b8ff" points="869.42,-47.85 861.59,-54.98 872.16,-54.29 869.42,-47.85"/>
</a>
</g>
</g>
<!-- Node15&#45;&gt;Node1 -->
<g id="edge17_Node000015_Node000001" class="edge">
<title>Node15&#45;&gt;Node1</title>
<g id="a_edge17_Node000015_Node000001"><a xlink:title=" ">
<path fill="none" stroke="#63b8ff" d="M1035.89,-19.08C998,-28.28 934.75,-42.88 889.91,-52.82"/>
<polygon fill="#63b8ff" stroke="#63b8ff" points="889.08,-49.41 880.07,-54.98 890.59,-56.25 889.08,-49.41"/>
</a>
</g>
</g>
<!-- Node16&#45;&gt;Node1 -->
<g id="edge19_Node000016_Node000001" class="edge">
<title>Node16&#45;&gt;Node1</title>
<g id="a_edge19_Node000016_Node000001"><a xlink:title=" ">
<path fill="none" stroke="#63b8ff" d="M1124.75,-19.04C1043.78,-32.14 949.57,-47.18 891.76,-55.98"/>
<polygon fill="#63b8ff" stroke="#63b8ff" points="891.11,-52.53 881.75,-57.49 892.16,-59.46 891.11,-52.53"/>
</a>
</g>
</g>
<!-- Node17&#45;&gt;Node1 -->
<g id="edge21_Node000017_Node000001" class="edge">
<title>Node17&#45;&gt;Node1</title>
<g id="a_edge21_Node000017_Node000001"><a xlink:title=" ">
<path fill="none" stroke="#63b8ff" d="M1229.34,-18.96C1229.23,-18.97 1229.11,-18.99 1229,-19 1108.91,-33.85 967.41,-49.97 891.8,-58.13"/>
<polygon fill="#63b8ff" stroke="#63b8ff" points="891.15,-54.68 881.58,-59.22 891.9,-61.64 891.15,-54.68"/>
</a>
</g>
</g>
<!-- Node18&#45;&gt;Node1 -->
<g id="edge23_Node000018_Node000001" class="edge">
<title>Node18&#45;&gt;Node1</title>
<g id="a_edge23_Node000018_Node000001"><a xlink:title=" ">
<path fill="none" stroke="#63b8ff" d="M1359.49,-18.93C1359.33,-18.96 1359.16,-18.98 1359,-19 1189.58,-41.63 987.01,-55.31 892.01,-60.76"/>
<polygon fill="#63b8ff" stroke="#63b8ff" points="891.57,-57.28 881.78,-61.34 891.96,-64.27 891.57,-57.28"/>
</a>
</g>
</g>
</g>
</svg>
