<?xml version="1.0" encoding="UTF-8"?>
<svg xmlns="http://www.w3.org/2000/svg" viewBox="0 0 1220 440">
<style>text { font-family: 'Segoe UI', Roboto, Arial, sans-serif; }</style>
<rect width="100%" height="100%" rx="12" fill="#0f172a"/>
<text x="610" y="28" text-anchor="middle" font-size="20" font-weight="bold" fill="white">CPPX Benchmark Results</text>
<rect x="20" y="40" width="380" height="300" rx="8" fill="#1e293b"/>
<text x="210" y="62" text-anchor="middle" font-size="14" font-weight="bold" fill="white">Insert Time</text>
<line x1="80" y1="300" x2="390" y2="300" stroke="#334155" stroke-width="0.5"/>
<text x="74" y="304" text-anchor="end" font-size="9" fill="#94a3b8">0</text>
<line x1="80" y1="243.75" x2="390" y2="243.75" stroke="#334155" stroke-width="0.5"/>
<text x="74" y="247.75" text-anchor="end" font-size="9" fill="#94a3b8">142</text>
<line x1="80" y1="187.5" x2="390" y2="187.5" stroke="#334155" stroke-width="0.5"/>
<text x="74" y="191.5" text-anchor="end" font-size="9" fill="#94a3b8">285</text>
<line x1="80" y1="131.25" x2="390" y2="131.25" stroke="#334155" stroke-width="0.5"/>
<text x="74" y="135.25" text-anchor="end" font-size="9" fill="#94a3b8">427</text>
<line x1="80" y1="75" x2="390" y2="75" stroke="#334155" stroke-width="0.5"/>
<text x="74" y="79" text-anchor="end" font-size="9" fill="#94a3b8">570</text>
<text x="34" y="187.5" text-anchor="middle" font-size="10" fill="#94a3b8" transform="rotate(-90,34,187.5)">Time (ms)</text>
<text x="131.667" y="318" text-anchor="middle" font-size="11" fill="#94a3b8">10K</text>
<rect x="83.4444" y="299.664" width="13.7778" height="0.336008" rx="2" fill="#8b5cf6" opacity="0.9"/>
<text x="90.3333" y="296.664" text-anchor="middle" font-size="8" font-weight="bold" fill="white">0.9</text>
<rect x="100.667" y="299.687" width="13.7778" height="0.312514" rx="2" fill="#6366f1" opacity="0.9"/>
<text x="107.556" y="296.687" text-anchor="middle" font-size="8" font-weight="bold" fill="white">0.8</text>
<rect x="117.889" y="299.92" width="13.7778" height="0.0800344" rx="2" fill="#a78bfa" opacity="0.9"/>
<text x="124.778" y="296.92" text-anchor="middle" font-size="8" font-weight="bold" fill="white">0.2</text>
<rect x="135.111" y="299.375" width="13.7778" height="0.624519" rx="2" fill="#06b6d4" opacity="0.9"/>
<text x="142" y="296.375" text-anchor="middle" font-size="8" font-weight="bold" fill="white">1.6</text>
<rect x="152.333" y="299.748" width="13.7778" height="0.252275" rx="2" fill="#f59e0b" opacity="0.9"/>
<text x="159.222" y="296.748" text-anchor="middle" font-size="8" font-weight="bold" fill="white">0.6</text>
<rect x="169.556" y="299.72" width="13.7778" height="0.280302" rx="2" fill="#10b981" opacity="0.9"/>
<text x="176.444" y="296.72" text-anchor="middle" font-size="8" font-weight="bold" fill="white">0.7</text>
<text x="235" y="318" text-anchor="middle" font-size="11" fill="#94a3b8">100K</text>
<rect x="186.778" y="294.093" width="13.7778" height="5.90733" rx="2" fill="#8b5cf6" opacity="0.9"/>
<text x="193.667" y="291.093" text-anchor="middle" font-size="8" font-weight="bold" fill="white">15.0</text>
<rect x="204" y="294.217" width="13.7778" height="5.78292" rx="2" fill="#6366f1" opacity="0.9"/>
<text x="210.889" y="291.217" text-anchor="middle" font-size="8" font-weight="bold" fill="white">14.6</text>
<rect x="221.222" y="298.782" width="13.7778" height="1.2183" rx="2" fill="#a78bfa" opacity="0.9"/>
<text x="228.111" y="295.782" text-anchor="middle" font-size="8" font-weight="bold" fill="white">3.1</text>
<rect x="238.444" y="291.686" width="13.7778" height="8.31432" rx="2" fill="#06b6d4" opacity="0.9"/>
<text x="245.333" y="288.686" text-anchor="middle" font-size="8" font-weight="bold" fill="white">21.1</text>
<rect x="255.667" y="295.682" width="13.7778" height="4.31804" rx="2" fill="#f59e0b" opacity="0.9"/>
<text x="262.556" y="292.682" text-anchor="middle" font-size="8" font-weight="bold" fill="white">10.9</text>
<rect x="272.889" y="295.691" width="13.7778" height="4.30891" rx="2" fill="#10b981" opacity="0.9"/>
<text x="279.778" y="292.691" text-anchor="middle" font-size="8" font-weight="bold" fill="white">10.9</text>
<text x="338.333" y="318" text-anchor="middle" font-size="11" fill="#94a3b8">1M</text>
<rect x="290.111" y="104.348" width="13.7778" height="195.652" rx="2" fill="#8b5cf6" opacity="0.9"/>
<text x="297" y="101.348" text-anchor="middle" font-size="8" font-weight="bold" fill="white">495.5</text>
<rect x="307.333" y="109.636" width="13.7778" height="190.364" rx="2" fill="#6366f1" opacity="0.9"/>
<text x="314.222" y="106.636" text-anchor="middle" font-size="8" font-weight="bold" fill="white">482.1</text>
<rect x="324.556" y="245.668" width="13.7778" height="54.3316" rx="2" fill="#a78bfa" opacity="0.9"/>
<text x="331.444" y="242.668" text-anchor="middle" font-size="8" font-weight="bold" fill="white">137.6</text>
<rect x="341.778" y="118.694" width="13.7778" height="181.306" rx="2" fill="#06b6d4" opacity="0.9"/>
<text x="348.667" y="115.694" text-anchor="middle" font-size="8" font-weight="bold" fill="white">459.2</text>
<rect x="359" y="187.721" width="13.7778" height="112.279" rx="2" fill="#10b981" opacity="0.9"/>
<text x="365.889" y="184.721" text-anchor="middle" font-size="8" font-weight="bold" fill="white">284.4</text>
<rect x="420" y="40" width="380" height="300" rx="8" fill="#1e293b"/>
<text x="610" y="62" text-anchor="middle" font-size="14" font-weight="bold" fill="white">Lookup Time</text>
<line x1="480" y1="300" x2="790" y2="300" stroke="#334155" stroke-width="0.5"/>
<text x="474" y="304" text-anchor="end" font-size="9" fill="#94a3b8">0</text>
<line x1="480" y1="243.75" x2="790" y2="243.75" stroke="#334155" stroke-width="0.5"/>
<text x="474" y="247.75" text-anchor="end" font-size="9" fill="#94a3b8">70</text>
<line x1="480" y1="187.5" x2="790" y2="187.5" stroke="#334155" stroke-width="0.5"/>
<text x="474" y="191.5" text-anchor="end" font-size="9" fill="#94a3b8">141</text>
<line x1="480" y1="131.25" x2="790" y2="131.25" stroke="#334155" stroke-width="0.5"/>
<text x="474" y="135.25" text-anchor="end" font-size="9" fill="#94a3b8">211</text>
<line x1="480" y1="75" x2="790" y2="75" stroke="#334155" stroke-width="0.5"/>
<text x="474" y="79" text-anchor="end" font-size="9" fill="#94a3b8">281</text>
<text x="434" y="187.5" text-anchor="middle" font-size="10" fill="#94a3b8" transform="rotate(-90,434,187.5)">Time (ms)</text>
<text x="531.667" y="318" text-anchor="middle" font-size="11" fill="#94a3b8">10K</text>
<rect x="483.444" y="299.74" width="13.7778" height="0.260176" rx="2" fill="#8b5cf6" opacity="0.9"/>
<text x="490.333" y="296.74" text-anchor="middle" font-size="8" font-weight="bold" fill="white">0.3</text>
<rect x="500.667" y="299.744" width="13.7778" height="0.25587" rx="2" fill="#6366f1" opacity="0.9"/>
<text x="507.556" y="296.744" text-anchor="middle" font-size="8" font-weight="bold" fill="white">0.3</text>
<rect x="517.889" y="299.967" width="13.7778" height="0.0334906" rx="2" fill="#a78bfa" opacity="0.9"/>
<text x="524.778" y="296.967" text-anchor="middle" font-size="8" font-weight="bold" fill="white">0.0</text>
<rect x="535.111" y="299.792" width="13.7778" height="0.208125" rx="2" fill="#06b6d4" opacity="0.9"/>
<text x="542" y="296.792" text-anchor="middle" font-size="8" font-weight="bold" fill="white">0.3</text>
<rect x="552.333" y="299.769" width="13.7778" height="0.230591" rx="2" fill="#f59e0b" opacity="0.9"/>
<text x="559.222" y="296.769" text-anchor="middle" font-size="8" font-weight="bold" fill="white">0.3</text>
<rect x="569.556" y="299.79" width="13.7778" height="0.210153" rx="2" fill="#10b981" opacity="0.9"/>
<text x="576.444" y="296.79" text-anchor="middle" font-size="8" font-weight="bold" fill="white">0.3</text>
<text x="635" y="318" text-anchor="middle" font-size="11" fill="#94a3b8">100K</text>
<rect x="586.778" y="294.693" width="13.7778" height="5.30738" rx="2" fill="#8b5cf6" opacity="0.9"/>
<text x="593.667" y="291.693" text-anchor="middle" font-size="8" font-weight="bold" fill="white">6.6</text>
<rect x="604" y="294.753" width="13.7778" height="5.24683" rx="2" fill="#6366f1" opacity="0.9"/>
<text x="610.889" y="291.753" text-anchor="middle" font-size="8" font-weight="bold" fill="white">6.6</text>
<rect x="621.222" y="299.568" width="13.7778" height="0.43174" rx="2" fill="#a78bfa" opacity="0.9"/>
<text x="628.111" y="296.568" text-anchor="middle" font-size="8" font-weight="bold" fill="white">0.5</text>
<rect x="638.444" y="295.825" width="13.7778" height="4.17504" rx="2" fill="#06b6d4" opacity="0.9"/>
<text x="645.333" y="292.825" text-anchor="middle" font-size="8" font-weight="bold" fill="white">5.2</text>
<rect x="655.667" y="295.05" width="13.7778" height="4.94973" rx="2" fill="#f59e0b" opacity="0.9"/>
<text x="662.556" y="292.05" text-anchor="middle" font-size="8" font-weight="bold" fill="white">6.2</text>
<rect x="672.889" y="295.802" width="13.7778" height="4.19835" rx="2" fill="#10b981" opacity="0.9"/>
<text x="679.778" y="292.802" text-anchor="middle" font-size="8" font-weight="bold" fill="white">5.2</text>
<text x="738.333" y="318" text-anchor="middle" font-size="11" fill="#94a3b8">1M</text>
<rect x="690.111" y="107.787" width="13.7778" height="192.213" rx="2" fill="#8b5cf6" opacity="0.9"/>
<text x="697" y="104.787" text-anchor="middle" font-size="8" font-weight="bold" fill="white">240.2</text>
<rect x="707.333" y="104.348" width="13.7778" height="195.652" rx="2" fill="#6366f1" opacity="0.9"/>
<text x="714.222" y="101.348" text-anchor="middle" font-size="8" font-weight="bold" fill="white">244.5</text>
<rect x="724.556" y="289.994" width="13.7778" height="10.0056" rx="2" fill="#a78bfa" opacity="0.9"/>
<text x="731.444" y="286.994" text-anchor="middle" font-size="8" font-weight="bold" fill="white">12.5</text>
<rect x="741.778" y="168.786" width="13.7778" height="131.214" rx="2" fill="#06b6d4" opacity="0.9"/>
<text x="748.667" y="165.786" text-anchor="middle" font-size="8" font-weight="bold" fill="white">164.0</text>
<rect x="759" y="170.108" width="13.7778" height="129.892" rx="2" fill="#10b981" opacity="0.9"/>
<text x="765.889" y="167.108" text-anchor="middle" font-size="8" font-weight="bold" fill="white">162.3</text>
<rect x="820" y="40" width="380" height="300" rx="8" fill="#1e293b"/>
<text x="1010" y="62" text-anchor="middle" font-size="14" font-weight="bold" fill="white">Delete Time</text>
<line x1="880" y1="300" x2="1190" y2="300" stroke="#334155" stroke-width="0.5"/>
<text x="874" y="304" text-anchor="end" font-size="9" fill="#94a3b8">0.0</text>
<line x1="880" y1="243.75" x2="1190" y2="243.75" stroke="#334155" stroke-width="0.5"/>
<text x="874" y="247.75" text-anchor="end" font-size="9" fill="#94a3b8">20.7</text>
<line x1="880" y1="187.5" x2="1190" y2="187.5" stroke="#334155" stroke-width="0.5"/>
<text x="874" y="191.5" text-anchor="end" font-size="9" fill="#94a3b8">41.5</text>
<line x1="880" y1="131.25" x2="1190" y2="131.25" stroke="#334155" stroke-width="0.5"/>
<text x="874" y="135.25" text-anchor="end" font-size="9" fill="#94a3b8">62.2</text>
<line x1="880" y1="75" x2="1190" y2="75" stroke="#334155" stroke-width="0.5"/>
<text x="874" y="79" text-anchor="end" font-size="9" fill="#94a3b8">82.9</text>
<text x="834" y="187.5" text-anchor="middle" font-size="10" fill="#94a3b8" transform="rotate(-90,834,187.5)">Time (ms)</text>
<text x="931.667" y="318" text-anchor="middle" font-size="11" fill="#94a3b8">10K</text>
<rect x="883.444" y="299.745" width="13.7778" height="0.25532" rx="2" fill="#8b5cf6" opacity="0.9"/>
<text x="890.333" y="296.745" text-anchor="middle" font-size="8" font-weight="bold" fill="white">0.1</text>
<rect x="900.667" y="299.749" width="13.7778" height="0.250782" rx="2" fill="#6366f1" opacity="0.9"/>
<text x="907.556" y="296.749" text-anchor="middle" font-size="8" font-weight="bold" fill="white">0.1</text>
<rect x="917.889" y="299.933" width="13.7778" height="0.0669888" rx="2" fill="#a78bfa" opacity="0.9"/>
<text x="924.778" y="296.933" text-anchor="middle" font-size="8" font-weight="bold" fill="white">0.0</text>
<rect x="935.111" y="299.513" width="13.7778" height="0.486754" rx="2" fill="#06b6d4" opacity="0.9"/>
<text x="942" y="296.513" text-anchor="middle" font-size="8" font-weight="bold" fill="white">0.2</text>
<rect x="952.333" y="299.808" width="13.7778" height="0.191947" rx="2" fill="#f59e0b" opacity="0.9"/>
<text x="959.222" y="296.808" text-anchor="middle" font-size="8" font-weight="bold" fill="white">0.1</text>
<rect x="969.556" y="299.795" width="13.7778" height="0.204528" rx="2" fill="#10b981" opacity="0.9"/>
<text x="976.444" y="296.795" text-anchor="middle" font-size="8" font-weight="bold" fill="white">0.1</text>
<text x="1035" y="318" text-anchor="middle" font-size="11" fill="#94a3b8">100K</text>
<rect x="986.778" y="295.383" width="13.7778" height="4.6175" rx="2" fill="#8b5cf6" opacity="0.9"/>
<text x="993.667" y="292.383" text-anchor="middle" font-size="8" font-weight="bold" fill="white">1.7</text>
<rect x="1004" y="295.604" width="13.7778" height="4.39626" rx="2" fill="#6366f1" opacity="0.9"/>
<text x="1010.89" y="292.604" text-anchor="middle" font-size="8" font-weight="bold" fill="white">1.6</text>
<rect x="1021.22" y="298.983" width="13.7778" height="1.01713" rx="2" fill="#a78bfa" opacity="0.9"/>
<text x="1028.11" y="295.983" text-anchor="middle" font-size="8" font-weight="bold" fill="white">0.4</text>
<rect x="1038.44" y="293.28" width="13.7778" height="6.71958" rx="2" fill="#06b6d4" opacity="0.9"/>
<text x="1045.33" y="290.28" text-anchor="middle" font-size="8" font-weight="bold" fill="white">2.5</text>
<rect x="1055.67" y="296.298" width="13.7778" height="3.70163" rx="2" fill="#f59e0b" opacity="0.9"/>
<text x="1062.56" y="293.298" text-anchor="middle" font-size="8" font-weight="bold" fill="white">1.4</text>
<rect x="1072.89" y="296.36" width="13.7778" height="3.63986" rx="2" fill="#10b981" opacity="0.9"/>
<text x="1079.78" y="293.36" text-anchor="middle" font-size="8" font-weight="bold" fill="white">1.3</text>
<text x="1138.33" y="318" text-anchor="middle" font-size="11" fill="#94a3b8">1M</text>
<rect x="1090.11" y="147.964" width="13.7778" height="152.036" rx="2" fill="#8b5cf6" opacity="0.9"/>
<text x="1097" y="144.964" text-anchor="middle" font-size="8" font-weight="bold" fill="white">56.0</text>
<rect x="1107.33" y="149.399" width="13.7778" height="150.601" rx="2" fill="#6366f1" opacity="0.9"/>
<text x="1114.22" y="146.399" text-anchor="middle" font-size="8" font-weight="bold" fill="white">55.5</text>
<rect x="1124.56" y="255.643" width="13.7778" height="44.3572" rx="2" fill="#a78bfa" opacity="0.9"/>
<text x="1131.44" y="252.643" text-anchor="middle" font-size="8" font-weight="bold" fill="white">16.4</text>
<rect x="1141.78" y="104.348" width="13.7778" height="195.652" rx="2" fill="#06b6d4" opacity="0.9"/>
<text x="1148.67" y="101.348" text-anchor="middle" font-size="8" font-weight="bold" fill="white">72.1</text>
<rect x="1159" y="193.019" width="13.7778" height="106.981" rx="2" fill="#10b981" opacity="0.9"/>
<text x="1165.89" y="190.019" text-anchor="middle" font-size="8" font-weight="bold" fill="white">39.4</text>
<rect x="100" y="358" width="14" height="14" rx="3" fill="#8b5cf6"/>
<text x="120" y="370" font-size="12" fill="white">std::map</text>
<rect x="270" y="358" width="14" height="14" rx="3" fill="#6366f1"/>
<text x="290" y="370" font-size="12" fill="white">std::set</text>
<rect x="440" y="358" width="14" height="14" rx="3" fill="#a78bfa"/>
<text x="460" y="370" font-size="12" fill="white">std::unordered_set</text>
<rect x="610" y="358" width="14" height="14" rx="3" fill="#06b6d4"/>
<text x="630" y="370" font-size="12" fill="white">stl_ext::AVLTree</text>
<rect x="780" y="358" width="14" height="14" rx="3" fill="#f59e0b"/>
<text x="800" y="370" font-size="12" fill="white">stl_ext::BST</text>
<rect x="950" y="358" width="14" height="14" rx="3" fill="#10b981"/>
<text x="970" y="370" font-size="12" fill="white">stl_ext::RBTree</text>
</svg>
