<?xml version="1.0" encoding="UTF-8"?>
<svg xmlns="http://www.w3.org/2000/svg" viewBox="0 0 1220 440">
<style>text { font-family: 'Segoe UI', Roboto, Arial, sans-serif; }</style>
<rect width="100%" height="100%" rx="12" fill="#0f172a"/>
<text x="610" y="28" text-anchor="middle" font-size="20" font-weight="bold" fill="white">CPPX Benchmark Results</text>
<rect x="20" y="40" width="380" height="300" rx="8" fill="#1e293b"/>
<text x="210" y="62" text-anchor="middle" font-size="14" font-weight="bold" fill="white">Insert Time</text>
<line x1="80" y1="300" x2="390" y2="300" stroke="#334155" stroke-width="0.5"/>
<text x="74" y="304" text-anchor="end" font-size="9" fill="#94a3b8">0</text>
<line x1="80" y1="243.75" x2="390" y2="243.75" stroke="#334155" stroke-width="0.5"/>
<text x="74" y="247.75" text-anchor="end" font-size="9" fill="#94a3b8">168</text>
<line x1="80" y1="187.5" x2="390" y2="187.5" stroke="#334155" stroke-width="0.5"/>
<text x="74" y="191.5" text-anchor="end" font-size="9" fill="#94a3b8">336</text>
<line x1="80" y1="131.25" x2="390" y2="131.25" stroke="#334155" stroke-width="0.5"/>
<text x="74" y="135.25" text-anchor="end" font-size="9" fill="#94a3b8">504</text>
<line x1="80" y1="75" x2="390" y2="75" stroke="#334155" stroke-width="0.5"/>
<text x="74" y="79" text-anchor="end" font-size="9" fill="#94a3b8">672</text>
<text x="34" y="187.5" text-anchor="middle" font-size="10" fill="#94a3b8" transform="rotate(-90,34,187.5)">Time (ms)</text>
<text x="131.667" y="318" text-anchor="middle" font-size="11" fill="#94a3b8">10K</text>
<rect x="83.4444" y="299.719" width="13.7778" height="0.281363" rx="2" fill="#8b5cf6" opacity="0.9"/>
<text x="90.3333" y="296.719" text-anchor="middle" font-size="8" font-weight="bold" fill="white">0.8</text>
<rect x="100.667" y="299.706" width="13.7778" height="0.293975" rx="2" fill="#6366f1" opacity="0.9"/>
<text x="107.556" y="296.706" text-anchor="middle" font-size="8" font-weight="bold" fill="white">0.9</text>
<rect x="117.889" y="299.927" width="13.7778" height="0.0728546" rx="2" fill="#a78bfa" opacity="0.9"/>
<text x="124.778" y="296.927" text-anchor="middle" font-size="8" font-weight="bold" fill="white">0.2</text>
<rect x="135.111" y="299.454" width="13.7778" height="0.546277" rx="2" fill="#06b6d4" opacity="0.9"/>
<text x="142" y="296.454" text-anchor="middle" font-size="8" font-weight="bold" fill="white">1.6</text>
<rect x="152.333" y="299.776" width="13.7778" height="0.223776" rx="2" fill="#f59e0b" opacity="0.9"/>
<text x="159.222" y="296.776" text-anchor="middle" font-size="8" font-weight="bold" fill="white">0.7</text>
<rect x="169.556" y="299.744" width="13.7778" height="0.256115" rx="2" fill="#10b981" opacity="0.9"/>
<text x="176.444" y="296.744" text-anchor="middle" font-size="8" font-weight="bold" fill="white">0.8</text>
<text x="235" y="318" text-anchor="middle" font-size="11" fill="#94a3b8">100K</text>
<rect x="186.778" y="294.447" width="13.7778" height="5.55292" rx="2" fill="#8b5cf6" opacity="0.9"/>
<text x="193.667" y="291.447" text-anchor="middle" font-size="8" font-weight="bold" fill="white">16.6</text>
<rect x="204" y="294.554" width="13.7778" height="5.44605" rx="2" fill="#6366f1" opacity="0.9"/>
<text x="210.889" y="291.554" text-anchor="middle" font-size="8" font-weight="bold" fill="white">16.3</text>
<rect x="221.222" y="298.893" width="13.7778" height="1.10671" rx="2" fill="#a78bfa" opacity="0.9"/>
<text x="228.111" y="295.893" text-anchor="middle" font-size="8" font-weight="bold" fill="white">3.3</text>
<rect x="238.444" y="292.413" width="13.7778" height="7.58704" rx="2" fill="#06b6d4" opacity="0.9"/>
<text x="245.333" y="289.413" text-anchor="middle" font-size="8" font-weight="bold" fill="white">22.7</text>
<rect x="255.667" y="296.305" width="13.7778" height="3.69544" rx="2" fill="#f59e0b" opacity="0.9"/>
<text x="262.556" y="293.305" text-anchor="middle" font-size="8" font-weight="bold" fill="white">11.0</text>
<rect x="272.889" y="296.183" width="13.7778" height="3.81714" rx="2" fill="#10b981" opacity="0.9"/>
<text x="279.778" y="293.183" text-anchor="middle" font-size="8" font-weight="bold" fill="white">11.4</text>
<text x="338.333" y="318" text-anchor="middle" font-size="11" fill="#94a3b8">1M</text>
<rect x="290.111" y="104.348" width="13.7778" height="195.652" rx="2" fill="#8b5cf6" opacity="0.9"/>
<text x="297" y="101.348" text-anchor="middle" font-size="8" font-weight="bold" fill="white">584.5</text>
<rect x="307.333" y="108.623" width="13.7778" height="191.377" rx="2" fill="#6366f1" opacity="0.9"/>
<text x="314.222" y="105.623" text-anchor="middle" font-size="8" font-weight="bold" fill="white">571.8</text>
<rect x="324.556" y="249.682" width="13.7778" height="50.318" rx="2" fill="#a78bfa" opacity="0.9"/>
<text x="331.444" y="246.682" text-anchor="middle" font-size="8" font-weight="bold" fill="white">150.3</text>
<rect x="341.778" y="122.023" width="13.7778" height="177.977" rx="2" fill="#06b6d4" opacity="0.9"/>
<text x="348.667" y="119.023" text-anchor="middle" font-size="8" font-weight="bold" fill="white">531.7</text>
<rect x="359" y="174.643" width="13.7778" height="125.357" rx="2" fill="#10b981" opacity="0.9"/>
<text x="365.889" y="171.643" text-anchor="middle" font-size="8" font-weight="bold" fill="white">374.5</text>
<rect x="420" y="40" width="380" height="300" rx="8" fill="#1e293b"/>
<text x="610" y="62" text-anchor="middle" font-size="14" font-weight="bold" fill="white">Lookup Time</text>
<line x1="480" y1="300" x2="790" y2="300" stroke="#334155" stroke-width="0.5"/>
<text x="474" y="304" text-anchor="end" font-size="9" fill="#94a3b8">0</text>
<line x1="480" y1="243.75" x2="790" y2="243.75" stroke="#334155" stroke-width="0.5"/>
<text x="474" y="247.75" text-anchor="end" font-size="9" fill="#94a3b8">82</text>
<line x1="480" y1="187.5" x2="790" y2="187.5" stroke="#334155" stroke-width="0.5"/>
<text x="474" y="191.5" text-anchor="end" font-size="9" fill="#94a3b8">164</text>
<line x1="480" y1="131.25" x2="790" y2="131.25" stroke="#334155" stroke-width="0.5"/>
<text x="474" y="135.25" text-anchor="end" font-size="9" fill="#94a3b8">247</text>
<line x1="480" y1="75" x2="790" y2="75" stroke="#334155" stroke-width="0.5"/>
<text x="474" y="79" text-anchor="end" font-size="9" fill="#94a3b8">329</text>
<text x="434" y="187.5" text-anchor="middle" font-size="10" fill="#94a3b8" transform="rotate(-90,434,187.5)">Time (ms)</text>
<text x="531.667" y="318" text-anchor="middle" font-size="11" fill="#94a3b8">10K</text>
<rect x="483.444" y="299.777" width="13.7778" height="0.222819" rx="2" fill="#8b5cf6" opacity="0.9"/>
<text x="490.333" y="296.777" text-anchor="middle" font-size="8" font-weight="bold" fill="white">0.3</text>
<rect x="500.667" y="299.766" width="13.7778" height="0.23397" rx="2" fill="#6366f1" opacity="0.9"/>
<text x="507.556" y="296.766" text-anchor="middle" font-size="8" font-weight="bold" fill="white">0.3</text>
<rect x="517.889" y="299.971" width="13.7778" height="0.0285749" rx="2" fill="#a78bfa" opacity="0.9"/>
<text x="524.778" y="296.971" text-anchor="middle" font-size="8" font-weight="bold" fill="white">0.0</text>
<rect x="535.111" y="299.817" width="13.7778" height="0.182909" rx="2" fill="#06b6d4" opacity="0.9"/>
<text x="542" y="296.817" text-anchor="middle" font-size="8" font-weight="bold" fill="white">0.3</text>
<rect x="552.333" y="299.806" width="13.7778" height="0.193702" rx="2" fill="#f59e0b" opacity="0.9"/>
<text x="559.222" y="296.806" text-anchor="middle" font-size="8" font-weight="bold" fill="white">0.3</text>
<rect x="569.556" y="299.818" width="13.7778" height="0.182367" rx="2" fill="#10b981" opacity="0.9"/>
<text x="576.444" y="296.818" text-anchor="middle" font-size="8" font-weight="bold" fill="white">0.3</text>
<text x="635" y="318" text-anchor="middle" font-size="11" fill="#94a3b8">100K</text>
<rect x="586.778" y="295.284" width="13.7778" height="4.71552" rx="2" fill="#8b5cf6" opacity="0.9"/>
<text x="593.667" y="292.284" text-anchor="middle" font-size="8" font-weight="bold" fill="white">6.9</text>
<rect x="604" y="295.168" width="13.7778" height="4.83227" rx="2" fill="#6366f1" opacity="0.9"/>
<text x="610.889" y="292.168" text-anchor="middle" font-size="8" font-weight="bold" fill="white">7.1</text>
<rect x="621.222" y="299.616" width="13.7778" height="0.383668" rx="2" fill="#a78bfa" opacity="0.9"/>
<text x="628.111" y="296.616" text-anchor="middle" font-size="8" font-weight="bold" fill="white">0.6</text>
<rect x="638.444" y="296.121" width="13.7778" height="3.87893" rx="2" fill="#06b6d4" opacity="0.9"/>
<text x="645.333" y="293.121" text-anchor="middle" font-size="8" font-weight="bold" fill="white">5.7</text>
<rect x="655.667" y="295.681" width="13.7778" height="4.31901" rx="2" fill="#f59e0b" opacity="0.9"/>
<text x="662.556" y="292.681" text-anchor="middle" font-size="8" font-weight="bold" fill="white">6.3</text>
<rect x="672.889" y="296.343" width="13.7778" height="3.65703" rx="2" fill="#10b981" opacity="0.9"/>
<text x="679.778" y="293.343" text-anchor="middle" font-size="8" font-weight="bold" fill="white">5.3</text>
<text x="738.333" y="318" text-anchor="middle" font-size="11" fill="#94a3b8">1M</text>
<rect x="690.111" y="114.063" width="13.7778" height="185.937" rx="2" fill="#8b5cf6" opacity="0.9"/>
<text x="697" y="111.063" text-anchor="middle" font-size="8" font-weight="bold" fill="white">271.7</text>
<rect x="707.333" y="104.348" width="13.7778" height="195.652" rx="2" fill="#6366f1" opacity="0.9"/>
<text x="714.222" y="101.348" text-anchor="middle" font-size="8" font-weight="bold" fill="white">285.8</text>
<rect x="724.556" y="290.971" width="13.7778" height="9.02866" rx="2" fill="#a78bfa" opacity="0.9"/>
<text x="731.444" y="287.971" text-anchor="middle" font-size="8" font-weight="bold" fill="white">13.2</text>
<rect x="741.778" y="173.063" width="13.7778" height="126.937" rx="2" fill="#06b6d4" opacity="0.9"/>
<text x="748.667" y="170.063" text-anchor="middle" font-size="8" font-weight="bold" fill="white">185.5</text>
<rect x="759" y="166.115" width="13.7778" height="133.885" rx="2" fill="#10b981" opacity="0.9"/>
<text x="765.889" y="163.115" text-anchor="middle" font-size="8" font-weight="bold" fill="white">195.6</text>
<rect x="820" y="40" width="380" height="300" rx="8" fill="#1e293b"/>
<text x="1010" y="62" text-anchor="middle" font-size="14" font-weight="bold" fill="white">Delete Time</text>
<line x1="880" y1="300" x2="1190" y2="300" stroke="#334155" stroke-width="0.5"/>
<text x="874" y="304" text-anchor="end" font-size="9" fill="#94a3b8">0.0</text>
<line x1="880" y1="243.75" x2="1190" y2="243.75" stroke="#334155" stroke-width="0.5"/>
<text x="874" y="247.75" text-anchor="end" font-size="9" fill="#94a3b8">23.4</text>
<line x1="880" y1="187.5" x2="1190" y2="187.5" stroke="#334155" stroke-width="0.5"/>
<text x="874" y="191.5" text-anchor="end" font-size="9" fill="#94a3b8">46.9</text>
<line x1="880" y1="131.25" x2="1190" y2="131.25" stroke="#334155" stroke-width="0.5"/>
<text x="874" y="135.25" text-anchor="end" font-size="9" fill="#94a3b8">70.3</text>
<line x1="880" y1="75" x2="1190" y2="75" stroke="#334155" stroke-width="0.5"/>
<text x="874" y="79" text-anchor="end" font-size="9" fill="#94a3b8">93.8</text>
<text x="834" y="187.5" text-anchor="middle" font-size="10" fill="#94a3b8" transform="rotate(-90,834,187.5)">Time (ms)</text>
<text x="931.667" y="318" text-anchor="middle" font-size="11" fill="#94a3b8">10K</text>
<rect x="883.444" y="299.779" width="13.7778" height="0.221381" rx="2" fill="#8b5cf6" opacity="0.9"/>
<text x="890.333" y="296.779" text-anchor="middle" font-size="8" font-weight="bold" fill="white">0.1</text>
<rect x="900.667" y="299.775" width="13.7778" height="0.225156" rx="2" fill="#6366f1" opacity="0.9"/>
<text x="907.556" y="296.775" text-anchor="middle" font-size="8" font-weight="bold" fill="white">0.1</text>
<rect x="917.889" y="299.941" width="13.7778" height="0.0591043" rx="2" fill="#a78bfa" opacity="0.9"/>
<text x="924.778" y="296.941" text-anchor="middle" font-size="8" font-weight="bold" fill="white">0.0</text>
<rect x="935.111" y="299.453" width="13.7778" height="0.546948" rx="2" fill="#06b6d4" opacity="0.9"/>
<text x="942" y="296.453" text-anchor="middle" font-size="8" font-weight="bold" fill="white">0.2</text>
<rect x="952.333" y="299.836" width="13.7778" height="0.163551" rx="2" fill="#f59e0b" opacity="0.9"/>
<text x="959.222" y="296.836" text-anchor="middle" font-size="8" font-weight="bold" fill="white">0.1</text>
<rect x="969.556" y="299.817" width="13.7778" height="0.18315" rx="2" fill="#10b981" opacity="0.9"/>
<text x="976.444" y="296.817" text-anchor="middle" font-size="8" font-weight="bold" fill="white">0.1</text>
<text x="1035" y="318" text-anchor="middle" font-size="11" fill="#94a3b8">100K</text>
<rect x="986.778" y="296.019" width="13.7778" height="3.98055" rx="2" fill="#8b5cf6" opacity="0.9"/>
<text x="993.667" y="293.019" text-anchor="middle" font-size="8" font-weight="bold" fill="white">1.7</text>
<rect x="1004" y="295.964" width="13.7778" height="4.0359" rx="2" fill="#6366f1" opacity="0.9"/>
<text x="1010.89" y="292.964" text-anchor="middle" font-size="8" font-weight="bold" fill="white">1.7</text>
<rect x="1021.22" y="299.033" width="13.7778" height="0.967398" rx="2" fill="#a78bfa" opacity="0.9"/>
<text x="1028.11" y="296.033" text-anchor="middle" font-size="8" font-weight="bold" fill="white">0.4</text>
<rect x="1038.44" y="292.894" width="13.7778" height="7.10619" rx="2" fill="#06b6d4" opacity="0.9"/>
<text x="1045.33" y="289.894" text-anchor="middle" font-size="8" font-weight="bold" fill="white">3.0</text>
<rect x="1055.67" y="296.29" width="13.7778" height="3.71041" rx="2" fill="#f59e0b" opacity="0.9"/>
<text x="1062.56" y="293.29" text-anchor="middle" font-size="8" font-weight="bold" fill="white">1.5</text>
<rect x="1072.89" y="296.757" width="13.7778" height="3.24343" rx="2" fill="#10b981" opacity="0.9"/>
<text x="1079.78" y="293.757" text-anchor="middle" font-size="8" font-weight="bold" fill="white">1.4</text>
<text x="1138.33" y="318" text-anchor="middle" font-size="11" fill="#94a3b8">1M</text>
<rect x="1090.11" y="143.851" width="13.7778" height="156.149" rx="2" fill="#8b5cf6" opacity="0.9"/>
<text x="1097" y="140.851" text-anchor="middle" font-size="8" font-weight="bold" fill="white">65.1</text>
<rect x="1107.33" y="140.585" width="13.7778" height="159.415" rx="2" fill="#6366f1" opacity="0.9"/>
<text x="1114.22" y="137.585" text-anchor="middle" font-size="8" font-weight="bold" fill="white">66.4</text>
<rect x="1124.56" y="259.842" width="13.7778" height="40.1575" rx="2" fill="#a78bfa" opacity="0.9"/>
<text x="1131.44" y="256.842" text-anchor="middle" font-size="8" font-weight="bold" fill="white">16.7</text>
<rect x="1141.78" y="104.348" width="13.7778" height="195.652" rx="2" fill="#06b6d4" opacity="0.9"/>
<text x="1148.67" y="101.348" text-anchor="middle" font-size="8" font-weight="bold" fill="white">81.5</text>
<rect x="1159" y="182.936" width="13.7778" height="117.064" rx="2" fill="#10b981" opacity="0.9"/>
<text x="1165.89" y="179.936" text-anchor="middle" font-size="8" font-weight="bold" fill="white">48.8</text>
<rect x="100" y="358" width="14" height="14" rx="3" fill="#8b5cf6"/>
<text x="120" y="370" font-size="12" fill="white">std::map</text>
<rect x="270" y="358" width="14" height="14" rx="3" fill="#6366f1"/>
<text x="290" y="370" font-size="12" fill="white">std::set</text>
<rect x="440" y="358" width="14" height="14" rx="3" fill="#a78bfa"/>
<text x="460" y="370" font-size="12" fill="white">std::unordered_set</text>
<rect x="610" y="358" width="14" height="14" rx="3" fill="#06b6d4"/>
<text x="630" y="370" font-size="12" fill="white">stl_ext::AVLTree</text>
<rect x="780" y="358" width="14" height="14" rx="3" fill="#f59e0b"/>
<text x="800" y="370" font-size="12" fill="white">stl_ext::BST</text>
<rect x="950" y="358" width="14" height="14" rx="3" fill="#10b981"/>
<text x="970" y="370" font-size="12" fill="white">stl_ext::RBTree</text>
</svg>
